<?xml version="1.0" encoding="UTF-8"?>
<!DOCTYPE svg PUBLIC "-//W3C//DTD SVG 1.1//EN" "http://www.w3.org/Graphics/SVG/1.1/DTD/svg11.dtd">
<svg xmlns="http://www.w3.org/2000/svg" version="1.1" width="192px" height="279px" style="shape-rendering:geometricPrecision; text-rendering:geometricPrecision; image-rendering:optimizeQuality; fill-rule:evenodd; clip-rule:evenodd" xmlns:xlink="http://www.w3.org/1999/xlink">
<g><path style="opacity:1" fill="#298032" d="M -0.5,-0.5 C 63.5,-0.5 127.5,-0.5 191.5,-0.5C 191.5,92.5 191.5,185.5 191.5,278.5C 127.5,278.5 63.5,278.5 -0.5,278.5C -0.5,185.5 -0.5,92.5 -0.5,-0.5 Z"/></g>
<g><path style="opacity:1" fill="#f5f9f5" d="M 82.5,89.5 C 97.1841,88.7938 111.517,90.6271 125.5,95C 130.227,96.7402 134.06,99.5735 137,103.5C 137.774,126.448 127.274,141.615 105.5,149C 77.4407,153.263 59.6074,141.763 52,114.5C 49.8457,104.976 53.3457,98.4762 62.5,95C 69.1524,92.6269 75.819,90.7936 82.5,89.5 Z"/></g>
<g><path style="opacity:1" fill="#2c8134" d="M 83.5,93.5 C 96.741,92.9468 109.741,94.4468 122.5,98C 126.51,99.3428 130.01,101.509 133,104.5C 133.449,109.427 131.282,112.927 126.5,115C 108.154,121.132 89.4875,122.132 70.5,118C 64.6624,116.833 59.8291,114 56,109.5C 55.3333,107.833 55.3333,106.167 56,104.5C 58.2336,102.3 60.7336,100.467 63.5,99C 70.1179,96.5152 76.7845,94.6818 83.5,93.5 Z"/></g>
<g><path style="opacity:1" fill="#509653" d="M 130.5,116.5 C 131.525,116.897 131.692,117.563 131,118.5C 129.374,121.128 127.374,123.461 125,125.5C 124.986,123.529 125.319,121.529 126,119.5C 127.878,118.947 129.378,117.947 130.5,116.5 Z"/></g>
<g><path style="opacity:1" fill="#4b924e" d="M 57.5,116.5 C 61.8763,118.025 64.043,121.025 64,125.5C 60.8338,123.147 58.6672,120.147 57.5,116.5 Z"/></g>
<g><path style="opacity:1" fill="#328439" d="M 67.5,121.5 C 71.0845,122.583 74.7512,123.249 78.5,123.5C 78.4615,126.807 79.1282,129.974 80.5,133C 80.1667,133.5 79.8333,134 79.5,134.5C 76.6066,133.26 73.7733,131.926 71,130.5C 69.7286,127.516 68.562,124.516 67.5,121.5 Z"/></g>
<g><path style="opacity:1" fill="#34853a" d="M 117.5,121.5 C 118.978,121.238 120.311,121.571 121.5,122.5C 120.305,124.751 119.305,127.085 118.5,129.5C 108.271,137.346 105.938,135.346 111.5,123.5C 113.657,122.95 115.657,122.283 117.5,121.5 Z"/></g>
<g><path style="opacity:1" fill="#328438" d="M 82.5,124.5 C 90.5277,124.169 98.5277,124.502 106.5,125.5C 105.573,128.713 104.573,131.88 103.5,135C 97.9034,136.456 92.2367,136.789 86.5,136C 84.4845,132.456 83.1512,128.623 82.5,124.5 Z"/></g>
<g><path style="opacity:1" fill="#60a063" d="M 63.5,130.5 C 66.0892,131.419 68.0892,133.086 69.5,135.5C 68.9984,136.521 68.3317,136.688 67.5,136C 65.5359,134.549 64.2026,132.716 63.5,130.5 Z"/></g>
<g><path style="opacity:1" fill="#62a064" d="M 124.5,130.5 C 125.525,130.897 125.692,131.563 125,132.5C 122.936,135.274 120.436,137.107 117.5,138C 119.361,134.975 121.694,132.475 124.5,130.5 Z"/></g>
<g><path style="opacity:1" fill="#3f8c44" d="M 76.5,138.5 C 80.2351,137.542 82.9017,139.042 84.5,143C 81.5037,142.329 78.837,140.829 76.5,138.5 Z"/></g>
<g><path style="opacity:1" fill="#aed1b0" d="M 100.5,141.5 C 96.5,140.167 92.5,140.167 88.5,141.5C 87.9569,141.44 87.6236,141.107 87.5,140.5C 92.1667,139.167 96.8333,139.167 101.5,140.5C 101.376,141.107 101.043,141.44 100.5,141.5 Z"/></g>
<g><path style="opacity:1" fill="#48914c" d="M 109.5,137.5 C 110.552,137.351 111.552,137.517 112.5,138C 110.315,140.744 107.649,142.41 104.5,143C 105.39,140.335 107.057,138.501 109.5,137.5 Z"/></g>
<g><path style="opacity:1" fill="#308337" d="M 100.5,141.5 C 96.5,148.167 92.5,148.167 88.5,141.5C 92.5,140.167 96.5,140.167 100.5,141.5 Z"/></g>
<g><path style="opacity:1" fill="#f5f9f5" d="M 27.5,188.5 C 25.2646,188.795 23.2646,188.461 21.5,187.5C 24.6304,178.779 27.9637,170.112 31.5,161.5C 34.7674,160.008 36.9341,161.008 38,164.5C 41.0687,172.54 44.2354,180.54 47.5,188.5C 45.2573,189.474 42.924,189.808 40.5,189.5C 40.1667,187.5 39.8333,185.5 39.5,183.5C 36.1501,183.335 32.8168,183.502 29.5,184C 28.4178,185.33 27.7512,186.83 27.5,188.5 Z"/></g>
<g><path style="opacity:1" fill="#fafcfa" d="M 57.5,183.5 C 61.6344,184.485 65.9677,184.818 70.5,184.5C 70.5,185.833 70.5,187.167 70.5,188.5C 64.1667,188.5 57.8333,188.5 51.5,188.5C 51.5,179.167 51.5,169.833 51.5,160.5C 53.5,160.5 55.5,160.5 57.5,160.5C 57.5,168.167 57.5,175.833 57.5,183.5 Z"/></g>
<g><path style="opacity:1" fill="#fdfdfd" d="M 118.5,161.5 C 118.5,163.167 118.5,164.833 118.5,166.5C 113.833,166.5 109.167,166.5 104.5,166.5C 104.5,168.5 104.5,170.5 104.5,172.5C 108.5,172.5 112.5,172.5 116.5,172.5C 116.5,174.167 116.5,175.833 116.5,177.5C 112.629,177.185 108.962,177.518 105.5,178.5C 104.521,181.625 104.187,184.958 104.5,188.5C 102.833,188.5 101.167,188.5 99.5,188.5C 99.5,179.5 99.5,170.5 99.5,161.5C 105.833,161.5 112.167,161.5 118.5,161.5 Z"/></g>
<g><path style="opacity:1" fill="#f3f8f3" d="M 142.5,166.5 C 137.833,166.5 133.167,166.5 128.5,166.5C 128.5,168.5 128.5,170.5 128.5,172.5C 132.5,172.5 136.5,172.5 140.5,172.5C 140.5,174.167 140.5,175.833 140.5,177.5C 136.5,177.5 132.5,177.5 128.5,177.5C 128.205,179.735 128.539,181.735 129.5,183.5C 133.833,183.5 138.167,183.5 142.5,183.5C 142.5,185.5 142.5,187.5 142.5,189.5C 135.833,189.5 129.167,189.5 122.5,189.5C 122.5,179.833 122.5,170.167 122.5,160.5C 129.167,160.5 135.833,160.5 142.5,160.5C 142.5,162.5 142.5,164.5 142.5,166.5 Z"/></g>
<g><path style="opacity:1" fill="#5ea062" d="M 159.5,161.5 C 155.167,161.5 150.833,161.5 146.5,161.5C 146.5,170.833 146.5,180.167 146.5,189.5C 145.506,180.014 145.173,170.348 145.5,160.5C 150.363,160.181 155.03,160.514 159.5,161.5 Z"/></g>
<g><path style="opacity:1" fill="#f8fbf8" d="M 159.5,161.5 C 163.562,161.724 166.395,163.724 168,167.5C 171.514,185.154 164.347,192.487 146.5,189.5C 146.5,180.167 146.5,170.833 146.5,161.5C 150.833,161.5 155.167,161.5 159.5,161.5 Z"/></g>
<g><path style="opacity:1" fill="#a9ceac" d="M 81.5,183.5 C 86.1667,183.5 90.8333,183.5 95.5,183.5C 95.5,185.5 95.5,187.5 95.5,189.5C 88.5,189.5 81.5,189.5 74.5,189.5C 74.5,179.833 74.5,170.167 74.5,160.5C 76.8333,160.5 79.1667,160.5 81.5,160.5C 81.5,168.167 81.5,175.833 81.5,183.5 Z"/></g>
<g><path style="opacity:1" fill="#fefefe" d="M 81.5,183.5 C 85.6344,184.485 89.9677,184.818 94.5,184.5C 94.5,185.833 94.5,187.167 94.5,188.5C 88.1667,188.5 81.8333,188.5 75.5,188.5C 75.5,179.5 75.5,170.5 75.5,161.5C 77.1667,161.5 78.8333,161.5 80.5,161.5C 80.175,169.019 80.5084,176.352 81.5,183.5 Z"/></g>
<g><path style="opacity:1" fill="#aed1b1" d="M 118.5,161.5 C 112.167,161.5 105.833,161.5 99.5,161.5C 99.5,170.5 99.5,179.5 99.5,188.5C 101.167,188.5 102.833,188.5 104.5,188.5C 104.187,184.958 104.521,181.625 105.5,178.5C 105.5,182.167 105.5,185.833 105.5,189.5C 103.167,189.5 100.833,189.5 98.5,189.5C 98.5,179.833 98.5,170.167 98.5,160.5C 105.354,160.176 112.021,160.509 118.5,161.5 Z"/></g>
<g><path style="opacity:1" fill="#328439" d="M 152.5,166.5 C 159.416,165.255 162.749,168.088 162.5,175C 163.061,182.236 159.728,185.069 152.5,183.5C 152.5,177.833 152.5,172.167 152.5,166.5 Z"/></g>
<g><path style="opacity:1" fill="#519856" d="M 142.5,166.5 C 138.366,167.485 134.032,167.818 129.5,167.5C 129.5,168.833 129.5,170.167 129.5,171.5C 133.371,171.185 137.038,171.518 140.5,172.5C 136.5,172.5 132.5,172.5 128.5,172.5C 128.5,170.5 128.5,168.5 128.5,166.5C 133.167,166.5 137.833,166.5 142.5,166.5 Z"/></g>
<g><path style="opacity:1" fill="#3e8a42" d="M 33.5,169.5 C 35.2525,172.146 36.2525,175.146 36.5,178.5C 34.8333,178.5 33.1667,178.5 31.5,178.5C 32.01,175.461 32.6766,172.461 33.5,169.5 Z"/></g>
<g><path style="opacity:1" fill="#60a265" d="M 140.5,177.5 C 137.038,178.482 133.371,178.815 129.5,178.5C 129.5,180.167 129.5,181.833 129.5,183.5C 128.539,181.735 128.205,179.735 128.5,177.5C 132.5,177.5 136.5,177.5 140.5,177.5 Z"/></g>
<g><path style="opacity:1" fill="#b6d6b8" d="M 21.5,187.5 C 23.2646,188.461 25.2646,188.795 27.5,188.5C 25.3066,189.797 22.9732,189.797 20.5,188.5C 20.6236,187.893 20.9569,187.56 21.5,187.5 Z"/></g>
<g><path style="opacity:1" fill="#c3ddc5" d="M 57.5,183.5 C 62.1667,183.5 66.8333,183.5 71.5,183.5C 71.5,185.5 71.5,187.5 71.5,189.5C 64.6457,189.824 57.979,189.491 51.5,188.5C 57.8333,188.5 64.1667,188.5 70.5,188.5C 70.5,187.167 70.5,185.833 70.5,184.5C 65.9677,184.818 61.6344,184.485 57.5,183.5 Z"/></g>
</svg>
