<?xml version="1.0" encoding="UTF-8"?>
<!DOCTYPE svg PUBLIC "-//W3C//DTD SVG 1.1//EN" "http://www.w3.org/Graphics/SVG/1.1/DTD/svg11.dtd">
<svg xmlns="http://www.w3.org/2000/svg" version="1.1" width="192px" height="279px" style="shape-rendering:geometricPrecision; text-rendering:geometricPrecision; image-rendering:optimizeQuality; fill-rule:evenodd; clip-rule:evenodd" xmlns:xlink="http://www.w3.org/1999/xlink">
<g><path style="opacity:1" fill="#fdfdfd" d="M -0.5,-0.5 C 63.5,-0.5 127.5,-0.5 191.5,-0.5C 191.5,92.5 191.5,185.5 191.5,278.5C 127.5,278.5 63.5,278.5 -0.5,278.5C -0.5,185.5 -0.5,92.5 -0.5,-0.5 Z"/></g>
<g><path style="opacity:1" fill="#8f8f8f" d="M 62.5,41.5 C 62.6653,45.1817 62.4986,48.8484 62,52.5C 61.2828,51.9558 60.7828,51.2891 60.5,50.5C 61.1667,47.5 61.8333,44.5 62.5,41.5 Z"/></g>
<g><path style="opacity:1" fill="#bababa" d="M 53.5,53.5 C 53.5,54.5 53.5,55.5 53.5,56.5C 41.8286,56.3335 30.1619,56.5001 18.5,57C 15.5581,58.4361 13.5581,60.6028 12.5,63.5C 11.0017,57.652 13.0017,53.8187 18.5,52C 30.1314,52.7537 41.7981,53.2537 53.5,53.5 Z"/></g>
<g><path style="opacity:1" fill="#6a6a6a" d="M 74.5,53.5 C 75.0065,54.8589 76.0065,55.8589 77.5,56.5C 76.6602,57.735 75.6602,58.735 74.5,59.5C 72.0029,58.8707 70.6696,57.204 70.5,54.5C 71.9587,54.5674 73.2921,54.2341 74.5,53.5 Z"/></g>
<g><path style="opacity:1" fill="#909194" d="M 56.5,44.5 C 54.5698,48.3727 53.9031,52.706 54.5,57.5C 54.7135,59.1439 54.3802,60.6439 53.5,62C 48.4508,63.8502 44.1174,66.6836 40.5,70.5C 38.4862,70.3915 36.8195,71.0582 35.5,72.5C 28.0004,72.1302 20.6671,70.4636 13.5,67.5C 12.5713,66.3112 12.238,64.9778 12.5,63.5C 13.5581,60.6028 15.5581,58.4361 18.5,57C 30.1619,56.5001 41.8286,56.3335 53.5,56.5C 53.5,55.5 53.5,54.5 53.5,53.5C 53.5,50.1667 53.5,46.8333 53.5,43.5C 54.791,43.2627 55.791,43.596 56.5,44.5 Z"/></g>
<g><path style="opacity:1" fill="#1c1a1b" d="M 74.5,53.5 C 80.1529,52.6734 85.1529,54.0067 89.5,57.5C 89.248,60.3699 90.248,62.7033 92.5,64.5C 94.7466,63.6258 97.0799,63.2924 99.5,63.5C 100.5,63.8333 101.167,64.5 101.5,65.5C 101.672,66.4916 101.338,67.1583 100.5,67.5C 98.8716,66.1472 97.5383,66.4805 96.5,68.5C 95.7777,69.5511 94.7777,70.2178 93.5,70.5C 92.8501,70.1961 92.1835,69.8627 91.5,69.5C 89.9294,71.9707 88.9294,74.6374 88.5,77.5C 87.5,77.5 86.5,77.5 85.5,77.5C 85.313,75.4357 84.813,73.4357 84,71.5C 82.9887,70.6634 81.8221,70.33 80.5,70.5C 80.5,72.5 80.5,74.5 80.5,76.5C 78.8212,76.7148 77.8212,76.0481 77.5,74.5C 78.6816,72.9969 79.1816,71.3302 79,69.5C 77.382,69.4022 75.882,69.4022 74.5,69.5C 74.4431,68.391 74.1098,67.391 73.5,66.5C 73.6168,64.5165 72.9501,62.8498 71.5,61.5C 72.6016,60.8243 73.6016,60.1577 74.5,59.5C 75.6602,58.735 76.6602,57.735 77.5,56.5C 76.0065,55.8589 75.0065,54.8589 74.5,53.5 Z"/></g>
<g><path style="opacity:1" fill="#6f6f73" d="M 54.5,57.5 C 55.4767,60.2869 55.81,63.2869 55.5,66.5C 50.5856,68.122 45.5856,69.4553 40.5,70.5C 44.1174,66.6836 48.4508,63.8502 53.5,62C 54.3802,60.6439 54.7135,59.1439 54.5,57.5 Z"/></g>
<g><path style="opacity:1" fill="#ebedef" d="M 117.5,86.5 C 111.654,84.845 105.654,84.1783 99.5,84.5C 98.8024,78.4426 99.8024,72.7759 102.5,67.5C 102.457,66.5836 102.124,65.9169 101.5,65.5C 101.167,64.5 100.5,63.8333 99.5,63.5C 97.9581,62.8365 96.2914,62.1698 94.5,61.5C 95.7467,58.6714 97.2467,56.0048 99,53.5C 102.923,61.0142 106.59,68.6809 110,76.5C 112.717,79.7104 115.217,83.0437 117.5,86.5 Z"/></g>
<g><path style="opacity:1" fill="#323131" d="M 129.5,91.5 C 127.589,90.925 125.922,89.925 124.5,88.5C 118.279,81.7332 112.779,74.3998 108,66.5C 108.374,69.275 109.374,71.9417 111,74.5C 114.029,79.23 117.529,83.5634 121.5,87.5C 120.167,87.1667 118.833,86.8333 117.5,86.5C 115.217,83.0437 112.717,79.7104 110,76.5C 106.59,68.6809 102.923,61.0142 99,53.5C 97.2467,56.0048 95.7467,58.6714 94.5,61.5C 96.2914,62.1698 97.9581,62.8365 99.5,63.5C 97.0799,63.2924 94.7466,63.6258 92.5,64.5C 90.248,62.7033 89.248,60.3699 89.5,57.5C 90.7124,58.2299 91.7124,59.2299 92.5,60.5C 93.9956,57.5089 95.4956,54.5089 97,51.5C 98.1827,50.269 99.3493,50.269 100.5,51.5C 109.197,65.5706 118.864,78.9039 129.5,91.5 Z"/></g>
<g><path style="opacity:1" fill="#9e9d9f" d="M 73.5,66.5 C 74.1098,67.391 74.4431,68.391 74.5,69.5C 73.0779,69.2504 72.0779,68.417 71.5,67C 72.0944,66.5357 72.7611,66.369 73.5,66.5 Z"/></g>
<g><path style="opacity:1" fill="#f4f4f6" d="M 77.5,74.5 C 77.8212,76.0481 78.8212,76.7148 80.5,76.5C 80.5,74.5 80.5,72.5 80.5,70.5C 81.8221,70.33 82.9887,70.6634 84,71.5C 84.813,73.4357 85.313,75.4357 85.5,77.5C 86.5,77.5 87.5,77.5 88.5,77.5C 88.9294,74.6374 89.9294,71.9707 91.5,69.5C 92.1835,69.8627 92.8501,70.1961 93.5,70.5C 96.1639,74.2735 97.1639,78.6068 96.5,83.5C 78.6677,83.9185 63.6677,90.5852 51.5,103.5C 54.3828,95.5182 57.0495,87.5182 59.5,79.5C 60.4231,77.233 61.2564,74.8997 62,72.5C 64.0859,70.7505 66.4192,69.4172 69,68.5C 71.2787,71.2793 74.1121,73.2793 77.5,74.5 Z"/></g>
<g><path style="opacity:1" fill="#e0d6d3" d="M 100.5,67.5 C 100.833,70.5 99.5,71.8333 96.5,71.5C 96.5,70.5 96.5,69.5 96.5,68.5C 97.5383,66.4805 98.8716,66.1472 100.5,67.5 Z"/></g>
<g><path style="opacity:1" fill="#201f22" d="M 62.5,41.5 C 63.4959,41.4142 64.3292,41.7476 65,42.5C 66.5737,46.6456 68.407,50.6456 70.5,54.5C 70.6696,57.204 72.0029,58.8707 74.5,59.5C 73.6016,60.1577 72.6016,60.8243 71.5,61.5C 72.9501,62.8498 73.6168,64.5165 73.5,66.5C 72.7611,66.369 72.0944,66.5357 71.5,67C 72.0779,68.417 73.0779,69.2504 74.5,69.5C 75.882,69.4022 77.382,69.4022 79,69.5C 79.1816,71.3302 78.6816,72.9969 77.5,74.5C 74.1121,73.2793 71.2787,71.2793 69,68.5C 66.4192,69.4172 64.0859,70.7505 62,72.5C 61.2564,74.8997 60.4231,77.233 59.5,79.5C 59.0945,77.5952 58.7611,75.5952 58.5,73.5C 57.7492,74.376 57.2492,75.376 57,76.5C 55.7083,75.2089 54.5417,75.2089 53.5,76.5C 46.1823,79.8856 38.5157,81.7189 30.5,82C 29.4829,80.9505 29.3162,79.7839 30,78.5C 32.0396,76.6298 33.8729,74.6298 35.5,72.5C 36.8195,71.0582 38.4862,70.3915 40.5,70.5C 45.5856,69.4553 50.5856,68.122 55.5,66.5C 55.81,63.2869 55.4767,60.2869 54.5,57.5C 53.9031,52.706 54.5698,48.3727 56.5,44.5C 57.8333,46.5 59.1667,48.5 60.5,50.5C 60.7828,51.2891 61.2828,51.9558 62,52.5C 62.4986,48.8484 62.6653,45.1817 62.5,41.5 Z"/></g>
<g><path style="opacity:1" fill="#6a6a6b" d="M 60.5,54.5 C 61.6378,57.3035 61.8045,60.3035 61,63.5C 60.2904,64.9733 59.1238,65.6399 57.5,65.5C 57.5,63.5 57.5,61.5 57.5,59.5C 58.5,59.5 59.5,59.5 60.5,59.5C 60.5,57.8333 60.5,56.1667 60.5,54.5 Z"/></g>
<g><path style="opacity:1" fill="#717171" d="M 67.5,54.5 C 69.2727,56.6002 69.606,58.9335 68.5,61.5C 66.6631,59.8236 65.3298,57.8236 64.5,55.5C 65.791,55.7373 66.791,55.404 67.5,54.5 Z"/></g>
<g><path style="opacity:1" fill="#a8a8a8" d="M 60.5,54.5 C 60.5,56.1667 60.5,57.8333 60.5,59.5C 59.5,59.5 58.5,59.5 57.5,59.5C 56.7791,56.1825 56.6124,52.8492 57,49.5C 58.1764,51.1957 59.343,52.8624 60.5,54.5 Z"/></g>
<g><path style="opacity:1" fill="#d2d2d2" d="M 67.5,54.5 C 66.791,55.404 65.791,55.7373 64.5,55.5C 64.0871,46.8034 65.0871,46.4701 67.5,54.5 Z"/></g>
<g><path style="opacity:1" fill="#9b4654" d="M 101.5,65.5 C 102.124,65.9169 102.457,66.5836 102.5,67.5C 99.8024,72.7759 98.8024,78.4426 99.5,84.5C 99.5,87.5 99.5,90.5 99.5,93.5C 98.8333,93.5 98.1667,93.5 97.5,93.5C 97.8128,89.9581 97.4794,86.6248 96.5,83.5C 97.1639,78.6068 96.1639,74.2735 93.5,70.5C 94.7777,70.2178 95.7777,69.5511 96.5,68.5C 96.5,69.5 96.5,70.5 96.5,71.5C 99.5,71.8333 100.833,70.5 100.5,67.5C 101.338,67.1583 101.672,66.4916 101.5,65.5 Z"/></g>
<g><path style="opacity:1" fill="#bdbdbe" d="M 124.5,88.5 C 123.391,88.4431 122.391,88.1098 121.5,87.5C 117.529,83.5634 114.029,79.23 111,74.5C 109.374,71.9417 108.374,69.275 108,66.5C 112.779,74.3998 118.279,81.7332 124.5,88.5 Z"/></g>
<g><path style="opacity:1" fill="#2e2e30" d="M 59.5,79.5 C 57.0495,87.5182 54.3828,95.5182 51.5,103.5C 50.5714,104.936 49.4048,106.269 48,107.5C 47.6012,107.272 47.4346,106.938 47.5,106.5C 50.6759,97.4733 53.3425,88.3067 55.5,79C 55.3158,77.6244 54.6491,76.7911 53.5,76.5C 54.5417,75.2089 55.7083,75.2089 57,76.5C 57.2492,75.376 57.7492,74.376 58.5,73.5C 58.7611,75.5952 59.0945,77.5952 59.5,79.5 Z"/></g>
<g><path style="opacity:1" fill="#e7f5f9" d="M 97.5,93.5 C 98.1667,93.5 98.8333,93.5 99.5,93.5C 120.66,95.228 136.326,105.228 146.5,123.5C 145.637,122.537 144.97,122.537 144.5,123.5C 146.725,127.423 147.392,131.423 146.5,135.5C 145.951,132.75 144.285,131.083 141.5,130.5C 140.494,129.604 140.494,128.938 141.5,128.5C 142.376,128.631 143.043,128.298 143.5,127.5C 141.405,120.564 137.071,115.897 130.5,113.5C 130.265,112.903 129.765,112.57 129,112.5C 127.989,113.056 127.156,113.722 126.5,114.5C 124.629,111.859 121.962,110.526 118.5,110.5C 119.718,109.839 121.051,109.172 122.5,108.5C 122.376,107.893 122.043,107.56 121.5,107.5C 117.596,103.396 112.929,100.896 107.5,100C 109.16,101.488 110.16,103.321 110.5,105.5C 106.972,107.675 103.305,108.008 99.5,106.5C 98.5166,102.702 98.1832,98.7016 98.5,94.5C 97.1667,94.5 95.8333,94.5 94.5,94.5C 94.5,95.5 94.5,96.5 94.5,97.5C 93.8333,97.5 93.5,97.8333 93.5,98.5C 91.1097,99.8908 89.4431,101.891 88.5,104.5C 87.596,105.209 87.2627,106.209 87.5,107.5C 86.8333,106.833 86.1667,106.167 85.5,105.5C 86.2423,103.574 87.2423,101.741 88.5,100C 83.148,100.475 78.8147,102.975 75.5,107.5C 76.325,108.386 77.325,108.719 78.5,108.5C 80.0419,109.163 81.7086,109.83 83.5,110.5C 83.3764,111.107 83.0431,111.44 82.5,111.5C 78.9465,110.348 75.2798,110.515 71.5,112C 68.5529,115.727 66.5529,119.894 65.5,124.5C 68.4261,123.539 71.4261,122.873 74.5,122.5C 74.0825,123.222 73.4158,123.722 72.5,124C 73.0944,124.464 73.7611,124.631 74.5,124.5C 71.0566,125.335 67.5566,126.335 64,127.5C 62.2079,132 61.3746,136.667 61.5,141.5C 60.8333,140.833 60.1667,140.167 59.5,139.5C 59.3067,135.993 59.9733,132.66 61.5,129.5C 60.8333,129.167 60.1667,128.833 59.5,128.5C 57.149,129.173 54.8157,129.84 52.5,130.5C 52.2322,128.901 52.5655,127.568 53.5,126.5C 56.1281,127.534 58.7948,127.201 61.5,125.5C 63.2418,121.682 65.2418,118.016 67.5,114.5C 65.1631,113.488 62.8297,113.655 60.5,115C 58.636,117.688 56.636,120.188 54.5,122.5C 54.0113,121.005 53.3446,119.671 52.5,118.5C 62.962,102.1 77.962,93.7669 97.5,93.5 Z"/></g>
<g><path style="opacity:1" fill="#2083c3" d="M 99.5,84.5 C 105.654,84.1783 111.654,84.845 117.5,86.5C 118.833,86.8333 120.167,87.1667 121.5,87.5C 122.391,88.1098 123.391,88.4431 124.5,88.5C 125.922,89.925 127.589,90.925 129.5,91.5C 147.373,102.241 158.039,117.908 161.5,138.5C 162.08,142.649 161.414,146.316 159.5,149.5C 157.072,148.788 154.739,147.788 152.5,146.5C 151.749,138.376 149.749,130.71 146.5,123.5C 136.326,105.228 120.66,95.228 99.5,93.5C 99.5,90.5 99.5,87.5 99.5,84.5 Z"/></g>
<g><path style="opacity:1" fill="#1c82c1" d="M 99.5,106.5 C 99.5,103.833 99.5,101.167 99.5,98.5C 103.896,98.882 106.896,101.215 108.5,105.5C 105.572,106.484 102.572,106.817 99.5,106.5 Z"/></g>
<g><path style="opacity:1" fill="#197fc2" d="M 93.5,98.5 C 94.5,98.5 95.5,98.5 96.5,98.5C 96.5,101.167 96.5,103.833 96.5,106.5C 93.3019,107.036 90.6353,106.369 88.5,104.5C 89.4431,101.891 91.1097,99.8908 93.5,98.5 Z"/></g>
<g><path style="opacity:1" fill="#2888c6" d="M 85.5,105.5 C 83.4613,107.05 81.128,108.05 78.5,108.5C 77.325,108.719 76.325,108.386 75.5,107.5C 78.8147,102.975 83.148,100.475 88.5,100C 87.2423,101.741 86.2423,103.574 85.5,105.5 Z"/></g>
<g><path style="opacity:1" fill="#2788c6" d="M 121.5,107.5 C 118.332,108.444 114.999,108.444 111.5,107.5C 111.672,106.508 111.338,105.842 110.5,105.5C 110.16,103.321 109.16,101.488 107.5,100C 112.929,100.896 117.596,103.396 121.5,107.5 Z"/></g>
<g><path style="opacity:1" fill="#1d81c1" d="M 96.5,83.5 C 97.4794,86.6248 97.8128,89.9581 97.5,93.5C 77.962,93.7669 62.962,102.1 52.5,118.5C 47.2098,126.972 44.3764,136.305 44,146.5C 41.0027,147.866 37.836,148.533 34.5,148.5C 34.2135,132.956 38.5468,118.956 47.5,106.5C 47.4346,106.938 47.6012,107.272 48,107.5C 49.4048,106.269 50.5714,104.936 51.5,103.5C 63.6677,90.5852 78.6677,83.9185 96.5,83.5 Z"/></g>
<g><path style="opacity:1" fill="#9dd4ee" d="M 93.5,98.5 C 93.5,97.8333 93.8333,97.5 94.5,97.5C 95.5,97.5 96.5,97.5 97.5,97.5C 97.5,100.833 97.5,104.167 97.5,107.5C 94.1667,107.5 90.8333,107.5 87.5,107.5C 87.2627,106.209 87.596,105.209 88.5,104.5C 90.6353,106.369 93.3019,107.036 96.5,106.5C 96.5,103.833 96.5,101.167 96.5,98.5C 95.5,98.5 94.5,98.5 93.5,98.5 Z"/></g>
<g><path style="opacity:1" fill="#4295cf" d="M 72.5,104.5 C 73.2389,104.369 73.9056,104.536 74.5,105C 72.7866,106.378 71.4533,108.045 70.5,110C 68.5527,110.991 66.5527,111.325 64.5,111C 67.3553,108.969 70.022,106.803 72.5,104.5 Z"/></g>
<g><path style="opacity:1" fill="#4699ce" d="M 120.5,103.5 C 124.542,105.362 128.208,107.862 131.5,111C 129.765,111.651 128.098,111.485 126.5,110.5C 124.425,108.103 122.425,105.769 120.5,103.5 Z"/></g>
<g><path style="opacity:1" fill="#137fc2" d="M 86.5,109.5 C 89.8333,109.5 93.1667,109.5 96.5,109.5C 96.5,113.167 96.5,116.833 96.5,120.5C 91.706,121.097 87.3727,120.43 83.5,118.5C 83.5,117.5 83.5,116.5 83.5,115.5C 83.9925,113.181 84.9925,111.181 86.5,109.5 Z"/></g>
<g><path style="opacity:1" fill="#2083c4" d="M 109.5,121.5 C 105.958,121.813 102.625,121.479 99.5,120.5C 99.5,116.833 99.5,113.167 99.5,109.5C 103.182,109.335 106.848,109.501 110.5,110C 112.417,113.587 113.417,117.42 113.5,121.5C 112.167,121.5 110.833,121.5 109.5,121.5 Z"/></g>
<g><path style="opacity:1" fill="#2385c5" d="M 118.5,110.5 C 121.962,110.526 124.629,111.859 126.5,114.5C 128.391,117.614 129.724,120.948 130.5,124.5C 125.868,123.617 121.202,122.95 116.5,122.5C 115.998,118.307 114.998,114.307 113.5,110.5C 115.167,110.5 116.833,110.5 118.5,110.5 Z"/></g>
<g><path style="opacity:1" fill="#1e83c4" d="M 82.5,111.5 C 82.5,111.833 82.5,112.167 82.5,112.5C 80.7234,115.505 79.7234,118.838 79.5,122.5C 77.8333,122.5 76.1667,122.5 74.5,122.5C 71.4261,122.873 68.4261,123.539 65.5,124.5C 66.5529,119.894 68.5529,115.727 71.5,112C 75.2798,110.515 78.9465,110.348 82.5,111.5 Z"/></g>
<g><path style="opacity:1" fill="#2687c6" d="M 53.5,126.5 C 53.8333,125.167 54.1667,123.833 54.5,122.5C 56.636,120.188 58.636,117.688 60.5,115C 62.8297,113.655 65.1631,113.488 67.5,114.5C 65.2418,118.016 63.2418,121.682 61.5,125.5C 58.7948,127.201 56.1281,127.534 53.5,126.5 Z"/></g>
<g><path style="opacity:1" fill="#2887c6" d="M 130.5,113.5 C 137.071,115.897 141.405,120.564 143.5,127.5C 143.043,128.298 142.376,128.631 141.5,128.5C 139.067,127.587 136.567,126.587 134,125.5C 132.689,121.546 130.856,117.879 128.5,114.5C 128.957,113.702 129.624,113.369 130.5,113.5 Z"/></g>
<g><path style="opacity:1" fill="#88c4e0" d="M 86.5,109.5 C 89.9619,108.518 93.6286,108.185 97.5,108.5C 97.5,112.833 97.5,117.167 97.5,121.5C 93.5,121.5 89.5,121.5 85.5,121.5C 84.5,121.5 83.5,121.5 82.5,121.5C 82.2627,120.209 82.596,119.209 83.5,118.5C 87.3727,120.43 91.706,121.097 96.5,120.5C 96.5,116.833 96.5,113.167 96.5,109.5C 93.1667,109.5 89.8333,109.5 86.5,109.5 Z"/></g>
<g><path style="opacity:1" fill="#c4e3f1" d="M 82.5,112.5 C 82.2627,113.791 82.596,114.791 83.5,115.5C 83.5,116.5 83.5,117.5 83.5,118.5C 82.596,119.209 82.2627,120.209 82.5,121.5C 83.5,121.5 84.5,121.5 85.5,121.5C 89.2984,122.483 93.2984,122.817 97.5,122.5C 97.8182,127.032 97.4849,131.366 96.5,135.5C 96.5,131.5 96.5,127.5 96.5,123.5C 91.5,123.5 86.5,123.5 81.5,123.5C 80.7051,127.785 80.3718,132.119 80.5,136.5C 84.8333,136.5 89.1667,136.5 93.5,136.5C 89.03,137.486 84.3633,137.819 79.5,137.5C 79.6633,135.143 79.4966,132.81 79,130.5C 78.8138,133.036 78.3138,135.369 77.5,137.5C 77.5865,133.143 77.9198,128.81 78.5,124.5C 77.1667,124.5 75.8333,124.5 74.5,124.5C 73.7611,124.631 73.0944,124.464 72.5,124C 73.4158,123.722 74.0825,123.222 74.5,122.5C 76.1667,122.5 77.8333,122.5 79.5,122.5C 79.7234,118.838 80.7234,115.505 82.5,112.5 Z"/></g>
<g><path style="opacity:1" fill="#1d81c4" d="M 96.5,135.5 C 95.791,136.404 94.791,136.737 93.5,136.5C 89.1667,136.5 84.8333,136.5 80.5,136.5C 80.3718,132.119 80.7051,127.785 81.5,123.5C 86.5,123.5 91.5,123.5 96.5,123.5C 96.5,127.5 96.5,131.5 96.5,135.5 Z"/></g>
<g><path style="opacity:1" fill="#1f83c4" d="M 131.5,139.5 C 127.21,138.575 122.876,137.909 118.5,137.5C 118.064,133.089 118.064,128.756 118.5,124.5C 123.295,125.457 127.962,126.791 132.5,128.5C 133.681,132.072 134.348,135.738 134.5,139.5C 133.5,139.5 132.5,139.5 131.5,139.5 Z"/></g>
<g><path style="opacity:1" fill="#d0ebf4" d="M 111.5,107.5 C 114.999,108.444 118.332,108.444 121.5,107.5C 122.043,107.56 122.376,107.893 122.5,108.5C 121.051,109.172 119.718,109.839 118.5,110.5C 116.833,110.5 115.167,110.5 113.5,110.5C 114.998,114.307 115.998,118.307 116.5,122.5C 121.202,122.95 125.868,123.617 130.5,124.5C 129.724,120.948 128.391,117.614 126.5,114.5C 127.156,113.722 127.989,113.056 129,112.5C 129.765,112.57 130.265,112.903 130.5,113.5C 129.624,113.369 128.957,113.702 128.5,114.5C 130.856,117.879 132.689,121.546 134,125.5C 136.567,126.587 139.067,127.587 141.5,128.5C 140.494,128.938 140.494,129.604 141.5,130.5C 139.559,130.131 137.725,129.464 136,128.5C 136.238,132.109 136.405,135.775 136.5,139.5C 134.716,140.72 133.05,140.72 131.5,139.5C 132.5,139.5 133.5,139.5 134.5,139.5C 134.348,135.738 133.681,132.072 132.5,128.5C 127.962,126.791 123.295,125.457 118.5,124.5C 118.064,128.756 118.064,133.089 118.5,137.5C 116.265,137.795 114.265,137.461 112.5,136.5C 113.833,136.5 115.167,136.5 116.5,136.5C 116.795,134.265 116.461,132.265 115.5,130.5C 115.756,128.208 115.423,126.041 114.5,124C 109.511,123.501 104.511,123.334 99.5,123.5C 99.5,127.5 99.5,131.5 99.5,135.5C 98.5151,131.366 98.1818,127.032 98.5,122.5C 102.371,122.815 106.038,122.482 109.5,121.5C 110.833,121.5 112.167,121.5 113.5,121.5C 113.417,117.42 112.417,113.587 110.5,110C 106.848,109.501 103.182,109.335 99.5,109.5C 99.5,113.167 99.5,116.833 99.5,120.5C 98.5166,116.702 98.1832,112.702 98.5,108.5C 103.032,108.818 107.366,108.485 111.5,107.5 Z"/></g>
<g><path style="opacity:1" fill="#1881c3" d="M 115.5,130.5 C 115.5,132.167 115.5,133.833 115.5,135.5C 110.167,135.5 104.833,135.5 99.5,135.5C 99.5,131.5 99.5,127.5 99.5,123.5C 104.511,123.334 109.511,123.501 114.5,124C 115.423,126.041 115.756,128.208 115.5,130.5 Z"/></g>
<g><path style="opacity:1" fill="#2084c4" d="M 74.5,124.5 C 75.8333,124.5 77.1667,124.5 78.5,124.5C 77.9198,128.81 77.5865,133.143 77.5,137.5C 72.2771,138.806 66.9438,140.139 61.5,141.5C 61.3746,136.667 62.2079,132 64,127.5C 67.5566,126.335 71.0566,125.335 74.5,124.5 Z"/></g>
<g><path style="opacity:1" fill="#2585c7" d="M 141.5,130.5 C 144.285,131.083 145.951,132.75 146.5,135.5C 147.321,138.554 147.321,141.554 146.5,144.5C 142.663,143.62 139.33,141.954 136.5,139.5C 136.405,135.775 136.238,132.109 136,128.5C 137.725,129.464 139.559,130.131 141.5,130.5 Z"/></g>
<g><path style="opacity:1" fill="#75bcdf" d="M 115.5,130.5 C 116.461,132.265 116.795,134.265 116.5,136.5C 115.167,136.5 113.833,136.5 112.5,136.5C 107.968,136.818 103.634,136.485 99.5,135.5C 104.833,135.5 110.167,135.5 115.5,135.5C 115.5,133.833 115.5,132.167 115.5,130.5 Z"/></g>
<g><path style="opacity:1" fill="#2886c5" d="M 59.5,139.5 C 59.719,140.675 59.3857,141.675 58.5,142.5C 55.4518,143.346 52.4518,144.346 49.5,145.5C 48.6716,140.77 49.1716,136.104 51,131.5C 51.3826,130.944 51.8826,130.611 52.5,130.5C 54.8157,129.84 57.149,129.173 59.5,128.5C 60.1667,128.833 60.8333,129.167 61.5,129.5C 59.9733,132.66 59.3067,135.993 59.5,139.5 Z"/></g>
<g><path style="opacity:1" fill="#88cbe8" d="M 161.5,138.5 C 162.483,142.298 162.817,146.298 162.5,150.5C 161.209,150.737 160.209,150.404 159.5,149.5C 161.414,146.316 162.08,142.649 161.5,138.5 Z"/></g>
<g><path style="opacity:1" fill="#cd4b5e" d="M 162.5,157.5 C 157.125,157.172 151.792,157.505 146.5,158.5C 148.291,159.17 149.958,159.837 151.5,160.5C 149.5,160.5 147.5,160.5 145.5,160.5C 145.5,159.167 145.5,157.833 145.5,156.5C 151.358,156.178 157.025,156.511 162.5,157.5 Z"/></g>
<g><path style="opacity:1" fill="#bc2332" d="M 84.5,156.5 C 85.8221,156.33 86.9887,156.663 88,157.5C 90.8052,164.086 93.3052,170.753 95.5,177.5C 91.926,178.092 89.926,176.592 89.5,173C 85.2711,171.502 82.2711,172.669 80.5,176.5C 79.3112,177.429 77.9778,177.762 76.5,177.5C 78.32,170.191 80.9867,163.191 84.5,156.5 Z"/></g>
<g><path style="opacity:1" fill="#b6142a" d="M 98.5,156.5 C 99.8333,156.5 101.167,156.5 102.5,156.5C 102.5,163.5 102.5,170.5 102.5,177.5C 101.167,177.5 99.8333,177.5 98.5,177.5C 98.5,170.5 98.5,163.5 98.5,156.5 Z"/></g>
<g><path style="opacity:1" fill="#b30422" d="M 162.5,157.5 C 162.586,158.496 162.252,159.329 161.5,160C 159.866,160.494 158.199,160.66 156.5,160.5C 155.511,165.975 155.178,171.642 155.5,177.5C 154.5,177.5 153.5,177.5 152.5,177.5C 152.822,171.642 152.489,165.975 151.5,160.5C 149.958,159.837 148.291,159.17 146.5,158.5C 151.792,157.505 157.125,157.172 162.5,157.5 Z"/></g>
<g><path style="opacity:1" fill="#d56273" d="M 125.5,177.5 C 125.5,170.833 125.5,164.167 125.5,157.5C 124.5,157.5 123.5,157.5 122.5,157.5C 122.826,161.884 122.492,166.217 121.5,170.5C 120.893,170.376 120.56,170.043 120.5,169.5C 121.485,165.366 121.818,161.032 121.5,156.5C 123.167,156.5 124.833,156.5 126.5,156.5C 126.825,163.687 126.491,170.687 125.5,177.5 Z"/></g>
<g><path style="opacity:1" fill="#b8162a" d="M 120.5,169.5 C 120.56,170.043 120.893,170.376 121.5,170.5C 122.492,166.217 122.826,161.884 122.5,157.5C 123.5,157.5 124.5,157.5 125.5,157.5C 125.5,164.167 125.5,170.833 125.5,177.5C 124.127,177.657 122.793,177.49 121.5,177C 118.371,173.227 115.371,169.394 112.5,165.5C 112.44,164.957 112.107,164.624 111.5,164.5C 110.508,168.783 110.174,173.116 110.5,177.5C 109.167,177.5 107.833,177.5 106.5,177.5C 106.5,170.5 106.5,163.5 106.5,156.5C 108.288,156.215 109.955,156.548 111.5,157.5C 114.524,161.518 117.524,165.518 120.5,169.5 Z"/></g>
<g><path style="opacity:1" fill="#db7080" d="M 151.5,160.5 C 152.489,165.975 152.822,171.642 152.5,177.5C 153.5,177.5 154.5,177.5 155.5,177.5C 155.178,171.642 155.511,165.975 156.5,160.5C 156.5,166.5 156.5,172.5 156.5,178.5C 154.833,178.5 153.167,178.5 151.5,178.5C 151.5,172.5 151.5,166.5 151.5,160.5 Z"/></g>
<g><path style="opacity:1" fill="#bc2232" d="M 42.5,156.5 C 43.9778,156.238 45.3112,156.571 46.5,157.5C 49.1667,163.833 51.8333,170.167 54.5,176.5C 52.9547,177.452 51.288,177.785 49.5,177.5C 49.8435,173.866 48.1768,172.199 44.5,172.5C 40.8232,172.199 39.1565,173.866 39.5,177.5C 37.712,177.785 36.0453,177.452 34.5,176.5C 37.3688,169.889 40.0355,163.222 42.5,156.5 Z"/></g>
<g><path style="opacity:1" fill="#bb1f30" d="M 61.5,156.5 C 65.5483,156.395 69.5483,156.728 73.5,157.5C 73.5,158.833 73.5,160.167 73.5,161.5C 63.235,157.626 58.735,160.96 60,171.5C 62.5463,174.186 65.713,175.186 69.5,174.5C 69.5,171.833 69.5,169.167 69.5,166.5C 70.8333,166.5 72.1667,166.5 73.5,166.5C 73.7892,170.106 73.4558,173.606 72.5,177C 68.1667,177.667 63.8333,177.667 59.5,177C 52.4309,169.452 53.0976,162.618 61.5,156.5 Z"/></g>
<g><path style="opacity:1" fill="#f1cbd1" d="M 85.5,164.5 C 87.2132,165.635 87.8799,167.302 87.5,169.5C 86.0222,169.762 84.6888,169.429 83.5,168.5C 84.1799,167.14 84.8466,165.807 85.5,164.5 Z"/></g>
<g><path style="opacity:1" fill="#fae8ec" d="M 45.5,166.5 C 44.8333,169.167 44.1667,169.167 43.5,166.5C 44.1667,163.833 44.8333,163.833 45.5,166.5 Z"/></g>
<g><path style="opacity:1" fill="#e29ba9" d="M 43.5,166.5 C 44.1667,169.167 44.8333,169.167 45.5,166.5C 46.404,167.209 46.7373,168.209 46.5,169.5C 45.1667,169.5 43.8333,169.5 42.5,169.5C 42.2627,168.209 42.596,167.209 43.5,166.5 Z"/></g>
<g><path style="opacity:1" fill="#b9192d" d="M 133.5,156.5 C 135.857,156.337 138.19,156.503 140.5,157C 142.497,158.153 142.83,159.653 141.5,161.5C 139.253,160.626 136.92,160.292 134.5,160.5C 134.351,161.552 134.517,162.552 135,163.5C 137.758,164.795 140.258,166.461 142.5,168.5C 145.105,175.235 142.771,178.235 135.5,177.5C 133.833,177.333 132.167,177.167 130.5,177C 129.159,175.174 129.659,174.007 132,173.5C 134.895,175.149 137.395,174.815 139.5,172.5C 136.798,170.058 133.965,167.724 131,165.5C 129.927,161.9 130.76,158.9 133.5,156.5 Z"/></g>
<g><path style="opacity:1" fill="#e8a4b5" d="M 112.5,165.5 C 111.833,169.5 111.167,173.5 110.5,177.5C 110.174,173.116 110.508,168.783 111.5,164.5C 112.107,164.624 112.44,164.957 112.5,165.5 Z"/></g>
<g><path style="opacity:1" fill="#bd2735" d="M 66.5,182.5 C 67.9778,182.238 69.3112,182.571 70.5,183.5C 73.7397,189.973 76.4063,196.64 78.5,203.5C 76.8333,203.5 75.1667,203.5 73.5,203.5C 73.8435,199.866 72.1768,198.199 68.5,198.5C 64.8232,198.199 63.1565,199.866 63.5,203.5C 61.8333,203.5 60.1667,203.5 58.5,203.5C 60.772,196.351 63.4387,189.351 66.5,182.5 Z"/></g>
<g><path style="opacity:1" fill="#ce586c" d="M 85.5,199.5 C 84.5119,194.36 84.1786,189.026 84.5,183.5C 83.5,183.5 82.5,183.5 81.5,183.5C 81.5,189.833 81.5,196.167 81.5,202.5C 85.1667,202.5 88.8333,202.5 92.5,202.5C 92.5,201.5 92.5,200.5 92.5,199.5C 93.4345,200.568 93.7678,201.901 93.5,203.5C 89.1667,203.5 84.8333,203.5 80.5,203.5C 80.5,196.5 80.5,189.5 80.5,182.5C 82.1667,182.5 83.8333,182.5 85.5,182.5C 85.5,188.167 85.5,193.833 85.5,199.5 Z"/></g>
<g><path style="opacity:1" fill="#b40b24" d="M 85.5,199.5 C 87.8333,199.5 90.1667,199.5 92.5,199.5C 92.5,200.5 92.5,201.5 92.5,202.5C 88.8333,202.5 85.1667,202.5 81.5,202.5C 81.5,196.167 81.5,189.833 81.5,183.5C 82.5,183.5 83.5,183.5 84.5,183.5C 84.1786,189.026 84.5119,194.36 85.5,199.5 Z"/></g>
<g><path style="opacity:1" fill="#ba2131" d="M 109.5,199.5 C 108.378,198.844 107.045,198.511 105.5,198.5C 103.667,198.585 102.334,199.252 101.5,200.5C 100.596,201.209 100.263,202.209 100.5,203.5C 98.712,203.785 97.0453,203.452 95.5,202.5C 97.9083,195.212 101.242,188.545 105.5,182.5C 106.442,182.608 107.275,182.941 108,183.5C 110.805,190.086 113.305,196.753 115.5,203.5C 113.833,203.5 112.167,203.5 110.5,203.5C 110.567,202.041 110.234,200.708 109.5,199.5 Z"/></g>
<g><path style="opacity:1" fill="#ba2232" d="M 150.5,182.5 C 151.978,182.238 153.311,182.571 154.5,183.5C 157.372,190.123 160.039,196.789 162.5,203.5C 160.833,203.5 159.167,203.5 157.5,203.5C 157.843,199.866 156.177,198.199 152.5,198.5C 148.823,198.199 147.157,199.866 147.5,203.5C 145.833,203.5 144.167,203.5 142.5,203.5C 144.882,196.4 147.549,189.4 150.5,182.5 Z"/></g>
<g><path style="opacity:1" fill="#b7142c" d="M 136.5,182.5 C 137.833,182.5 139.167,182.5 140.5,182.5C 140.5,189.5 140.5,196.5 140.5,203.5C 139.167,203.5 137.833,203.5 136.5,203.5C 136.5,196.5 136.5,189.5 136.5,182.5 Z"/></g>
<g><path style="opacity:1" fill="#d1848c" d="M 51.5,183.5 C 52.9187,182.549 54.5853,182.216 56.5,182.5C 56.8245,189.687 56.4912,196.687 55.5,203.5C 55.5,196.833 55.5,190.167 55.5,183.5C 54.1667,183.5 52.8333,183.5 51.5,183.5 Z"/></g>
<g><path style="opacity:1" fill="#d16974" d="M 128.5,183.5 C 125.167,183.5 121.833,183.5 118.5,183.5C 118.5,189.833 118.5,196.167 118.5,202.5C 119.5,202.5 120.5,202.5 121.5,202.5C 121.198,199.941 121.532,197.607 122.5,195.5C 122.5,198.167 122.5,200.833 122.5,203.5C 120.833,203.5 119.167,203.5 117.5,203.5C 117.5,196.5 117.5,189.5 117.5,182.5C 121.371,182.185 125.038,182.518 128.5,183.5 Z"/></g>
<g><path style="opacity:1" fill="#b8152a" d="M 128.5,183.5 C 133.504,186.596 133.837,190.263 129.5,194.5C 131.167,197.167 132.833,199.833 134.5,202.5C 130.332,204.486 127.832,203.152 127,198.5C 125.871,196.859 124.371,195.859 122.5,195.5C 121.532,197.607 121.198,199.941 121.5,202.5C 120.5,202.5 119.5,202.5 118.5,202.5C 118.5,196.167 118.5,189.833 118.5,183.5C 121.833,183.5 125.167,183.5 128.5,183.5 Z"/></g>
<g><path style="opacity:1" fill="#f4e6eb" d="M 122.5,186.5 C 127.159,186.015 128.492,187.848 126.5,192C 125.207,192.49 123.873,192.657 122.5,192.5C 122.5,190.5 122.5,188.5 122.5,186.5 Z"/></g>
<g><path style="opacity:1" fill="#b91d30" d="M 51.5,183.5 C 52.8333,183.5 54.1667,183.5 55.5,183.5C 55.5,190.167 55.5,196.833 55.5,203.5C 54.1667,203.5 52.8333,203.5 51.5,203.5C 51.6655,199.486 51.4988,195.486 51,191.5C 49.3023,194.19 47.3023,196.523 45,198.5C 43.257,196.68 41.757,194.68 40.5,192.5C 40.44,191.957 40.1067,191.624 39.5,191.5C 38.5091,195.445 38.1758,199.445 38.5,203.5C 37.1667,203.5 35.8333,203.5 34.5,203.5C 34.5,196.5 34.5,189.5 34.5,182.5C 35.8734,182.343 37.2068,182.51 38.5,183C 41.0373,185.906 43.204,189.073 45,192.5C 47.1761,189.471 49.3427,186.471 51.5,183.5 Z"/></g>
<g><path style="opacity:1" fill="#f3d5dc" d="M 67.5,190.5 C 69.7271,191.401 70.7271,193.067 70.5,195.5C 69.0222,195.762 67.6888,195.429 66.5,194.5C 67.2458,193.264 67.5792,191.93 67.5,190.5 Z"/></g>
<g><path style="opacity:1" fill="#f8f0f3" d="M 106.5,192.5 C 105.833,195.167 105.167,195.167 104.5,192.5C 105.167,189.833 105.833,189.833 106.5,192.5 Z"/></g>
<g><path style="opacity:1" fill="#f8edf0" d="M 153.5,192.5 C 152.833,195.167 152.167,195.167 151.5,192.5C 152.167,189.833 152.833,189.833 153.5,192.5 Z"/></g>
<g><path style="opacity:1" fill="#e69fb2" d="M 104.5,192.5 C 105.167,195.167 105.833,195.167 106.5,192.5C 107.404,193.209 107.737,194.209 107.5,195.5C 106.167,195.5 104.833,195.5 103.5,195.5C 103.263,194.209 103.596,193.209 104.5,192.5 Z"/></g>
<g><path style="opacity:1" fill="#e59baf" d="M 151.5,192.5 C 152.167,195.167 152.833,195.167 153.5,192.5C 154.404,193.209 154.737,194.209 154.5,195.5C 153.167,195.5 151.833,195.5 150.5,195.5C 150.263,194.209 150.596,193.209 151.5,192.5 Z"/></g>
<g><path style="opacity:1" fill="#e9adb1" d="M 40.5,192.5 C 39.8333,196.167 39.1667,199.833 38.5,203.5C 38.1758,199.445 38.5091,195.445 39.5,191.5C 40.1067,191.624 40.44,191.957 40.5,192.5 Z"/></g>
<g><path style="opacity:1" fill="#f2b1bd" d="M 109.5,199.5 C 106.721,199.279 104.054,199.612 101.5,200.5C 102.334,199.252 103.667,198.585 105.5,198.5C 107.045,198.511 108.378,198.844 109.5,199.5 Z"/></g>
<g><path style="opacity:1" fill="#78bbde" d="M 37.5,211.5 C 39.2922,210.691 41.2922,210.191 43.5,210C 40.5184,209.502 37.5184,209.335 34.5,209.5C 34.5,213.833 34.5,218.167 34.5,222.5C 33.5139,218.03 33.1805,213.363 33.5,208.5C 37.1667,208.5 40.8333,208.5 44.5,208.5C 44.5,209.5 44.5,210.5 44.5,211.5C 42.1667,211.5 39.8333,211.5 37.5,211.5 Z"/></g>
<g><path style="opacity:1" fill="#71b8dc" d="M 128.5,209.5 C 124.818,209.335 121.152,209.501 117.5,210C 119.058,210.21 120.391,210.71 121.5,211.5C 119.833,211.5 118.167,211.5 116.5,211.5C 116.5,210.5 116.5,209.5 116.5,208.5C 120.702,208.183 124.702,208.517 128.5,209.5 Z"/></g>
<g><path style="opacity:1" fill="#2986c3" d="M 128.5,209.5 C 127.817,211.176 126.483,211.843 124.5,211.5C 124.5,215.167 124.5,218.833 124.5,222.5C 123.5,222.5 122.5,222.5 121.5,222.5C 121.5,218.833 121.5,215.167 121.5,211.5C 120.391,210.71 119.058,210.21 117.5,210C 121.152,209.501 124.818,209.335 128.5,209.5 Z"/></g>
<g><path style="opacity:1" fill="#137cbf" d="M 130.5,209.5 C 132.43,213.373 133.097,217.706 132.5,222.5C 130.57,218.627 129.903,214.294 130.5,209.5 Z"/></g>
<g><path style="opacity:1" fill="#157fc2" d="M 37.5,211.5 C 35.8084,214.762 35.4751,218.429 36.5,222.5C 35.8333,222.5 35.1667,222.5 34.5,222.5C 34.5,218.167 34.5,213.833 34.5,209.5C 37.5184,209.335 40.5184,209.502 43.5,210C 41.2922,210.191 39.2922,210.691 37.5,211.5 Z"/></g>
<g><path style="opacity:1" fill="#318bc7" d="M 138.5,208.5 C 148.113,208.249 151.113,212.416 147.5,221C 137.947,224.718 134.113,221.551 136,211.5C 137.045,210.627 137.878,209.627 138.5,208.5 Z"/></g>
<g><path style="opacity:1" fill="#76c2e2" d="M 65.5,219.5 C 64.8339,216.311 64.1672,212.977 63.5,209.5C 62.513,212.768 62.1796,216.102 62.5,219.5C 61.5184,216.038 61.185,212.371 61.5,208.5C 62.8333,208.5 64.1667,208.5 65.5,208.5C 65.5,212.167 65.5,215.833 65.5,219.5 Z"/></g>
<g><path style="opacity:1" fill="#5daed5" d="M 99.5,209.5 C 96.8333,209.5 94.1667,209.5 91.5,209.5C 91.5,213.833 91.5,218.167 91.5,222.5C 90.5139,218.03 90.1805,213.363 90.5,208.5C 93.7131,208.19 96.7131,208.523 99.5,209.5 Z"/></g>
<g><path style="opacity:1" fill="#ebf7f9" d="M 139.5,211.5 C 141.467,211.261 143.301,211.594 145,212.5C 145.769,215.099 145.602,217.599 144.5,220C 142.299,220.825 140.466,220.325 139,218.5C 138.297,216.071 138.463,213.738 139.5,211.5 Z"/></g>
<g><path style="opacity:1" fill="#b8e2f7" d="M 79.5,209.5 C 78.5,209.5 77.5,209.5 76.5,209.5C 76.5,213.833 76.5,218.167 76.5,222.5C 75.5139,218.03 75.1805,213.363 75.5,208.5C 77.099,208.232 78.4324,208.566 79.5,209.5 Z"/></g>
<g><path style="opacity:1" fill="#2b89c8" d="M 79.5,209.5 C 81.1921,211.205 82.5254,213.205 83.5,215.5C 83.7828,216.289 84.2828,216.956 85,217.5C 85.1816,214.774 85.6816,212.107 86.5,209.5C 87.4922,213.783 87.8256,218.116 87.5,222.5C 86.448,222.649 85.448,222.483 84.5,222C 83,219.833 81.5,217.667 80,215.5C 79.5034,217.81 79.3367,220.143 79.5,222.5C 78.5,222.5 77.5,222.5 76.5,222.5C 76.5,218.167 76.5,213.833 76.5,209.5C 77.5,209.5 78.5,209.5 79.5,209.5 Z"/></g>
<g><path style="opacity:1" fill="#1e81c3" d="M 99.5,209.5 C 100.458,209.953 101.292,210.619 102,211.5C 103.828,220.173 100.328,223.839 91.5,222.5C 91.5,218.167 91.5,213.833 91.5,209.5C 94.1667,209.5 96.8333,209.5 99.5,209.5 Z"/></g>
<g><path style="opacity:1" fill="#9fd4e6" d="M 98.5,212.5 C 97.1667,212.5 95.8333,212.5 94.5,212.5C 94.5,214.833 94.5,217.167 94.5,219.5C 95.8333,219.5 97.1667,219.5 98.5,219.5C 97.0813,220.451 95.4147,220.784 93.5,220.5C 93.5,217.5 93.5,214.5 93.5,211.5C 95.4147,211.216 97.0813,211.549 98.5,212.5 Z"/></g>
<g><path style="opacity:1" fill="#f7fcfb" d="M 98.5,212.5 C 99.8333,214.833 99.8333,217.167 98.5,219.5C 97.1667,219.5 95.8333,219.5 94.5,219.5C 94.5,217.167 94.5,214.833 94.5,212.5C 95.8333,212.5 97.1667,212.5 98.5,212.5 Z"/></g>
<g><path style="opacity:1" fill="#53add9" d="M 130.5,209.5 C 131.209,208.596 132.209,208.263 133.5,208.5C 133.819,213.363 133.486,218.03 132.5,222.5C 133.097,217.706 132.43,213.373 130.5,209.5 Z"/></g>
<g><path style="opacity:1" fill="#4a9ace" d="M 37.5,211.5 C 37.5,212.5 37.5,213.5 37.5,214.5C 39.5,214.5 41.5,214.5 43.5,214.5C 43.5,215.5 43.5,216.5 43.5,217.5C 41.5,217.5 39.5,217.5 37.5,217.5C 37.7845,219.415 37.4511,221.081 36.5,222.5C 35.4751,218.429 35.8084,214.762 37.5,211.5 Z"/></g>
<g><path style="opacity:1" fill="#2587c7" d="M 62.5,219.5 C 62.1796,216.102 62.513,212.768 63.5,209.5C 64.1672,212.977 64.8339,216.311 65.5,219.5C 66.8845,220.801 68.3845,220.801 70,219.5C 70.4986,215.848 70.6653,212.182 70.5,208.5C 71.5,208.5 72.5,208.5 73.5,208.5C 73.6655,212.514 73.4988,216.514 73,220.5C 70.1076,222.673 66.941,223.006 63.5,221.5C 63.1373,220.817 62.8039,220.15 62.5,219.5 Z"/></g>
<g><path style="opacity:1" fill="#94cee9" d="M 87.5,222.5 C 87.8256,218.116 87.4922,213.783 86.5,209.5C 85.6816,212.107 85.1816,214.774 85,217.5C 84.2828,216.956 83.7828,216.289 83.5,215.5C 84.4682,213.393 84.8016,211.059 84.5,208.5C 85.8333,208.5 87.1667,208.5 88.5,208.5C 88.8195,213.363 88.4861,218.03 87.5,222.5 Z"/></g>
<g><path style="opacity:1" fill="#2f8cc7" d="M 108.5,208.5 C 109.978,208.238 111.311,208.571 112.5,209.5C 114.464,213.754 116.131,218.088 117.5,222.5C 115.331,221.219 112.997,220.219 110.5,219.5C 108.34,219.766 106.674,220.766 105.5,222.5C 105.167,221.833 104.833,221.167 104.5,220.5C 105.844,216.484 107.178,212.484 108.5,208.5 Z"/></g>
<g><path style="opacity:1" fill="#9ad0e6" d="M 109.5,213.5 C 111.912,213.694 112.912,215.027 112.5,217.5C 111.5,217.5 110.5,217.5 109.5,217.5C 109.5,216.167 109.5,214.833 109.5,213.5 Z"/></g>
<g><path style="opacity:1" fill="#2a88c6" d="M 49.5,208.5 C 57.7593,207.864 60.9259,211.53 59,219.5C 49.3594,225.528 45.3594,222.861 47,211.5C 48.045,210.627 48.8783,209.627 49.5,208.5 Z"/></g>
<g><path style="opacity:1" fill="#ecf7fa" d="M 50.5,211.5 C 56.6426,212.026 57.9759,214.86 54.5,220C 52.8876,220.72 51.3876,220.554 50,219.5C 49.2782,216.739 49.4448,214.073 50.5,211.5 Z"/></g>
<g><path style="opacity:1" fill="#2688c6" d="M 158.5,215.5 C 158.783,216.289 159.283,216.956 160,217.5C 160.182,214.774 160.682,212.107 161.5,209.5C 162.492,213.783 162.826,218.116 162.5,222.5C 161.325,222.719 160.325,222.386 159.5,221.5C 155.476,213.421 153.81,213.754 154.5,222.5C 153.5,222.5 152.5,222.5 151.5,222.5C 151.5,217.833 151.5,213.167 151.5,208.5C 154.908,209.559 157.241,211.892 158.5,215.5 Z"/></g>
<g><path style="opacity:1" fill="#84cbe1" d="M 162.5,222.5 C 162.826,218.116 162.492,213.783 161.5,209.5C 160.682,212.107 160.182,214.774 160,217.5C 159.283,216.956 158.783,216.289 158.5,215.5C 159.468,213.393 159.802,211.059 159.5,208.5C 160.833,208.5 162.167,208.5 163.5,208.5C 163.819,213.363 163.486,218.03 162.5,222.5 Z"/></g>
</svg>
