<?xml version="1.0" encoding="UTF-8"?>
<!DOCTYPE svg PUBLIC "-//W3C//DTD SVG 1.1//EN" "http://www.w3.org/Graphics/SVG/1.1/DTD/svg11.dtd">
<svg xmlns="http://www.w3.org/2000/svg" version="1.1" width="192px" height="279px" style="shape-rendering:geometricPrecision; text-rendering:geometricPrecision; image-rendering:optimizeQuality; fill-rule:evenodd; clip-rule:evenodd" xmlns:xlink="http://www.w3.org/1999/xlink">
<g><path style="opacity:1" fill="#fefefe" d="M -0.5,-0.5 C 63.5,-0.5 127.5,-0.5 191.5,-0.5C 191.5,92.5 191.5,185.5 191.5,278.5C 127.5,278.5 63.5,278.5 -0.5,278.5C -0.5,185.5 -0.5,92.5 -0.5,-0.5 Z"/></g>
<g><path style="opacity:1" fill="#2f3742" d="M 134.5,43.5 C 138.684,42.7036 141.85,44.037 144,47.5C 146.203,66.2703 138.37,78.437 120.5,84C 116.409,85.2272 112.909,84.3939 110,81.5C 107.42,61.6162 115.587,48.9495 134.5,43.5 Z"/></g>
<g><path style="opacity:1" fill="#84cbb7" d="M 131.5,55.5 C 132.497,55.4701 133.164,55.9701 133.5,57C 132.279,64.6405 128.112,69.8071 121,72.5C 120.936,64.6272 124.436,58.9605 131.5,55.5 Z"/></g>
<g><path style="opacity:1" fill="#2e3641" d="M 22.5,73.5 C 54.8621,75.3628 71.5288,92.5294 72.5,125C 74.0573,131.759 71.5573,135.592 65,136.5C 42.0957,133.927 27.429,121.593 21,99.5C 20.3333,91.5 20.3333,83.5 21,75.5C 21.7172,74.9558 22.2172,74.2891 22.5,73.5 Z"/></g>
<g><path style="opacity:1" fill="#f3d661" d="M 78.5,73.5 C 84.6295,72.5548 88.2962,75.0548 89.5,81C 87.1273,88.8747 82.6273,90.3747 76,85.5C 73.5112,80.7565 74.3445,76.7565 78.5,73.5 Z"/></g>
<g><path style="opacity:1" fill="#8ad4be" d="M 33.5,85.5 C 43.7993,96.1366 53.1327,107.47 61.5,119.5C 61.5,121.167 61.5,122.833 61.5,124.5C 46.2405,122.078 36.4072,113.412 32,98.5C 31.3333,93.8333 31.3333,89.1667 32,84.5C 32.3826,85.056 32.8826,85.3893 33.5,85.5 Z"/></g>
<g><path style="opacity:1" fill="#f5f6f7" d="M 33.5,85.5 C 46.9034,88.4012 55.7367,96.4012 60,109.5C 61.0429,112.757 61.5429,116.09 61.5,119.5C 53.1327,107.47 43.7993,96.1366 33.5,85.5 Z"/></g>
<g><path style="opacity:1" fill="#2f3641" d="M 101.5,84.5 C 105.925,83.7566 108.592,85.5899 109.5,90C 106.13,95.2363 102.63,100.403 99,105.5C 97.5131,109.116 96.1798,112.783 95,116.5C 94.5,137.831 94.3334,159.164 94.5,180.5C 111.494,183.831 120.827,194.164 122.5,211.5C 118.7,235.454 104.7,245.954 80.5,243C 61.72,235.949 53.8867,222.449 57,202.5C 61.6946,190.083 70.5279,182.75 83.5,180.5C 83.3334,159.497 83.5,138.497 84,117.5C 86.2112,104.487 92.0446,93.4873 101.5,84.5 Z"/></g>
<g><path style="opacity:1" fill="#2e3641" d="M 164.5,91.5 C 168.911,91.021 173.078,91.6876 177,93.5C 182.2,124.27 172.366,148.77 147.5,167C 136.088,173.937 123.755,176.937 110.5,176C 102.449,145.744 111.115,121.077 136.5,102C 145.19,96.4759 154.523,92.9759 164.5,91.5 Z"/></g>
<g><path style="opacity:1" fill="#f3d661" d="M 107.5,102.5 C 114,101.499 116.5,104.165 115,110.5C 112,114.5 109,114.5 106,110.5C 105.109,107.502 105.609,104.836 107.5,102.5 Z"/></g>
<g><path style="opacity:1" fill="#8ad5be" d="M 166.5,112.5 C 157.314,133.354 143.648,150.687 125.5,164.5C 123.194,164.993 120.861,165.326 118.5,165.5C 116.227,135.194 129.227,114.694 157.5,104C 160.432,103.047 163.432,102.547 166.5,102.5C 166.5,105.833 166.5,109.167 166.5,112.5 Z"/></g>
<g><path style="opacity:1" fill="#f6f7f7" d="M 166.5,112.5 C 166.11,132.118 157.777,147.285 141.5,158C 136.486,161.009 131.152,163.176 125.5,164.5C 143.648,150.687 157.314,133.354 166.5,112.5 Z"/></g>
<g><path style="opacity:1" fill="#f3d560" d="M 62.5,149.5 C 74.4887,148.323 79.322,153.656 77,165.5C 70.2376,173.479 63.571,173.479 57,165.5C 54.0239,158.462 55.8572,153.129 62.5,149.5 Z"/></g>
<g><path style="opacity:1" fill="#f3a79f" d="M 82.5,190.5 C 98.9458,188.803 108.612,195.97 111.5,212C 107.734,229.561 97.0671,235.894 79.5,231C 66.9318,223.71 63.7651,213.543 70,200.5C 73.4894,196.162 77.6561,192.829 82.5,190.5 Z"/></g>
<g><path style="opacity:1" fill="#fefaf9" d="M 85.5,199.5 C 87.8333,199.5 90.1667,199.5 92.5,199.5C 92.5,202.167 92.5,204.833 92.5,207.5C 95.1873,207.336 97.854,207.503 100.5,208C 101.435,210.381 101.768,212.881 101.5,215.5C 98.5,215.5 95.5,215.5 92.5,215.5C 92.5,218.167 92.5,220.833 92.5,223.5C 90.1667,223.5 87.8333,223.5 85.5,223.5C 85.5,220.833 85.5,218.167 85.5,215.5C 82.8333,215.5 80.1667,215.5 77.5,215.5C 77.5,212.833 77.5,210.167 77.5,207.5C 80.1667,207.5 82.8333,207.5 85.5,207.5C 85.5,204.833 85.5,202.167 85.5,199.5 Z"/></g>
</svg>
