<?xml version="1.0" encoding="UTF-8"?>
<!DOCTYPE svg PUBLIC "-//W3C//DTD SVG 1.1//EN" "http://www.w3.org/Graphics/SVG/1.1/DTD/svg11.dtd">
<svg xmlns="http://www.w3.org/2000/svg" version="1.1" width="192px" height="279px" style="shape-rendering:geometricPrecision; text-rendering:geometricPrecision; image-rendering:optimizeQuality; fill-rule:evenodd; clip-rule:evenodd" xmlns:xlink="http://www.w3.org/1999/xlink">
<g><path style="opacity:1" fill="#fdfdfd" d="M -0.5,-0.5 C 63.5,-0.5 127.5,-0.5 191.5,-0.5C 191.5,92.5 191.5,185.5 191.5,278.5C 127.5,278.5 63.5,278.5 -0.5,278.5C -0.5,185.5 -0.5,92.5 -0.5,-0.5 Z"/></g>
<g><path style="opacity:1" fill="#fff220" d="M 97.5,134.5 C 97.1667,134.5 96.8333,134.5 96.5,134.5C 93.8333,134.5 91.1667,134.5 88.5,134.5C 88.0287,119.497 87.862,104.497 88,89.5C 91.3936,88.5442 94.8936,88.2108 98.5,88.5C 98.1667,103.833 97.8333,119.167 97.5,134.5 Z"/></g>
<g><path style="opacity:1" fill="#a4a6a8" d="M 87.5,134.5 C 84.1667,134.5 80.8333,134.5 77.5,134.5C 76.857,121.474 75.857,108.474 74.5,95.5C 74.2484,92.2533 75.7484,90.9199 79,91.5C 81.6667,91.1667 83.6667,92.1667 85,94.5C 86.0826,107.822 86.9159,121.155 87.5,134.5 Z"/></g>
<g><path style="opacity:1" fill="#3d3d3f" d="M 108.5,134.5 C 108.5,134.833 108.5,135.167 108.5,135.5C 104.5,135.5 100.5,135.5 96.5,135.5C 96.5,135.167 96.5,134.833 96.5,134.5C 96.8333,134.5 97.1667,134.5 97.5,134.5C 99.1288,120.694 100.295,106.694 101,92.5C 103.896,90.255 107.063,89.9216 110.5,91.5C 110.833,92.5 111.167,93.5 111.5,94.5C 110.39,107.826 109.39,121.159 108.5,134.5 Z"/></g>
<g><path style="opacity:1" fill="#fff21e" d="M 75.5,134.5 C 73.5,134.5 71.5,134.5 69.5,134.5C 67.5023,122.843 65.5023,111.177 63.5,99.5C 62.7512,95.7504 64.2512,94.0837 68,94.5C 70.0342,94.3536 71.7009,95.0203 73,96.5C 73.9845,109.162 74.8179,121.828 75.5,134.5 Z"/></g>
<g><path style="opacity:1" fill="#a3a5a7" d="M 116.5,134.5 C 114.5,134.5 112.5,134.5 110.5,134.5C 110.962,121.812 111.795,109.145 113,96.5C 115.667,95.1667 118.333,95.1667 121,96.5C 120.485,109.261 118.985,121.927 116.5,134.5 Z"/></g>
<g><path style="opacity:1" fill="#707272" d="M 69.5,134.5 C 71.5,134.5 73.5,134.5 75.5,134.5C 76.1667,134.5 76.8333,134.5 77.5,134.5C 80.8333,134.5 84.1667,134.5 87.5,134.5C 87.8333,134.5 88.1667,134.5 88.5,134.5C 91.1667,134.5 93.8333,134.5 96.5,134.5C 96.5,134.833 96.5,135.167 96.5,135.5C 82.9895,135.829 69.6562,135.496 56.5,134.5C 57.2389,134.631 57.9056,134.464 58.5,134C 55.9907,121.604 53.9907,109.104 52.5,96.5C 56.0297,95.9889 59.1963,96.6556 62,98.5C 64.6711,110.363 66.1711,122.363 66.5,134.5C 67.5,134.5 68.5,134.5 69.5,134.5 Z"/></g>
<g><path style="opacity:1" fill="#6d6f71" d="M 132.5,99.5 C 131.62,110.374 130.287,121.207 128.5,132C 128.684,133.376 129.351,134.209 130.5,134.5C 131.791,134.263 132.791,134.596 133.5,135.5C 125.167,135.5 116.833,135.5 108.5,135.5C 108.5,135.167 108.5,134.833 108.5,134.5C 109.167,134.5 109.833,134.5 110.5,134.5C 112.5,134.5 114.5,134.5 116.5,134.5C 118.045,133.77 118.878,132.437 119,130.5C 120.41,120.12 122.076,109.786 124,99.5C 126.832,98.2138 129.665,98.2138 132.5,99.5 Z"/></g>
<g><path style="opacity:1" fill="#a2a4a6" d="M 138.5,127.5 C 137.015,126.065 135.682,126.232 134.5,128C 135.365,129.359 136.365,130.526 137.5,131.5C 136.539,133.265 136.205,135.265 136.5,137.5C 135.5,136.833 134.5,136.167 133.5,135.5C 132.791,134.596 131.791,134.263 130.5,134.5C 131.274,124.08 132.608,113.747 134.5,103.5C 134.685,101.11 136.018,100.11 138.5,100.5C 140.725,100.305 142.391,101.139 143.5,103C 140.871,110.979 139.204,119.145 138.5,127.5 Z"/></g>
<g><path style="opacity:1" fill="#343335" d="M 56.5,134.5 C 69.6562,135.496 82.9895,135.829 96.5,135.5C 100.5,135.5 104.5,135.5 108.5,135.5C 116.833,135.5 125.167,135.5 133.5,135.5C 134.5,136.167 135.5,136.833 136.5,137.5C 136.5,138.167 136.833,138.5 137.5,138.5C 138.5,140.167 139.833,141.5 141.5,142.5C 141.5,143.167 141.833,143.5 142.5,143.5C 142.56,144.043 142.893,144.376 143.5,144.5C 145.419,140.179 144.419,136.846 140.5,134.5C 139.833,133.167 138.833,132.167 137.5,131.5C 136.365,130.526 135.365,129.359 134.5,128C 135.682,126.232 137.015,126.065 138.5,127.5C 142.972,130.573 147.639,133.407 152.5,136C 156.389,138.833 156.389,141.666 152.5,144.5C 150.851,143.352 149.351,142.019 148,140.5C 147.623,151.171 147.79,161.838 148.5,172.5C 146.833,172.5 145.167,172.5 143.5,172.5C 143.5,164.167 143.5,155.833 143.5,147.5C 141.5,147.5 139.5,147.5 137.5,147.5C 135.833,147.5 134.167,147.5 132.5,147.5C 107.167,147.5 81.8333,147.5 56.5,147.5C 54.8333,147.5 53.1667,147.5 51.5,147.5C 48.5,147.5 45.5,147.5 42.5,147.5C 42.5,155.833 42.5,164.167 42.5,172.5C 39.4096,173.17 37.743,172.003 37.5,169C 39,159.18 39.3334,149.347 38.5,139.5C 35.4288,142.42 33.0955,141.92 31.5,138C 31.7591,136.739 32.4258,135.739 33.5,135C 38.369,132.403 43.0356,129.57 47.5,126.5C 44.1776,118.05 42.011,109.383 41,100.5C 44.1635,99.0813 47.1635,99.4146 50,101.5C 52.771,112.519 54.9376,123.519 56.5,134.5 Z"/></g>
<g><path style="opacity:1" fill="#d9dadb" d="M 132.5,99.5 C 133.167,100.833 133.833,102.167 134.5,103.5C 132.608,113.747 131.274,124.08 130.5,134.5C 129.351,134.209 128.684,133.376 128.5,132C 130.287,121.207 131.62,110.374 132.5,99.5 Z"/></g>
<g><path style="opacity:1" fill="#ededed" d="M 137.5,131.5 C 138.833,132.167 139.833,133.167 140.5,134.5C 139.974,136.23 138.974,137.564 137.5,138.5C 136.833,138.5 136.5,138.167 136.5,137.5C 136.205,135.265 136.539,133.265 137.5,131.5 Z"/></g>
<g><path style="opacity:1" fill="#a8a9ab" d="M 47.5,131.5 C 49.1412,132.871 50.1412,134.704 50.5,137C 48.6737,139.465 46.507,141.632 44,143.5C 42.7887,138.664 43.9554,134.664 47.5,131.5 Z"/></g>
<g><path style="opacity:1" fill="#7e7f82" d="M 140.5,134.5 C 144.419,136.846 145.419,140.179 143.5,144.5C 142.893,144.376 142.56,144.043 142.5,143.5C 143.613,142.054 143.78,140.387 143,138.5C 142.209,139.745 141.709,141.078 141.5,142.5C 139.833,141.5 138.5,140.167 137.5,138.5C 138.974,137.564 139.974,136.23 140.5,134.5 Z"/></g>
<g><path style="opacity:1" fill="#efefef" d="M 142.5,143.5 C 141.833,143.5 141.5,143.167 141.5,142.5C 141.709,141.078 142.209,139.745 143,138.5C 143.78,140.387 143.613,142.054 142.5,143.5 Z"/></g>
<g><path style="opacity:1" fill="#838588" d="M 51.5,147.5 C 53.1667,147.5 54.8333,147.5 56.5,147.5C 57.7093,150.721 59.376,153.721 61.5,156.5C 59.6471,157.76 57.8138,157.76 56,156.5C 54.4867,153.473 52.9867,150.473 51.5,147.5 Z"/></g>
<g><path style="opacity:1" fill="#848689" d="M 132.5,147.5 C 134.167,147.5 135.833,147.5 137.5,147.5C 135.421,151.328 133.588,155.328 132,159.5C 130.89,161.037 129.39,161.703 127.5,161.5C 127.34,159.801 127.506,158.134 128,156.5C 130.038,153.757 131.538,150.757 132.5,147.5 Z"/></g>
<g><path style="opacity:1" fill="#4a494b" d="M 60.5,186.5 C 62.1439,186.286 63.6439,186.62 65,187.5C 66.5339,191.711 66.8673,196.044 66,200.5C 64.7365,202.607 62.9032,203.607 60.5,203.5C 60.5,197.833 60.5,192.167 60.5,186.5 Z"/></g>
<g><path style="opacity:1" fill="#373637" d="M 116.5,199.5 C 116.389,200.117 116.056,200.617 115.5,201C 114.167,201.167 112.833,201.333 111.5,201.5C 109.667,201.415 108.334,200.748 107.5,199.5C 107.5,195.167 107.5,190.833 107.5,186.5C 110.448,186.223 113.281,186.556 116,187.5C 115.616,191.4 115.783,195.4 116.5,199.5 Z"/></g>
<g><path style="opacity:1" fill="#7f7d7a" d="M 126.5,186.5 C 124.5,186.5 122.5,186.5 120.5,186.5C 120.5,191.5 120.5,196.5 120.5,201.5C 119.662,201.158 119.328,200.492 119.5,199.5C 119.5,194.833 119.5,190.167 119.5,185.5C 122.059,185.198 124.393,185.532 126.5,186.5 Z"/></g>
<g><path style="opacity:1" fill="#8a8883" d="M 157.5,186.5 C 156.5,186.5 155.5,186.5 154.5,186.5C 154.5,191.5 154.5,196.5 154.5,201.5C 153.662,201.158 153.328,200.492 153.5,199.5C 153.5,194.833 153.5,190.167 153.5,185.5C 155.099,185.232 156.432,185.566 157.5,186.5 Z"/></g>
<g><path style="opacity:1" fill="#302f31" d="M 157.5,186.5 C 158.167,193.167 158.833,193.167 159.5,186.5C 160.5,186.5 161.5,186.5 162.5,186.5C 162.5,191.5 162.5,196.5 162.5,201.5C 160.821,201.715 159.821,201.048 159.5,199.5C 158.833,194.167 158.167,194.167 157.5,199.5C 157.179,201.048 156.179,201.715 154.5,201.5C 154.5,196.5 154.5,191.5 154.5,186.5C 155.5,186.5 156.5,186.5 157.5,186.5 Z"/></g>
<g><path style="opacity:1" fill="#787672" d="M 159.5,186.5 C 160.568,185.566 161.901,185.232 163.5,185.5C 163.5,190.167 163.5,194.833 163.5,199.5C 163.672,200.492 163.338,201.158 162.5,201.5C 162.5,196.5 162.5,191.5 162.5,186.5C 161.5,186.5 160.5,186.5 159.5,186.5 Z"/></g>
<g><path style="opacity:1" fill="#dddddd" d="M 62.5,187.5 C 64.6801,189.031 65.6801,191.198 65.5,194C 65.5561,197.013 64.5561,199.513 62.5,201.5C 61.2254,196.784 61.2254,192.117 62.5,187.5 Z"/></g>
<g><path style="opacity:1" fill="#383738" d="M 138.5,199.5 C 137.121,202.047 135.454,202.047 133.5,199.5C 131.844,202.018 130.511,202.018 129.5,199.5C 129.5,195.167 129.5,190.833 129.5,186.5C 130.833,186.5 132.167,186.5 133.5,186.5C 134.623,192.966 135.29,192.966 135.5,186.5C 136.5,186.5 137.5,186.5 138.5,186.5C 138.5,190.833 138.5,195.167 138.5,199.5 Z"/></g>
<g><path style="opacity:1" fill="#3a393a" d="M 150.5,188.5 C 150.5,189.833 150.5,191.167 150.5,192.5C 149.167,192.5 147.833,192.5 146.5,192.5C 145.167,193.5 145.167,194.5 146.5,195.5C 147.833,195.5 149.167,195.5 150.5,195.5C 150.5,196.833 150.5,198.167 150.5,199.5C 149.508,201.026 148.008,201.693 146,201.5C 144.213,201.241 142.713,200.575 141.5,199.5C 141.334,195.486 141.501,191.486 142,187.5C 145.258,184.654 148.092,184.987 150.5,188.5 Z"/></g>
<g><path style="opacity:1" fill="#5d5c5e" d="M 18.5,185.5 C 22.7954,185.279 23.4621,186.612 20.5,189.5C 20.8178,190.647 21.4844,191.481 22.5,192C 20.8122,194.825 19.9789,197.991 20,201.5C 19.1697,196.192 18.6697,190.859 18.5,185.5 Z"/></g>
<g><path style="opacity:1" fill="#cbcbcc" d="M 150.5,188.5 C 151.451,189.919 151.784,191.585 151.5,193.5C 144.833,193.833 144.833,194.167 151.5,194.5C 151.5,196.167 151.5,197.833 151.5,199.5C 151.167,199.5 150.833,199.5 150.5,199.5C 150.5,198.167 150.5,196.833 150.5,195.5C 149.167,195.5 147.833,195.5 146.5,195.5C 145.167,194.5 145.167,193.5 146.5,192.5C 147.833,192.5 149.167,192.5 150.5,192.5C 150.5,191.167 150.5,189.833 150.5,188.5 Z"/></g>
<g><path style="opacity:1" fill="#3a393b" d="M 70.5,193.5 C 69.3871,192.054 69.2204,190.387 70,188.5C 71.0495,187.483 72.2161,187.316 73.5,188C 70.9648,188.928 69.9648,190.762 70.5,193.5 Z"/></g>
<g><path style="opacity:1" fill="#434345" d="M 41.5,186.5 C 45.8383,186.622 46.1716,186.955 42.5,187.5C 42.5,189.833 42.5,192.167 42.5,194.5C 46.5,194.833 46.5,195.167 42.5,195.5C 42.5,197.5 42.5,199.5 42.5,201.5C 47.5,202.003 47.1667,202.336 41.5,202.5C 41.5,197.167 41.5,191.833 41.5,186.5 Z"/></g>
<g><path style="opacity:1" fill="#4c4b4d" d="M 49.5,186.5 C 50.7498,186.577 51.5831,187.244 52,188.5C 52.7977,191.893 53.7977,195.226 55,198.5C 55.1747,194.789 55.6747,191.122 56.5,187.5C 56.8333,188 57.1667,188.5 57.5,189C 56.7462,193.795 56.2462,198.628 56,203.5C 54.0537,199.942 52.3871,196.275 51,192.5C 50.6667,196.5 50.3333,200.5 50,204.5C 49.5005,198.509 49.3338,192.509 49.5,186.5 Z"/></g>
<g><path style="opacity:1" fill="#49484a" d="M 35.5,186.5 C 36.8117,188.743 37.4783,191.41 37.5,194.5C 37.3333,197.167 37.1667,199.833 37,202.5C 36.6095,197.146 36.1095,191.812 35.5,186.5 Z"/></g>
<g><path style="opacity:1" fill="#59585a" d="M 91.5,185.5 C 95.2512,185.418 97.2512,187.251 97.5,191C 97.2514,193.664 96.0847,195.831 94,197.5C 93.8142,199.9 93.3142,202.234 92.5,204.5C 91.5037,198.202 91.1703,191.868 91.5,185.5 Z"/></g>
<g><path style="opacity:1" fill="#f9f9f9" d="M 93.5,187.5 C 95.9506,189.916 96.1173,192.583 94,195.5C 93.5026,192.854 93.3359,190.187 93.5,187.5 Z"/></g>
<g><path style="opacity:1" fill="#636264" d="M 86.5,186.5 C 88.5068,191.608 88.8401,196.942 87.5,202.5C 86.5052,197.208 86.1718,191.875 86.5,186.5 Z"/></g>
<g><path style="opacity:1" fill="#acacad" d="M 159.5,199.5 C 158.833,199.5 158.167,199.5 157.5,199.5C 158.167,194.167 158.833,194.167 159.5,199.5 Z"/></g>
<g><path style="opacity:1" fill="#4f4e50" d="M 78.5,186.5 C 78.5,189.5 78.5,192.5 78.5,195.5C 79.5,195.5 80.5,195.5 81.5,195.5C 81.5,192.5 81.5,189.5 81.5,186.5C 82.4889,191.975 82.8222,197.642 82.5,203.5C 81.5386,201.735 81.2053,199.735 81.5,197.5C 80.5,197.5 79.5,197.5 78.5,197.5C 78.7947,199.735 78.4614,201.735 77.5,203.5C 77.1778,197.642 77.5111,191.975 78.5,186.5 Z"/></g>
<g><path style="opacity:1" fill="#4f4e51" d="M 29.5,186.5 C 31.8074,188.572 32.1407,191.072 30.5,194C 32.164,196.651 32.664,199.484 32,202.5C 28.9335,192.983 27.2668,193.317 27,203.5C 26.5005,197.509 26.3338,191.509 26.5,185.5C 27.791,185.263 28.791,185.596 29.5,186.5 Z"/></g>
<g><path style="opacity:1" fill="#e0e0e0" d="M 29.5,186.5 C 31.0787,189.1 30.7453,191.433 28.5,193.5C 28.1667,192.333 27.8333,191.167 27.5,190C 27.6083,188.319 28.2749,187.152 29.5,186.5 Z"/></g>
<g><path style="opacity:1" fill="#8e8e8f" d="M 78.5,186.5 C 77.5111,191.975 77.1778,197.642 77.5,203.5C 76.1834,197.654 76.1834,191.654 77.5,185.5C 78.1067,185.624 78.44,185.957 78.5,186.5 Z"/></g>
<g><path style="opacity:1" fill="#353436" d="M 126.5,186.5 C 126.5,187.5 126.5,188.5 126.5,189.5C 125.5,189.5 124.5,189.5 123.5,189.5C 123.5,190.5 123.5,191.5 123.5,192.5C 124.5,192.5 125.5,192.5 126.5,192.5C 126.374,194.2 125.707,195.7 124.5,197C 125.056,198.011 125.722,198.844 126.5,199.5C 125.082,201.308 123.082,201.975 120.5,201.5C 120.5,196.5 120.5,191.5 120.5,186.5C 122.5,186.5 124.5,186.5 126.5,186.5 Z"/></g>
<g><path style="opacity:1" fill="#8f8e90" d="M 81.5,186.5 C 81.56,185.957 81.8933,185.624 82.5,185.5C 83.8166,191.654 83.8166,197.654 82.5,203.5C 82.8222,197.642 82.4889,191.975 81.5,186.5 Z"/></g>
<g><path style="opacity:1" fill="#444445" d="M 70.5,193.5 C 73.2364,195.858 74.0698,198.858 73,202.5C 71.0355,203.885 69.2021,203.718 67.5,202C 69.075,202.379 70.575,202.212 72,201.5C 72.4279,198.678 71.9279,196.012 70.5,193.5 Z"/></g>
<g><path style="opacity:1" fill="#f7ec29" d="M 107.5,199.5 C 108.334,200.748 109.667,201.415 111.5,201.5C 112.833,201.333 114.167,201.167 115.5,201C 116.056,200.617 116.389,200.117 116.5,199.5C 117.5,199.5 118.5,199.5 119.5,199.5C 119.328,200.492 119.662,201.158 120.5,201.5C 123.082,201.975 125.082,201.308 126.5,199.5C 127.5,199.5 128.5,199.5 129.5,199.5C 130.511,202.018 131.844,202.018 133.5,199.5C 135.454,202.047 137.121,202.047 138.5,199.5C 139.5,199.5 140.5,199.5 141.5,199.5C 142.713,200.575 144.213,201.241 146,201.5C 148.008,201.693 149.508,201.026 150.5,199.5C 150.833,199.5 151.167,199.5 151.5,199.5C 152.167,199.5 152.833,199.5 153.5,199.5C 153.328,200.492 153.662,201.158 154.5,201.5C 156.179,201.715 157.179,201.048 157.5,199.5C 158.167,199.5 158.833,199.5 159.5,199.5C 159.821,201.048 160.821,201.715 162.5,201.5C 163.338,201.158 163.672,200.492 163.5,199.5C 167.145,198.68 169.478,200.013 170.5,203.5C 146.84,204.666 123.174,204.833 99.5,204C 100.836,200.168 103.503,198.668 107.5,199.5 Z"/></g>
</svg>
