<?xml version="1.0" encoding="UTF-8"?>
<!DOCTYPE svg PUBLIC "-//W3C//DTD SVG 1.1//EN" "http://www.w3.org/Graphics/SVG/1.1/DTD/svg11.dtd">
<svg xmlns="http://www.w3.org/2000/svg" version="1.1" width="192px" height="279px" style="shape-rendering:geometricPrecision; text-rendering:geometricPrecision; image-rendering:optimizeQuality; fill-rule:evenodd; clip-rule:evenodd" xmlns:xlink="http://www.w3.org/1999/xlink">
<g><path style="opacity:1" fill="#0f6976" d="M -0.5,-0.5 C 63.5,-0.5 127.5,-0.5 191.5,-0.5C 191.5,92.5 191.5,185.5 191.5,278.5C 127.5,278.5 63.5,278.5 -0.5,278.5C -0.5,185.5 -0.5,92.5 -0.5,-0.5 Z"/></g>
<g><path style="opacity:1" fill="#fafcfc" d="M 130.5,63.5 C 138.041,64.7197 144.041,68.3863 148.5,74.5C 148.443,75.609 148.11,76.609 147.5,77.5C 143.846,79.3311 140.513,81.6644 137.5,84.5C 134.843,82.3923 131.843,81.059 128.5,80.5C 126.696,79.838 124.696,79.5046 122.5,79.5C 119.473,79.2865 116.807,79.9532 114.5,81.5C 112.167,81.8333 110.833,83.1667 110.5,85.5C 108.066,86.7713 106.566,88.7713 106,91.5C 105.501,95.1516 105.335,98.8183 105.5,102.5C 112.833,102.5 120.167,102.5 127.5,102.5C 127.5,107.5 127.5,112.5 127.5,117.5C 119.757,116.87 112.424,117.537 105.5,119.5C 105.5,135.167 105.5,150.833 105.5,166.5C 100.167,166.5 94.8333,166.5 89.5,166.5C 89.5,141.167 89.5,115.833 89.5,90.5C 90.1667,87.5 90.8333,84.5 91.5,81.5C 93.7519,78.0676 96.2519,74.7342 99,71.5C 101.052,69.9415 103.219,68.6082 105.5,67.5C 108.871,66.6774 112.204,65.5107 115.5,64C 120.489,63.5007 125.489,63.3341 130.5,63.5 Z"/></g>
<g><path style="opacity:1" fill="#cfdae3" d="M 130.5,63.5 C 125.489,63.3341 120.489,63.5007 115.5,64C 112.204,65.5107 108.871,66.6774 105.5,67.5C 107.965,65.1633 110.965,63.6633 114.5,63C 120.016,62.1826 125.35,62.3493 130.5,63.5 Z"/></g>
<g><path style="opacity:1" fill="#74a4b0" d="M 148.5,74.5 C 149.885,75.9473 149.552,76.9473 147.5,77.5C 148.11,76.609 148.443,75.609 148.5,74.5 Z"/></g>
<g><path style="opacity:1" fill="#468b8e" d="M 128.5,80.5 C 123.797,80.4372 119.13,80.7705 114.5,81.5C 116.807,79.9532 119.473,79.2865 122.5,79.5C 124.696,79.5046 126.696,79.838 128.5,80.5 Z"/></g>
<g><path style="opacity:1" fill="#679ea5" d="M 114.5,81.5 C 113.5,83.1667 112.167,84.5 110.5,85.5C 110.833,83.1667 112.167,81.8333 114.5,81.5 Z"/></g>
<g><path style="opacity:1" fill="#1c7078" d="M 91.5,81.5 C 90.8333,84.5 90.1667,87.5 89.5,90.5C 88.5022,115.995 88.1689,141.661 88.5,167.5C 94.5,167.5 100.5,167.5 106.5,167.5C 106.85,169.626 106.85,171.959 106.5,174.5C 105.167,174.5 103.833,174.5 102.5,174.5C 102.5,173.167 102.5,171.833 102.5,170.5C 98.3268,171.044 94.4935,170.377 91,168.5C 89.6439,169.38 88.1439,169.714 86.5,169.5C 87.8285,143.344 87.8285,117.177 86.5,91C 87.6135,86.9887 89.1135,83.1553 91,79.5C 91.4643,80.0944 91.631,80.7611 91.5,81.5 Z"/></g>
<g><path style="opacity:1" fill="#7cabb4" d="M 110.5,85.5 C 107.075,90.2028 105.742,95.5361 106.5,101.5C 114.019,101.175 121.352,101.508 128.5,102.5C 128.167,102.5 127.833,102.5 127.5,102.5C 120.167,102.5 112.833,102.5 105.5,102.5C 105.335,98.8183 105.501,95.1516 106,91.5C 106.566,88.7713 108.066,86.7713 110.5,85.5 Z"/></g>
<g><path style="opacity:1" fill="#6ba3a9" d="M 53.5,108.5 C 54.8333,108.5 56.1667,108.5 57.5,108.5C 58.5,109.167 59.5,109.833 60.5,110.5C 57.8478,110.59 55.5145,109.924 53.5,108.5 Z"/></g>
<g><path style="opacity:1" fill="#fffff8" d="M 91.5,108.5 C 92.7079,109.234 94.0413,109.567 95.5,109.5C 95.5,127.5 95.5,145.5 95.5,163.5C 94.1667,163.5 92.8333,163.5 91.5,163.5C 91.5,145.167 91.5,126.833 91.5,108.5 Z"/></g>
<g><path style="opacity:1" fill="#9cbfc8" d="M 51.5,108.5 C 45.3776,108.268 39.3776,108.935 33.5,110.5C 39.2717,107.52 45.2717,106.853 51.5,108.5 Z"/></g>
<g><path style="opacity:1" fill="#fafbfc" d="M 51.5,108.5 C 52.1667,108.5 52.8333,108.5 53.5,108.5C 55.5145,109.924 57.8478,110.59 60.5,110.5C 63.7959,112.821 67.1292,115.154 70.5,117.5C 78.4072,125.888 81.7405,135.888 80.5,147.5C 79.129,149.936 78.129,152.603 77.5,155.5C 77.5,155.833 77.5,156.167 77.5,156.5C 74.9189,160.103 72.2523,163.77 69.5,167.5C 70.8569,169.186 72.1902,170.852 73.5,172.5C 73.7376,174.404 74.7376,175.738 76.5,176.5C 76.2594,178.898 76.9261,180.898 78.5,182.5C 80.0058,185.356 80.6725,188.523 80.5,192C 80.2933,195.523 79.96,199.023 79.5,202.5C 77.1384,206.23 75.1384,210.23 73.5,214.5C 69.1477,218.336 64.4811,221.67 59.5,224.5C 53.3192,226.252 46.9859,226.919 40.5,226.5C 28.1836,224.179 19.8503,217.179 15.5,205.5C 15.2041,203.597 14.5375,201.93 13.5,200.5C 13.5,199.833 13.5,199.167 13.5,198.5C 13.5,196.833 13.5,195.167 13.5,193.5C 18.9265,193.218 24.2599,193.551 29.5,194.5C 29.5,194.833 29.5,195.167 29.5,195.5C 29.1201,197.698 29.7868,199.365 31.5,200.5C 33.177,202.54 34.8437,204.54 36.5,206.5C 36.9731,207.906 37.9731,208.573 39.5,208.5C 43.0437,210.569 46.7104,210.902 50.5,209.5C 54.4155,208.422 57.7488,206.422 60.5,203.5C 62.1733,202.657 63.34,201.324 64,199.5C 64.8075,195.973 64.6408,192.64 63.5,189.5C 61.7472,183.246 57.7472,179.079 51.5,177C 48.2072,176.174 44.8738,175.674 41.5,175.5C 39.4855,174.076 37.1522,173.41 34.5,173.5C 25.1629,170.163 18.8295,163.83 15.5,154.5C 15.2041,152.597 14.5375,150.93 13.5,149.5C 13.5,149.167 13.5,148.833 13.5,148.5C 13.1286,141.681 13.7952,135.014 15.5,128.5C 15.9887,127.005 16.6554,125.671 17.5,124.5C 18.9063,124.027 19.573,123.027 19.5,121.5C 20.1667,120.167 21.1667,119.167 22.5,118.5C 23.8333,117.833 24.8333,116.833 25.5,115.5C 25.9731,114.094 26.9731,113.427 28.5,113.5C 30.8477,113.408 32.5144,112.408 33.5,110.5C 39.3776,108.935 45.3776,108.268 51.5,108.5 Z"/></g>
<g><path style="opacity:1" fill="#307b81" d="M 57.5,108.5 C 61.3468,108.195 64.3468,109.528 66.5,112.5C 68.0777,113.298 69.7444,113.798 71.5,114C 70.6634,115.011 70.33,116.178 70.5,117.5C 67.1292,115.154 63.7959,112.821 60.5,110.5C 59.5,109.833 58.5,109.167 57.5,108.5 Z"/></g>
<g><path style="opacity:1" fill="#c8d6e4" d="M 33.5,110.5 C 32.5144,112.408 30.8477,113.408 28.5,113.5C 29.6594,111.75 31.326,110.75 33.5,110.5 Z"/></g>
<g><path style="opacity:1" fill="#afcdd8" d="M 25.5,115.5 C 24.8333,116.833 23.8333,117.833 22.5,118.5C 22.5,116.5 23.5,115.5 25.5,115.5 Z"/></g>
<g><path style="opacity:1" fill="#cad9df" d="M 127.5,102.5 C 127.833,102.5 128.167,102.5 128.5,102.5C 128.5,108.167 128.5,113.833 128.5,119.5C 121.167,119.5 113.833,119.5 106.5,119.5C 106.167,119.5 105.833,119.5 105.5,119.5C 112.424,117.537 119.757,116.87 127.5,117.5C 127.5,112.5 127.5,107.5 127.5,102.5 Z"/></g>
<g><path style="opacity:1" fill="#7eadb9" d="M 154.5,166.5 C 154.5,167.167 154.167,167.5 153.5,167.5C 153.5,151.5 153.5,135.5 153.5,119.5C 148.5,119.5 143.5,119.5 138.5,119.5C 137.504,134.991 137.17,150.658 137.5,166.5C 137.5,166.833 137.5,167.167 137.5,167.5C 137.167,167.5 136.833,167.5 136.5,167.5C 136.5,151.167 136.5,134.833 136.5,118.5C 142.5,118.5 148.5,118.5 154.5,118.5C 154.5,134.5 154.5,150.5 154.5,166.5 Z"/></g>
<g><path style="opacity:1" fill="#fefdfe" d="M 138.5,119.5 C 142.97,120.486 147.637,120.819 152.5,120.5C 152.5,135.833 152.5,151.167 152.5,166.5C 147.5,166.5 142.5,166.5 137.5,166.5C 137.17,150.658 137.504,134.991 138.5,119.5 Z"/></g>
<g><path style="opacity:1" fill="#b0c4cf" d="M 19.5,121.5 C 19.573,123.027 18.9063,124.027 17.5,124.5C 17.427,122.973 18.0937,121.973 19.5,121.5 Z"/></g>
<g><path style="opacity:1" fill="#78adb0" d="M 51.5,125.5 C 47.4338,125.307 43.4338,125.64 39.5,126.5C 39.6107,125.883 39.944,125.383 40.5,125C 44.3575,124.19 48.0242,124.357 51.5,125.5 Z"/></g>
<g><path style="opacity:1" fill="#156a76" d="M 51.5,125.5 C 62.4543,129.992 66.121,137.992 62.5,149.5C 60.4131,150.585 59.0798,152.251 58.5,154.5C 57.8333,154.5 57.5,154.833 57.5,155.5C 55.0326,155.755 53.0326,156.755 51.5,158.5C 48.1501,158.665 44.8168,158.498 41.5,158C 38.9746,157.576 36.9746,156.41 35.5,154.5C 34.8333,153.5 34.1667,152.5 33.5,151.5C 30.93,144.744 30.93,138.078 33.5,131.5C 34.5935,128.739 36.5935,127.073 39.5,126.5C 43.4338,125.64 47.4338,125.307 51.5,125.5 Z"/></g>
<g><path style="opacity:1" fill="#e1ecee" d="M 138.5,119.5 C 143.5,119.5 148.5,119.5 153.5,119.5C 153.5,135.5 153.5,151.5 153.5,167.5C 148.167,167.5 142.833,167.5 137.5,167.5C 137.5,167.167 137.5,166.833 137.5,166.5C 142.5,166.5 147.5,166.5 152.5,166.5C 152.5,151.167 152.5,135.833 152.5,120.5C 147.637,120.819 142.97,120.486 138.5,119.5 Z"/></g>
<g><path style="opacity:1" fill="#398387" d="M 33.5,131.5 C 30.93,138.078 30.93,144.744 33.5,151.5C 33.1667,151.5 32.8333,151.5 32.5,151.5C 29.21,145.821 28.71,139.821 31,133.5C 31.7083,132.619 32.5416,131.953 33.5,131.5 Z"/></g>
<g><path style="opacity:1" fill="#abcad5" d="M 15.5,128.5 C 13.7952,135.014 13.1286,141.681 13.5,148.5C 12.3503,143.684 12.1837,138.684 13,133.5C 13.3736,131.509 14.207,129.842 15.5,128.5 Z"/></g>
<g><path style="opacity:1" fill="#6fa5a7" d="M 80.5,147.5 C 80.6545,150.716 79.6545,153.383 77.5,155.5C 78.129,152.603 79.129,149.936 80.5,147.5 Z"/></g>
<g><path style="opacity:1" fill="#7ba9b7" d="M 13.5,149.5 C 14.5375,150.93 15.2041,152.597 15.5,154.5C 13.7868,153.365 13.1201,151.698 13.5,149.5 Z"/></g>
<g><path style="opacity:1" fill="#b6d1da" d="M 62.5,149.5 C 61.9202,151.749 60.5869,153.415 58.5,154.5C 59.0798,152.251 60.4131,150.585 62.5,149.5 Z"/></g>
<g><path style="opacity:1" fill="#a9d2d3" d="M 32.5,151.5 C 32.8333,151.5 33.1667,151.5 33.5,151.5C 34.1667,152.5 34.8333,153.5 35.5,154.5C 33.5,154.5 32.5,153.5 32.5,151.5 Z"/></g>
<g><path style="opacity:1" fill="#b2cdd8" d="M 57.5,155.5 C 55.9674,157.245 53.9674,158.245 51.5,158.5C 53.0326,156.755 55.0326,155.755 57.5,155.5 Z"/></g>
<g><path style="opacity:1" fill="#25747c" d="M 77.5,156.5 C 77.0343,162.491 76.701,168.491 76.5,174.5C 75.5,173.833 74.5,173.167 73.5,172.5C 72.1902,170.852 70.8569,169.186 69.5,167.5C 72.2523,163.77 74.9189,160.103 77.5,156.5 Z"/></g>
<g><path style="opacity:1" fill="#8ab8c1" d="M 89.5,90.5 C 89.5,115.833 89.5,141.167 89.5,166.5C 94.8333,166.5 100.167,166.5 105.5,166.5C 105.5,150.833 105.5,135.167 105.5,119.5C 105.833,119.5 106.167,119.5 106.5,119.5C 106.5,135.5 106.5,151.5 106.5,167.5C 100.5,167.5 94.5,167.5 88.5,167.5C 88.1689,141.661 88.5022,115.995 89.5,90.5 Z"/></g>
<g><path style="opacity:1" fill="#3f8a93" d="M 154.5,166.5 C 154.833,166.5 155.167,166.5 155.5,166.5C 155.5,167.833 155.5,169.167 155.5,170.5C 149.264,168.918 142.93,167.918 136.5,167.5C 136.833,167.5 137.167,167.5 137.5,167.5C 142.833,167.5 148.167,167.5 153.5,167.5C 154.167,167.5 154.5,167.167 154.5,166.5 Z"/></g>
<g><path style="opacity:1" fill="#94b6c2" d="M 155.5,166.5 C 158.011,166.838 160.345,166.838 162.5,166.5C 163.429,167.689 163.762,169.022 163.5,170.5C 160.833,170.5 158.167,170.5 155.5,170.5C 155.5,169.167 155.5,167.833 155.5,166.5 Z"/></g>
<g><path style="opacity:1" fill="#8cb6bf" d="M 34.5,173.5 C 37.1522,173.41 39.4855,174.076 41.5,175.5C 38.8478,175.59 36.5145,174.924 34.5,173.5 Z"/></g>
<g><path style="opacity:1" fill="#a1c5c7" d="M 73.5,172.5 C 74.5,173.167 75.5,173.833 76.5,174.5C 76.5,175.167 76.5,175.833 76.5,176.5C 74.7376,175.738 73.7376,174.404 73.5,172.5 Z"/></g>
<g><path style="opacity:1" fill="#afcfcd" d="M 76.5,176.5 C 78.0739,178.102 78.7406,180.102 78.5,182.5C 76.9261,180.898 76.2594,178.898 76.5,176.5 Z"/></g>
<g><path style="opacity:1" fill="#9ac3cc" d="M 29.5,194.5 C 24.2599,193.551 18.9265,193.218 13.5,193.5C 13.5,195.167 13.5,196.833 13.5,198.5C 12.5386,196.735 12.2053,194.735 12.5,192.5C 18.5982,191.883 24.2649,192.55 29.5,194.5 Z"/></g>
<g><path style="opacity:1" fill="#9ac5c6" d="M 29.5,195.5 C 30.5375,196.93 31.2041,198.597 31.5,200.5C 29.7868,199.365 29.1201,197.698 29.5,195.5 Z"/></g>
<g><path style="opacity:1" fill="#d0e4eb" d="M 63.5,189.5 C 64.6408,192.64 64.8075,195.973 64,199.5C 63.34,201.324 62.1733,202.657 60.5,203.5C 62.9579,199.217 63.9579,194.551 63.5,189.5 Z"/></g>
<g><path style="opacity:1" fill="#80b2b3" d="M 13.5,200.5 C 14.5375,201.93 15.2041,203.597 15.5,205.5C 13.7868,204.365 13.1201,202.698 13.5,200.5 Z"/></g>
<g><path style="opacity:1" fill="#67a1a8" d="M 36.5,206.5 C 38.0269,206.427 39.0269,207.094 39.5,208.5C 37.9731,208.573 36.9731,207.906 36.5,206.5 Z"/></g>
<g><path style="opacity:1" fill="#9cc1ca" d="M 39.5,208.5 C 43.1352,209.114 46.8019,209.448 50.5,209.5C 46.7104,210.902 43.0437,210.569 39.5,208.5 Z"/></g>
<g><path style="opacity:1" fill="#498b90" d="M 79.5,202.5 C 79.013,206.474 77.6797,210.141 75.5,213.5C 75.0431,214.298 74.3764,214.631 73.5,214.5C 75.1384,210.23 77.1384,206.23 79.5,202.5 Z"/></g>
<g><path style="opacity:1" fill="#4a8c95" d="M 59.5,224.5 C 58.653,225.966 57.3197,226.8 55.5,227C 50.3158,227.816 45.3158,227.65 40.5,226.5C 46.9859,226.919 53.3192,226.252 59.5,224.5 Z"/></g>
</svg>
