<?xml version="1.0" encoding="UTF-8"?>
<!DOCTYPE svg PUBLIC "-//W3C//DTD SVG 1.1//EN" "http://www.w3.org/Graphics/SVG/1.1/DTD/svg11.dtd">
<svg xmlns="http://www.w3.org/2000/svg" version="1.1" width="192px" height="279px" style="shape-rendering:geometricPrecision; text-rendering:geometricPrecision; image-rendering:optimizeQuality; fill-rule:evenodd; clip-rule:evenodd" xmlns:xlink="http://www.w3.org/1999/xlink">
<g><path style="opacity:1" fill="#fcf2ee" d="M -0.5,-0.5 C 63.5,-0.5 127.5,-0.5 191.5,-0.5C 191.5,92.5 191.5,185.5 191.5,278.5C 127.5,278.5 63.5,278.5 -0.5,278.5C -0.5,185.5 -0.5,92.5 -0.5,-0.5 Z"/></g>
<g><path style="opacity:1" fill="#d98c91" d="M 122.5,48.5 C 119.098,48.3424 115.764,48.6758 112.5,49.5C 112.611,48.8826 112.944,48.3826 113.5,48C 116.696,47.1955 119.696,47.3622 122.5,48.5 Z"/></g>
<g><path style="opacity:1" fill="#d01f42" d="M 86.5,59.5 C 88.8676,69.0024 89.8676,78.6691 89.5,88.5C 88.6586,90.3792 88.3253,92.3792 88.5,94.5C 87.4625,95.9303 86.7959,97.597 86.5,99.5C 84.5469,105.751 80.5469,110.084 74.5,112.5C 70.4862,112.666 66.4862,112.499 62.5,112C 60.2055,109.03 57.8721,106.03 55.5,103C 53.4817,102.495 51.4817,101.995 49.5,101.5C 48.4986,98.8284 47.4986,96.1618 46.5,93.5C 46.3257,86.4648 46.6591,79.4648 47.5,72.5C 49.0765,69.6478 50.5765,66.6478 52,63.5C 54.1831,61.0929 56.3497,58.7596 58.5,56.5C 60.7488,55.9202 62.4154,54.5869 63.5,52.5C 63.5,51.8333 63.8333,51.5 64.5,51.5C 66.0269,51.573 67.0269,50.9063 67.5,49.5C 77.0655,46.1189 83.3989,49.4522 86.5,59.5 Z"/></g>
<g><path style="opacity:1" fill="#ab192a" d="M 122.5,48.5 C 132.945,53.6133 140.279,61.6133 144.5,72.5C 146.022,78.0452 146.688,83.7119 146.5,89.5C 145.485,95.5434 143.318,101.21 140,106.5C 139.292,107.381 138.458,108.047 137.5,108.5C 132.574,109.149 128.241,110.483 124.5,112.5C 123.167,112.333 121.833,112.167 120.5,112C 120.833,111.667 121.167,111.333 121.5,111C 120.128,110.598 118.795,110.098 117.5,109.5C 115.872,110.535 114.205,110.535 112.5,109.5C 110.115,107.116 108.115,104.45 106.5,101.5C 105.871,98.6027 104.871,95.936 103.5,93.5C 102.539,91.7354 102.205,89.7354 102.5,87.5C 102.45,79.7638 103.117,72.0972 104.5,64.5C 104.263,63.209 104.596,62.209 105.5,61.5C 107.074,59.8984 107.741,57.8984 107.5,55.5C 108.906,55.0269 109.573,54.0269 109.5,52.5C 110.167,51.1667 111.167,50.1667 112.5,49.5C 115.764,48.6758 119.098,48.3424 122.5,48.5 Z"/></g>
<g><path style="opacity:1" fill="#e7798c" d="M 67.5,49.5 C 67.0269,50.9063 66.0269,51.573 64.5,51.5C 64.9731,50.0937 65.9731,49.427 67.5,49.5 Z"/></g>
<g><path style="opacity:1" fill="#d37a81" d="M 109.5,52.5 C 109.573,54.0269 108.906,55.0269 107.5,55.5C 107.427,53.9731 108.094,52.9731 109.5,52.5 Z"/></g>
<g><path style="opacity:1" fill="#df5e71" d="M 63.5,52.5 C 62.4154,54.5869 60.7488,55.9202 58.5,56.5C 59.5846,54.4131 61.2512,53.0798 63.5,52.5 Z"/></g>
<g><path style="opacity:1" fill="#c75e67" d="M 107.5,55.5 C 107.741,57.8984 107.074,59.8984 105.5,61.5C 105.259,59.1016 105.926,57.1016 107.5,55.5 Z"/></g>
<g><path style="opacity:1" fill="#eea1ab" d="M 86.5,59.5 C 88.7183,63.4342 89.885,67.7675 90,72.5C 90.8174,78.0164 90.6507,83.3497 89.5,88.5C 89.8676,78.6691 88.8676,69.0024 86.5,59.5 Z"/></g>
<g><path style="opacity:1" fill="#e6b7ba" d="M 104.5,64.5 C 103.117,72.0972 102.45,79.7638 102.5,87.5C 101.352,83.0189 101.185,78.3522 102,73.5C 102.204,70.2026 103.037,67.2026 104.5,64.5 Z"/></g>
<g><path style="opacity:1" fill="#e27285" d="M 47.5,72.5 C 46.6591,79.4648 46.3257,86.4648 46.5,93.5C 45.8353,90.6862 45.502,87.6862 45.5,84.5C 45.2783,80.2032 45.945,76.2032 47.5,72.5 Z"/></g>
<g><path style="opacity:1" fill="#d67f86" d="M 144.5,72.5 C 147.448,77.9345 148.114,83.6012 146.5,89.5C 146.688,83.7119 146.022,78.0452 144.5,72.5 Z"/></g>
<g><path style="opacity:1" fill="#ab1351" d="M 175.5,106.5 C 175.857,110.263 176.69,113.93 178,117.5C 178.499,121.486 178.666,125.486 178.5,129.5C 176.967,138.681 172.3,145.681 164.5,150.5C 162.62,150.229 161.287,150.896 160.5,152.5C 151.415,154.959 144.748,151.959 140.5,143.5C 142.017,143.489 143.184,142.823 144,141.5C 144.49,142.793 144.657,144.127 144.5,145.5C 146.564,145.687 148.564,146.187 150.5,147C 151.833,148.333 151.833,149.667 150.5,151C 155.67,152.225 160.004,150.891 163.5,147C 161.893,145.951 161.227,144.451 161.5,142.5C 163.5,142.5 165.5,142.5 167.5,142.5C 167.5,139.833 167.5,137.167 167.5,134.5C 170.417,133.709 173.25,133.709 176,134.5C 177.339,129.264 177.839,123.93 177.5,118.5C 174.192,119.026 172.026,117.693 171,114.5C 170.517,115.448 170.351,116.448 170.5,117.5C 167.5,117.5 164.5,117.5 161.5,117.5C 161.5,111.167 161.5,104.833 161.5,98.5C 159.856,98.7135 158.356,98.3802 157,97.5C 156.184,98.8228 155.017,99.4894 153.5,99.5C 159.472,92.9084 165.639,92.9084 172,99.5C 173.705,101.577 174.872,103.91 175.5,106.5 Z"/></g>
<g><path style="opacity:1" fill="#e6a4a3" d="M 103.5,93.5 C 104.871,95.936 105.871,98.6027 106.5,101.5C 104.345,99.3826 103.345,96.716 103.5,93.5 Z"/></g>
<g><path style="opacity:1" fill="#f0a1a9" d="M 88.5,94.5 C 88.8799,96.698 88.2132,98.3646 86.5,99.5C 86.7959,97.597 87.4625,95.9303 88.5,94.5 Z"/></g>
<g><path style="opacity:1" fill="#d54059" d="M 49.5,101.5 C 51.4817,101.995 53.4817,102.495 55.5,103C 57.8721,106.03 60.2055,109.03 62.5,112C 66.4862,112.499 70.4862,112.666 74.5,112.5C 63.1009,116.309 54.7676,112.642 49.5,101.5 Z"/></g>
<g><path style="opacity:1" fill="#a9054a" d="M 140.5,143.5 C 136.325,126.355 140.658,111.689 153.5,99.5C 155.017,99.4894 156.184,98.8228 157,97.5C 158.356,98.3802 159.856,98.7135 161.5,98.5C 161.5,104.833 161.5,111.167 161.5,117.5C 164.5,117.5 167.5,117.5 170.5,117.5C 170.351,116.448 170.517,115.448 171,114.5C 172.026,117.693 174.192,119.026 177.5,118.5C 177.839,123.93 177.339,129.264 176,134.5C 173.25,133.709 170.417,133.709 167.5,134.5C 167.5,137.167 167.5,139.833 167.5,142.5C 165.5,142.5 163.5,142.5 161.5,142.5C 161.227,144.451 161.893,145.951 163.5,147C 160.004,150.891 155.67,152.225 150.5,151C 151.833,149.667 151.833,148.333 150.5,147C 148.564,146.187 146.564,145.687 144.5,145.5C 144.657,144.127 144.49,142.793 144,141.5C 143.184,142.823 142.017,143.489 140.5,143.5 Z"/></g>
<g><path style="opacity:1" fill="#e05b25" d="M 45.5,108.5 C 45.427,110.027 46.0937,111.027 47.5,111.5C 48.6737,112.514 49.3404,113.847 49.5,115.5C 50.2556,119.767 51.589,123.767 53.5,127.5C 53.5,128.167 53.5,128.833 53.5,129.5C 53.7793,134.327 53.1126,138.993 51.5,143.5C 46.8041,151.799 39.8041,154.465 30.5,151.5C 21.5002,147.325 16.0002,140.325 14,130.5C 11.2406,116.447 15.0739,104.613 25.5,95C 35.1568,94.7888 41.8234,99.2888 45.5,108.5 Z"/></g>
<g><path style="opacity:1" fill="#eb9067" d="M 45.5,108.5 C 46.9063,108.973 47.573,109.973 47.5,111.5C 46.0937,111.027 45.427,110.027 45.5,108.5 Z"/></g>
<g><path style="opacity:1" fill="#ba3f49" d="M 137.5,108.5 C 129.422,115.942 121.089,116.275 112.5,109.5C 114.205,110.535 115.872,110.535 117.5,109.5C 118.795,110.098 120.128,110.598 121.5,111C 121.167,111.333 120.833,111.667 120.5,112C 121.833,112.167 123.167,112.333 124.5,112.5C 128.241,110.483 132.574,109.149 137.5,108.5 Z"/></g>
<g><path style="opacity:1" fill="#bc4070" d="M 175.5,106.5 C 179.293,113.83 180.293,121.497 178.5,129.5C 178.666,125.486 178.499,121.486 178,117.5C 176.69,113.93 175.857,110.263 175.5,106.5 Z"/></g>
<g><path style="opacity:1" fill="#ed946a" d="M 49.5,115.5 C 51.8061,119.085 53.1394,123.085 53.5,127.5C 51.589,123.767 50.2556,119.767 49.5,115.5 Z"/></g>
<g><path style="opacity:1" fill="#c65033" d="M 112.5,128.5 C 108.98,128.195 105.647,127.362 102.5,126C 93.5609,123.748 85.8943,125.748 79.5,132C 77.4817,132.505 75.4817,133.005 73.5,133.5C 85.2251,122.271 98.2251,120.604 112.5,128.5 Z"/></g>
<g><path style="opacity:1" fill="#bc2c12" d="M 112.5,128.5 C 113.139,130.76 114.306,132.76 116,134.5C 117.333,135.167 118.667,135.833 120,136.5C 120.124,142.099 122.624,146.099 127.5,148.5C 131.311,153.755 136.311,157.588 142.5,160C 146.868,163.255 149.868,167.422 151.5,172.5C 153.182,178.68 153.848,185.013 153.5,191.5C 153.5,192.167 153.5,192.833 153.5,193.5C 151.896,194.287 151.229,195.62 151.5,197.5C 147.679,206.654 141.013,212.654 131.5,215.5C 124.132,215.683 116.799,215.35 109.5,214.5C 108.508,214.672 107.842,214.338 107.5,213.5C 105.824,211.166 103.491,210.166 100.5,210.5C 96.8183,210.335 93.1516,210.501 89.5,211C 88.944,211.383 88.6107,211.883 88.5,212.5C 85.5431,213.655 82.5431,214.655 79.5,215.5C 71.3529,215.938 63.3529,215.271 55.5,213.5C 46.4551,208.439 40.7885,200.772 38.5,190.5C 38.1497,185.009 38.8164,179.676 40.5,174.5C 44.2736,173.062 46.6069,170.395 47.5,166.5C 49.8333,166.5 52.1667,166.5 54.5,166.5C 54.3367,164.143 54.5034,161.81 55,159.5C 55.414,159.957 55.914,160.291 56.5,160.5C 61.2594,158.758 63.5927,155.425 63.5,150.5C 65.2312,148.861 67.0645,147.194 69,145.5C 70.5064,141.453 72.0064,137.453 73.5,133.5C 75.4817,133.005 77.4817,132.505 79.5,132C 85.8943,125.748 93.5609,123.748 102.5,126C 105.647,127.362 108.98,128.195 112.5,128.5 Z"/></g>
<g><path style="opacity:1" fill="#bf3e23" d="M 112.5,128.5 C 120.404,132.969 125.404,139.636 127.5,148.5C 122.624,146.099 120.124,142.099 120,136.5C 118.667,135.833 117.333,135.167 116,134.5C 114.306,132.76 113.139,130.76 112.5,128.5 Z"/></g>
<g><path style="opacity:1" fill="#f9ccb6" d="M 53.5,129.5 C 54.6408,132.64 54.8075,135.973 54,139.5C 53.7996,141.32 52.9663,142.653 51.5,143.5C 53.1126,138.993 53.7793,134.327 53.5,129.5 Z"/></g>
<g><path style="opacity:1" fill="#c44b2f" d="M 73.5,133.5 C 72.0064,137.453 70.5064,141.453 69,145.5C 67.0645,147.194 65.2312,148.861 63.5,150.5C 65.2152,143.807 68.5485,138.14 73.5,133.5 Z"/></g>
<g><path style="opacity:1" fill="#d795a6" d="M 164.5,150.5 C 163.486,151.674 162.153,152.34 160.5,152.5C 161.287,150.896 162.62,150.229 164.5,150.5 Z"/></g>
<g><path style="opacity:1" fill="#bd3b1f" d="M 63.5,150.5 C 63.5927,155.425 61.2594,158.758 56.5,160.5C 55.914,160.291 55.414,159.957 55,159.5C 54.5034,161.81 54.3367,164.143 54.5,166.5C 52.1667,166.5 49.8333,166.5 47.5,166.5C 46.6069,170.395 44.2736,173.062 40.5,174.5C 40.5,173.833 40.5,173.167 40.5,172.5C 42.609,167.818 45.609,163.651 49.5,160C 54.5224,157.282 59.1891,154.116 63.5,150.5 Z"/></g>
<g><path style="opacity:1" fill="#da7d67" d="M 151.5,172.5 C 152.793,173.842 153.626,175.509 154,177.5C 154.815,182.352 154.648,187.019 153.5,191.5C 153.848,185.013 153.182,178.68 151.5,172.5 Z"/></g>
<g><path style="opacity:1" fill="#df9b86" d="M 40.5,172.5 C 40.5,173.167 40.5,173.833 40.5,174.5C 38.8164,179.676 38.1497,185.009 38.5,190.5C 36.8531,184.272 37.5197,178.272 40.5,172.5 Z"/></g>
<g><path style="opacity:1" fill="#dd7d65" d="M 153.5,193.5 C 153.34,195.153 152.674,196.486 151.5,197.5C 151.229,195.62 151.896,194.287 153.5,193.5 Z"/></g>
<g><path style="opacity:1" fill="#e29e88" d="M 100.5,210.5 C 100.5,210.833 100.5,211.167 100.5,211.5C 96.4338,211.307 92.4338,211.64 88.5,212.5C 88.6107,211.883 88.944,211.383 89.5,211C 93.1516,210.501 96.8183,210.335 100.5,210.5 Z"/></g>
<g><path style="opacity:1" fill="#cc6549" d="M 100.5,211.5 C 100.5,211.167 100.5,210.833 100.5,210.5C 103.491,210.166 105.824,211.166 107.5,213.5C 105.167,212.833 102.833,212.167 100.5,211.5 Z"/></g>
<g><path style="opacity:1" fill="#cf6045" d="M 55.5,213.5 C 63.3529,215.271 71.3529,215.938 79.5,215.5C 71.1934,218.624 63.1934,217.957 55.5,213.5 Z"/></g>
<g><path style="opacity:1" fill="#cf5f45" d="M 109.5,214.5 C 116.799,215.35 124.132,215.683 131.5,215.5C 124.019,218.426 116.686,218.093 109.5,214.5 Z"/></g>
</svg>
