<?xml version="1.0" encoding="UTF-8"?>
<!DOCTYPE svg PUBLIC "-//W3C//DTD SVG 1.1//EN" "http://www.w3.org/Graphics/SVG/1.1/DTD/svg11.dtd">
<svg xmlns="http://www.w3.org/2000/svg" version="1.1" width="192px" height="279px" style="shape-rendering:geometricPrecision; text-rendering:geometricPrecision; image-rendering:optimizeQuality; fill-rule:evenodd; clip-rule:evenodd" xmlns:xlink="http://www.w3.org/1999/xlink">
<g><path style="opacity:1" fill="#f7f4ed" d="M -0.5,-0.5 C 63.5,-0.5 127.5,-0.5 191.5,-0.5C 191.5,92.5 191.5,185.5 191.5,278.5C 127.5,278.5 63.5,278.5 -0.5,278.5C -0.5,185.5 -0.5,92.5 -0.5,-0.5 Z"/></g>
<g><path style="opacity:1" fill="#f4f0eb" d="M 88.5,96.5 C 93.777,95.9312 98.777,96.7645 103.5,99C 109,104.5 114.5,110 120,115.5C 125.864,109.301 132.031,103.468 138.5,98C 143.833,96 149.167,96 154.5,98C 164.971,107.47 175.137,117.303 185,127.5C 186.576,133.388 186.909,139.388 186,145.5C 176.833,156 167,165.833 156.5,175C 149.833,175.667 143.167,175.667 136.5,175C 130.905,169.949 125.405,164.782 120,159.5C 114.833,164.667 109.667,169.833 104.5,175C 97.5,175.667 90.5,175.667 83.5,175C 78.3333,169.833 73.1667,164.667 68,159.5C 62.8017,165.033 57.3017,170.2 51.5,175C 44.0598,175.928 36.7265,175.594 29.5,174C 21,165.5 12.5,157 4,148.5C 3.33333,141.167 3.33333,133.833 4,126.5C 13.5295,116.636 23.3629,107.136 33.5,98C 38.5,97.3333 43.5,97.3333 48.5,98C 55.2766,102.94 61.6099,108.44 67.5,114.5C 73.9559,107.699 80.9559,101.699 88.5,96.5 Z"/></g>
<g><path style="opacity:1" fill="#fefdfd" d="M 38.5,99.5 C 40.1992,99.3398 41.8659,99.5065 43.5,100C 51.4011,108.069 59.4011,115.903 67.5,123.5C 75.6524,115.848 83.6524,108.015 91.5,100C 93.1667,99.3333 94.8333,99.3333 96.5,100C 104.333,107.833 112.167,115.667 120,123.5C 127.5,116 135,108.5 142.5,101C 144.365,99.6986 146.365,99.3653 148.5,100C 159.971,110.47 171.137,121.303 182,132.5C 182.667,134.167 182.667,135.833 182,137.5C 170.593,149.409 158.76,160.743 146.5,171.5C 137.561,163.898 128.894,155.898 120.5,147.5C 112.681,154.819 105.014,162.319 97.5,170C 95.1667,172 92.8333,172 90.5,170C 82.9857,162.319 75.319,154.819 67.5,147.5C 59.3476,155.152 51.3476,162.985 43.5,171C 42.1667,171.667 40.8333,171.667 39.5,171C 29.6525,160.986 19.6525,151.152 9.5,141.5C 7.51151,139.691 6.17817,137.524 5.5,135C 5.66667,134.167 5.83333,133.333 6,132.5C 17.0354,121.632 27.8688,110.632 38.5,99.5 Z"/></g>
<g><path style="opacity:1" fill="#fbf3ed" d="M 40.5,103.5 C 49.0917,110.422 57.0917,118.089 64.5,126.5C 61.7518,129.24 59.4185,132.24 57.5,135.5C 59.0662,138.575 61.2329,141.242 64,143.5C 64.6667,144.167 64.6667,144.833 64,145.5C 56.3216,152.513 48.6549,159.513 41,166.5C 30.0276,156.695 19.5276,146.361 9.5,135.5C 19.8547,124.813 30.188,114.146 40.5,103.5 Z"/></g>
<g><path style="opacity:1" fill="#fbf3ee" d="M 93.5,103.5 C 101.32,110.82 108.986,118.32 116.5,126C 114.065,128.757 112.065,131.757 110.5,135C 111.505,138.019 113.338,140.519 116,142.5C 116.667,143.5 116.667,144.5 116,145.5C 108.667,152.833 101.333,160.167 94,167.5C 83.1667,156.667 72.3333,145.833 61.5,135C 72.6721,124.994 83.3388,114.494 93.5,103.5 Z"/></g>
<g><path style="opacity:1" fill="#fbf3ed" d="M 145.5,103.5 C 157.093,113.425 168.093,124.091 178.5,135.5C 168.468,146.533 157.801,156.866 146.5,166.5C 135.199,156.866 124.532,146.533 114.5,135.5C 124.855,124.813 135.188,114.146 145.5,103.5 Z"/></g>
<g><path style="opacity:1" fill="#df5924" d="M 102.5,133.5 C 101.206,132.71 100.039,131.71 99,130.5C 96.6506,133.017 94.1506,135.35 91.5,137.5C 89.8436,133.474 87.5102,132.807 84.5,135.5C 80.9246,126.596 83.758,121.263 93,119.5C 101.922,120.358 105.089,125.025 102.5,133.5 Z"/></g>
<g><path style="opacity:1" fill="#aa1928" d="M 36.5,121.5 C 39.8333,121.5 43.1667,121.5 46.5,121.5C 46.5,124.5 46.5,127.5 46.5,130.5C 43.1667,130.5 39.8333,130.5 36.5,130.5C 36.5,127.5 36.5,124.5 36.5,121.5 Z"/></g>
<g><path style="opacity:1" fill="#d02845" d="M 138.5,130.5 C 138.02,127.315 138.686,124.481 140.5,122C 141.833,121.333 143.167,121.333 144.5,122C 147.305,128.806 145.305,131.639 138.5,130.5 Z"/></g>
<g><path style="opacity:1" fill="#ad242e" d="M 154.5,130.5 C 147.695,131.639 145.695,128.806 148.5,122C 150.701,121.175 152.534,121.675 154,123.5C 154.497,125.81 154.663,128.143 154.5,130.5 Z"/></g>
<g><path style="opacity:1" fill="#f1c3b3" d="M 36.5,121.5 C 36.5,124.5 36.5,127.5 36.5,130.5C 33.5,130.5 30.5,130.5 27.5,130.5C 29.9479,129.527 32.6146,129.194 35.5,129.5C 35.1936,126.615 35.5269,123.948 36.5,121.5 Z"/></g>
<g><path style="opacity:1" fill="#bf2e14" d="M 36.5,130.5 C 39.8333,130.5 43.1667,130.5 46.5,130.5C 46.5,133.833 46.5,137.167 46.5,140.5C 46.5,143.5 46.5,146.5 46.5,149.5C 43.1667,149.5 39.8333,149.5 36.5,149.5C 36.5,146.5 36.5,143.5 36.5,140.5C 36.5,137.167 36.5,133.833 36.5,130.5 Z"/></g>
<g><path style="opacity:1" fill="#e2612c" d="M 138.5,130.5 C 139.39,132.782 139.556,135.115 139,137.5C 135.572,138.618 133.405,137.284 132.5,133.5C 132.975,128.626 134.975,127.626 138.5,130.5 Z"/></g>
<g><path style="opacity:1" fill="#b12354" d="M 154.5,130.5 C 156.357,127.982 158.19,127.982 160,130.5C 160.782,133.257 160.282,135.757 158.5,138C 156.888,138.72 155.388,138.554 154,137.5C 153.444,135.115 153.61,132.782 154.5,130.5 Z"/></g>
<g><path style="opacity:1" fill="#df5922" d="M 27.5,130.5 C 30.5,130.5 33.5,130.5 36.5,130.5C 36.5,133.833 36.5,137.167 36.5,140.5C 33.5,140.5 30.5,140.5 27.5,140.5C 27.5,137.167 27.5,133.833 27.5,130.5 Z"/></g>
<g><path style="opacity:1" fill="#ab0a4a" d="M 46.5,130.5 C 49.5,130.5 52.5,130.5 55.5,130.5C 55.5,133.833 55.5,137.167 55.5,140.5C 52.5,140.5 49.5,140.5 46.5,140.5C 46.5,137.167 46.5,133.833 46.5,130.5 Z"/></g>
<g><path style="opacity:1" fill="#9c0a43" d="M 102.5,133.5 C 105.167,136.833 108.167,139.833 111.5,142.5C 107.167,143.167 102.833,143.833 98.5,144.5C 96.8523,143.19 95.1856,141.857 93.5,140.5C 92.4305,141.91 91.0972,142.91 89.5,143.5C 85.2984,143.817 81.2984,143.483 77.5,142.5C 79.5272,139.806 81.8605,137.473 84.5,135.5C 87.5102,132.807 89.8436,133.474 91.5,137.5C 94.1506,135.35 96.6506,133.017 99,130.5C 100.039,131.71 101.206,132.71 102.5,133.5 Z"/></g>
<g><path style="opacity:1" fill="#c13318" d="M 144.5,133.5 C 146.655,133.372 148.655,133.872 150.5,135C 151.958,137.46 153.791,139.627 156,141.5C 156.92,144.308 156.087,146.475 153.5,148C 148.833,148.667 144.167,148.667 139.5,148C 137.556,145.847 137.056,143.347 138,140.5C 140.4,138.271 142.567,135.937 144.5,133.5 Z"/></g>
<g><path style="opacity:1" fill="#cc1d41" d="M 98.5,144.5 C 98.8333,145.5 99.5,146.167 100.5,146.5C 95.8333,147.833 91.1667,147.833 86.5,146.5C 87.5,146.167 88.1667,145.5 88.5,144.5C 89.1667,144.5 89.5,144.167 89.5,143.5C 91.0972,142.91 92.4305,141.91 93.5,140.5C 95.1856,141.857 96.8523,143.19 98.5,144.5 Z"/></g>
<g><path style="opacity:1" fill="#c86a8b" d="M 77.5,142.5 C 81.2984,143.483 85.2984,143.817 89.5,143.5C 89.5,144.167 89.1667,144.5 88.5,144.5C 84.4454,144.824 80.4454,144.491 76.5,143.5C 76.6236,142.893 76.9569,142.56 77.5,142.5 Z"/></g>
<g><path style="opacity:1" fill="#ca708f" d="M 111.5,142.5 C 112.043,142.56 112.376,142.893 112.5,143.5C 107.88,144.493 103.214,144.827 98.5,144.5C 102.833,143.833 107.167,143.167 111.5,142.5 Z"/></g>
<g><path style="opacity:1" fill="#e1697a" d="M 86.5,146.5 C 91.1667,147.833 95.8333,147.833 100.5,146.5C 101.043,146.56 101.376,146.893 101.5,147.5C 96.1667,148.833 90.8333,148.833 85.5,147.5C 85.6236,146.893 85.9569,146.56 86.5,146.5 Z"/></g>
</svg>
