<?xml version="1.0" encoding="UTF-8"?>
<!DOCTYPE svg PUBLIC "-//W3C//DTD SVG 1.1//EN" "http://www.w3.org/Graphics/SVG/1.1/DTD/svg11.dtd">
<svg xmlns="http://www.w3.org/2000/svg" version="1.1" width="192px" height="279px" style="shape-rendering:geometricPrecision; text-rendering:geometricPrecision; image-rendering:optimizeQuality; fill-rule:evenodd; clip-rule:evenodd" xmlns:xlink="http://www.w3.org/1999/xlink">
<g><path style="opacity:1" fill="#fcf2ef" d="M -0.5,-0.5 C 63.5,-0.5 127.5,-0.5 191.5,-0.5C 191.5,92.5 191.5,185.5 191.5,278.5C 127.5,278.5 63.5,278.5 -0.5,278.5C -0.5,185.5 -0.5,92.5 -0.5,-0.5 Z"/></g>
<g><path style="opacity:1" fill="#fceae0" d="M 114.5,66.5 C 109.299,64.433 103.965,62.7664 98.5,61.5C 96.0221,60.8359 93.3555,60.5025 90.5,60.5C 86.5313,60.2942 82.8646,60.9608 79.5,62.5C 51.9857,70.8121 38.6524,89.4787 39.5,118.5C 36.3088,106.582 38.1421,95.2485 45,84.5C 45.7504,83.8742 46.5838,83.3742 47.5,83C 46.5494,82.2825 46.3828,81.4491 47,80.5C 61.2267,62.5263 80.06,55.6929 103.5,60C 106.604,62.8539 110.27,64.0205 114.5,63.5C 114.5,64.5 114.5,65.5 114.5,66.5 Z"/></g>
<g><path style="opacity:1" fill="#f4ac87" d="M 98.5,61.5 C 92.1308,61.347 85.7974,61.6803 79.5,62.5C 82.8646,60.9608 86.5313,60.2942 90.5,60.5C 93.3555,60.5025 96.0221,60.8359 98.5,61.5 Z"/></g>
<g><path style="opacity:1" fill="#df5923" d="M 98.5,61.5 C 103.965,62.7664 109.299,64.433 114.5,66.5C 124.139,71.4723 131.472,78.8056 136.5,88.5C 136.34,90.1992 136.506,91.8659 137,93.5C 137.671,94.2524 138.504,94.5858 139.5,94.5C 143.944,107.735 143.277,120.735 137.5,133.5C 132.781,129.11 128.115,124.777 123.5,120.5C 122.121,117.927 120.121,116.427 117.5,116C 109.631,123.702 101.964,131.535 94.5,139.5C 90.546,143.116 86.546,146.783 82.5,150.5C 75.1667,143.5 67.8333,136.5 60.5,129.5C 56.4799,133.189 52.4799,136.855 48.5,140.5C 43.9584,133.894 40.9584,126.56 39.5,118.5C 38.6524,89.4787 51.9857,70.8121 79.5,62.5C 85.7974,61.6803 92.1308,61.347 98.5,61.5 Z"/></g>
<g><path style="opacity:1" fill="#e47a4c" d="M 136.5,88.5 C 138.008,90.1815 139.008,92.1815 139.5,94.5C 138.504,94.5858 137.671,94.2524 137,93.5C 136.506,91.8659 136.34,90.1992 136.5,88.5 Z"/></g>
<g><path style="opacity:1" fill="#9a0242" d="M 123.5,120.5 C 128.115,124.777 132.781,129.11 137.5,133.5C 153.833,150.167 170.167,166.833 186.5,183.5C 161.81,182.843 137.477,183.51 113.5,185.5C 112.115,183.117 110.115,181.45 107.5,180.5C 103.192,175.594 98.3588,171.26 93,167.5C 89.6052,170.117 86.1052,172.617 82.5,175C 81.6634,176.011 81.33,177.178 81.5,178.5C 80.448,178.351 79.448,178.517 78.5,179C 76.8863,181.127 74.8863,182.627 72.5,183.5C 50.327,183.831 28.327,183.497 6.5,182.5C 20.8333,168.833 34.8333,154.833 48.5,140.5C 52.4799,136.855 56.4799,133.189 60.5,129.5C 67.8333,136.5 75.1667,143.5 82.5,150.5C 86.546,146.783 90.546,143.116 94.5,139.5C 98.3204,139.238 102.32,139.238 106.5,139.5C 106.335,135.818 106.501,132.152 107,128.5C 110.468,124.189 114.635,120.855 119.5,118.5C 120.524,119.853 121.857,120.52 123.5,120.5 Z"/></g>
<g><path style="opacity:1" fill="#a00a3b" d="M 123.5,120.5 C 121.857,120.52 120.524,119.853 119.5,118.5C 114.635,120.855 110.468,124.189 107,128.5C 106.501,132.152 106.335,135.818 106.5,139.5C 102.32,139.238 98.3204,139.238 94.5,139.5C 101.964,131.535 109.631,123.702 117.5,116C 120.121,116.427 122.121,117.927 123.5,120.5 Z"/></g>
<g><path style="opacity:1" fill="#ce1c40" d="M 107.5,180.5 C 107.5,181.833 107.5,183.167 107.5,184.5C 108.833,184.5 110.167,184.5 111.5,184.5C 111.461,186.359 112.294,187.692 114,188.5C 114.495,190.473 114.662,192.473 114.5,194.5C 116.5,194.5 118.5,194.5 120.5,194.5C 120.5,196.5 120.5,198.5 120.5,200.5C 100.793,200.924 81.1261,200.424 61.5,199C 65.7628,194.968 69.4295,190.468 72.5,185.5C 72.5,184.833 72.5,184.167 72.5,183.5C 74.8863,182.627 76.8863,181.127 78.5,179C 79.448,178.517 80.448,178.351 81.5,178.5C 81.33,177.178 81.6634,176.011 82.5,175C 86.1052,172.617 89.6052,170.117 93,167.5C 98.3588,171.26 103.192,175.594 107.5,180.5 Z"/></g>
<g><path style="opacity:1" fill="#e29cb2" d="M 6.5,182.5 C 28.327,183.497 50.327,183.831 72.5,183.5C 72.5,184.167 72.5,184.833 72.5,185.5C 72.1667,185.5 71.8333,185.5 71.5,185.5C 49.6629,184.833 27.6629,184.167 5.5,183.5C 5.62358,182.893 5.95691,182.56 6.5,182.5 Z"/></g>
<g><path style="opacity:1" fill="#dc97ad" d="M 186.5,183.5 C 162.5,184.167 138.5,184.833 114.5,185.5C 114.167,185.5 113.833,185.5 113.5,185.5C 137.477,183.51 161.81,182.843 186.5,183.5 Z"/></g>
<g><path style="opacity:1" fill="#cf2148" d="M 107.5,180.5 C 110.115,181.45 112.115,183.117 113.5,185.5C 113.833,185.5 114.167,185.5 114.5,185.5C 120.177,191.176 126.177,196.509 132.5,201.5C 119.517,202.833 106.184,203.499 92.5,203.5C 78.9958,203.5 65.6624,203.167 52.5,202.5C 58.5097,196.491 64.8431,190.825 71.5,185.5C 71.8333,185.5 72.1667,185.5 72.5,185.5C 69.4295,190.468 65.7628,194.968 61.5,199C 81.1261,200.424 100.793,200.924 120.5,200.5C 120.5,198.5 120.5,196.5 120.5,194.5C 118.5,194.5 116.5,194.5 114.5,194.5C 114.662,192.473 114.495,190.473 114,188.5C 112.294,187.692 111.461,186.359 111.5,184.5C 110.167,184.5 108.833,184.5 107.5,184.5C 107.5,183.167 107.5,181.833 107.5,180.5 Z"/></g>
<g><path style="opacity:1" fill="#df687f" d="M 132.5,201.5 C 133.906,201.973 134.573,202.973 134.5,204.5C 106.48,205.158 78.8132,204.492 51.5,202.5C 51.8333,202.5 52.1667,202.5 52.5,202.5C 65.6624,203.167 78.9958,203.5 92.5,203.5C 106.184,203.499 119.517,202.833 132.5,201.5 Z"/></g>
<g><path style="opacity:1" fill="#f9e0e0" d="M 51.5,202.5 C 78.8132,204.492 106.48,205.158 134.5,204.5C 106.672,205.498 78.6716,205.831 50.5,205.5C 50.2627,204.209 50.596,203.209 51.5,202.5 Z"/></g>
</svg>
