<?xml version="1.0" encoding="UTF-8"?>
<!DOCTYPE svg PUBLIC "-//W3C//DTD SVG 1.1//EN" "http://www.w3.org/Graphics/SVG/1.1/DTD/svg11.dtd">
<svg xmlns="http://www.w3.org/2000/svg" version="1.1" width="192px" height="279px" style="shape-rendering:geometricPrecision; text-rendering:geometricPrecision; image-rendering:optimizeQuality; fill-rule:evenodd; clip-rule:evenodd" xmlns:xlink="http://www.w3.org/1999/xlink">
<g><path style="opacity:1" fill="#fcad49" d="M -0.5,-0.5 C 63.5,-0.5 127.5,-0.5 191.5,-0.5C 191.5,92.5 191.5,185.5 191.5,278.5C 127.5,278.5 63.5,278.5 -0.5,278.5C -0.5,185.5 -0.5,92.5 -0.5,-0.5 Z"/></g>
<g><path style="opacity:1" fill="#fefefb" d="M 69.5,104.5 C 69.5,106.5 69.5,108.5 69.5,110.5C 60.1667,110.5 50.8333,110.5 41.5,110.5C 41.5,94.5 41.5,78.5 41.5,62.5C 43.5,62.5 45.5,62.5 47.5,62.5C 47.5,76.5 47.5,90.5 47.5,104.5C 54.8333,104.5 62.1667,104.5 69.5,104.5 Z"/></g>
<g><path style="opacity:1" fill="#fdecd2" d="M 69.5,104.5 C 62.1667,104.5 54.8333,104.5 47.5,104.5C 47.5,90.5 47.5,76.5 47.5,62.5C 45.5,62.5 43.5,62.5 41.5,62.5C 41.5,78.5 41.5,94.5 41.5,110.5C 41.1667,110.5 40.8333,110.5 40.5,110.5C 40.5,94.1667 40.5,77.8333 40.5,61.5C 43.1667,61.5 45.8333,61.5 48.5,61.5C 48.5,75.5 48.5,89.5 48.5,103.5C 55.6866,103.175 62.6866,103.509 69.5,104.5 Z"/></g>
<g><path style="opacity:1" fill="#fcfaf6" d="M 156.5,62.5 C 156.5,64.5 156.5,66.5 156.5,68.5C 147.651,68.1736 138.984,68.507 130.5,69.5C 130.5,73.8333 130.5,78.1667 130.5,82.5C 138.5,82.5 146.5,82.5 154.5,82.5C 154.5,85.1667 154.5,87.8333 154.5,90.5C 146.5,90.5 138.5,90.5 130.5,90.5C 130.5,94.8333 130.5,99.1667 130.5,103.5C 139.682,103.173 148.682,103.507 157.5,104.5C 157.5,106.5 157.5,108.5 157.5,110.5C 145.833,110.5 134.167,110.5 122.5,110.5C 122.5,94.5 122.5,78.5 122.5,62.5C 133.833,62.5 145.167,62.5 156.5,62.5 Z"/></g>
<g><path style="opacity:1" fill="#fdd6a5" d="M 157.5,62.5 C 157.167,62.5 156.833,62.5 156.5,62.5C 145.167,62.5 133.833,62.5 122.5,62.5C 122.5,78.5 122.5,94.5 122.5,110.5C 122.5,110.833 122.5,111.167 122.5,111.5C 121.503,95.0084 121.17,78.3417 121.5,61.5C 133.678,61.1716 145.678,61.5049 157.5,62.5 Z"/></g>
<g><path style="opacity:1" fill="#fcead0" d="M 156.5,62.5 C 156.833,62.5 157.167,62.5 157.5,62.5C 157.5,64.8333 157.5,67.1667 157.5,69.5C 148.5,69.5 139.5,69.5 130.5,69.5C 138.984,68.507 147.651,68.1736 156.5,68.5C 156.5,66.5 156.5,64.5 156.5,62.5 Z"/></g>
<g><path style="opacity:1" fill="#fbb55c" d="M 130.5,69.5 C 139.5,69.5 148.5,69.5 157.5,69.5C 149.016,70.493 140.349,70.8264 131.5,70.5C 131.5,74.1667 131.5,77.8333 131.5,81.5C 139.352,81.1746 147.018,81.508 154.5,82.5C 146.5,82.5 138.5,82.5 130.5,82.5C 130.5,78.1667 130.5,73.8333 130.5,69.5 Z"/></g>
<g><path style="opacity:1" fill="#faddb5" d="M 69.5,104.5 C 70.4682,106.607 70.8016,108.941 70.5,111.5C 60.3194,111.827 50.3194,111.494 40.5,110.5C 40.8333,110.5 41.1667,110.5 41.5,110.5C 50.8333,110.5 60.1667,110.5 69.5,110.5C 69.5,108.5 69.5,106.5 69.5,104.5 Z"/></g>
<g><path style="opacity:1" fill="#fde1c2" d="M 157.5,104.5 C 158.468,106.607 158.802,108.941 158.5,111.5C 146.5,111.5 134.5,111.5 122.5,111.5C 122.5,111.167 122.5,110.833 122.5,110.5C 134.167,110.5 145.833,110.5 157.5,110.5C 157.5,108.5 157.5,106.5 157.5,104.5 Z"/></g>
<g><path style="opacity:1" fill="#fdfdfa" d="M 70.5,160.5 C 70.5,162.833 70.5,165.167 70.5,167.5C 61.5,167.5 52.5,167.5 43.5,167.5C 43.5,171.833 43.5,176.167 43.5,180.5C 51.3159,181.492 59.3159,181.826 67.5,181.5C 67.5,183.5 67.5,185.5 67.5,187.5C 59.3159,187.174 51.3159,187.508 43.5,188.5C 43.5,193.167 43.5,197.833 43.5,202.5C 52.8333,202.5 62.1667,202.5 71.5,202.5C 71.5,204.5 71.5,206.5 71.5,208.5C 59.8333,208.5 48.1667,208.5 36.5,208.5C 36.5,192.5 36.5,176.5 36.5,160.5C 47.8333,160.5 59.1667,160.5 70.5,160.5 Z"/></g>
<g><path style="opacity:1" fill="#fddfb3" d="M 147.5,160.5 C 140.5,160.5 133.5,160.5 126.5,160.5C 126.5,176.5 126.5,192.5 126.5,208.5C 128.833,208.5 131.167,208.5 133.5,208.5C 133.181,203.637 133.514,198.97 134.5,194.5C 134.5,199.5 134.5,204.5 134.5,209.5C 131.5,209.5 128.5,209.5 125.5,209.5C 125.5,192.833 125.5,176.167 125.5,159.5C 133.019,159.175 140.352,159.508 147.5,160.5 Z"/></g>
<g><path style="opacity:1" fill="#fcfaf4" d="M 147.5,160.5 C 161.312,161.436 166.979,168.769 164.5,182.5C 162.5,187.833 158.833,191.5 153.5,193.5C 147.225,194.418 140.892,194.751 134.5,194.5C 133.514,198.97 133.181,203.637 133.5,208.5C 131.167,208.5 128.833,208.5 126.5,208.5C 126.5,192.5 126.5,176.5 126.5,160.5C 133.5,160.5 140.5,160.5 147.5,160.5 Z"/></g>
<g><path style="opacity:1" fill="#fcefd1" d="M 70.5,160.5 C 59.1667,160.5 47.8333,160.5 36.5,160.5C 36.5,176.5 36.5,192.5 36.5,208.5C 35.5036,192.675 35.1703,176.675 35.5,160.5C 47.1667,159.167 58.8333,159.167 70.5,160.5 Z"/></g>
<g><path style="opacity:1" fill="#fcbe6f" d="M 70.5,160.5 C 71.4731,162.948 71.8064,165.615 71.5,168.5C 62.5,168.5 53.5,168.5 44.5,168.5C 44.5,172.5 44.5,176.5 44.5,180.5C 44.1667,180.5 43.8333,180.5 43.5,180.5C 43.5,176.167 43.5,171.833 43.5,167.5C 52.5,167.5 61.5,167.5 70.5,167.5C 70.5,165.167 70.5,162.833 70.5,160.5 Z"/></g>
<g><path style="opacity:1" fill="#fcaf4e" d="M 134.5,167.5 C 140.176,167.334 145.843,167.501 151.5,168C 152.729,169.529 154.229,170.696 156,171.5C 158.7,179.946 155.867,185.113 147.5,187C 143.179,187.499 138.846,187.666 134.5,187.5C 134.5,180.833 134.5,174.167 134.5,167.5 Z"/></g>
<g><path style="opacity:1" fill="#fcdeb3" d="M 43.5,180.5 C 43.8333,180.5 44.1667,180.5 44.5,180.5C 52.5,180.5 60.5,180.5 68.5,180.5C 68.5,183.167 68.5,185.833 68.5,188.5C 60.1667,188.5 51.8333,188.5 43.5,188.5C 51.3159,187.508 59.3159,187.174 67.5,187.5C 67.5,185.5 67.5,183.5 67.5,181.5C 59.3159,181.826 51.3159,181.492 43.5,180.5 Z"/></g>
<g><path style="opacity:1" fill="#fac27a" d="M 43.5,188.5 C 51.8333,188.5 60.1667,188.5 68.5,188.5C 60.6841,189.492 52.6841,189.826 44.5,189.5C 44.5,193.5 44.5,197.5 44.5,201.5C 53.6822,201.173 62.6822,201.507 71.5,202.5C 62.1667,202.5 52.8333,202.5 43.5,202.5C 43.5,197.833 43.5,193.167 43.5,188.5 Z"/></g>
<g><path style="opacity:1" fill="#f9bf6e" d="M 164.5,182.5 C 163.833,189.167 160.167,192.833 153.5,193.5C 158.833,191.5 162.5,187.833 164.5,182.5 Z"/></g>
<g><path style="opacity:1" fill="#fdd9a7" d="M 35.5,160.5 C 35.1703,176.675 35.5036,192.675 36.5,208.5C 48.1667,208.5 59.8333,208.5 71.5,208.5C 59.3446,209.495 47.0113,209.829 34.5,209.5C 34.1702,192.991 34.5036,176.658 35.5,160.5 Z"/></g>
</svg>
