<?xml version="1.0" encoding="UTF-8"?>
<!DOCTYPE svg PUBLIC "-//W3C//DTD SVG 1.1//EN" "http://www.w3.org/Graphics/SVG/1.1/DTD/svg11.dtd">
<svg xmlns="http://www.w3.org/2000/svg" version="1.1" width="192px" height="279px" style="shape-rendering:geometricPrecision; text-rendering:geometricPrecision; image-rendering:optimizeQuality; fill-rule:evenodd; clip-rule:evenodd" xmlns:xlink="http://www.w3.org/1999/xlink">
<g><path style="opacity:1" fill="#4f9927" d="M -0.5,-0.5 C 63.5,-0.5 127.5,-0.5 191.5,-0.5C 191.5,92.5 191.5,185.5 191.5,278.5C 127.5,278.5 63.5,278.5 -0.5,278.5C -0.5,185.5 -0.5,92.5 -0.5,-0.5 Z"/></g>
<g><path style="opacity:1" fill="#fcfdfc" d="M 85.5,47.5 C 119.416,46.2809 140.583,61.9476 149,94.5C 151.179,121.986 140.012,141.82 115.5,154C 86.5329,164.121 63.3662,156.621 46,131.5C 32.55,104.489 36.7166,80.6557 58.5,60C 66.5649,53.6317 75.5649,49.465 85.5,47.5 Z"/></g>
<g><path style="opacity:1" fill="#529a2b" d="M 86.5,69.5 C 99.1275,67.4146 108.627,71.7479 115,82.5C 116.079,85.0627 116.579,87.7294 116.5,90.5C 112.818,90.6653 109.152,90.4986 105.5,90C 102.225,81.3645 96.2247,78.6978 87.5,82C 84.4044,84.0287 82.7377,86.862 82.5,90.5C 78.8333,90.5 75.1667,90.5 71.5,90.5C 72.2215,80.445 77.2215,73.445 86.5,69.5 Z"/></g>
<g><path style="opacity:1" fill="#539b2d" d="M 71.5,92.5 C 75.226,92.1774 78.8927,92.5108 82.5,93.5C 85.6367,102.902 91.6367,105.402 100.5,101C 103.428,99.082 105.094,96.4153 105.5,93C 109.152,92.5014 112.818,92.3347 116.5,92.5C 116.192,100.784 112.525,107.117 105.5,111.5C 112.656,116.305 116.322,122.972 116.5,131.5C 112.833,131.5 109.167,131.5 105.5,131.5C 103.781,121.962 98.1147,118.462 88.5,121C 84.55,123.436 82.55,126.936 82.5,131.5C 78.8333,131.5 75.1667,131.5 71.5,131.5C 71.4759,122.887 75.1426,116.22 82.5,111.5C 75.4989,107.172 71.8322,100.839 71.5,92.5 Z"/></g>
<g><path style="opacity:1" fill="#fafcf9" d="M 21.5,182.5 C 29.5417,180.803 36.0417,183.136 41,189.5C 41.6667,199.167 41.6667,208.833 41,218.5C 39.7296,222.77 36.8963,225.27 32.5,226C 24.1985,228.537 18.0318,226.037 14,218.5C 13.3333,209.167 13.3333,199.833 14,190.5C 16.0282,187.308 18.5282,184.641 21.5,182.5 Z"/></g>
<g><path style="opacity:1" fill="#97c17d" d="M 54.5,183.5 C 51.2869,183.19 48.2869,183.523 45.5,184.5C 44.9569,184.44 44.6236,184.107 44.5,183.5C 47.9798,182.194 51.3132,182.194 54.5,183.5 Z"/></g>
<g><path style="opacity:1" fill="#fafcf8" d="M 54.5,183.5 C 56.2336,187.3 58.2336,190.966 60.5,194.5C 62.6265,191.081 64.6265,187.581 66.5,184C 69.8333,183.333 73.1667,183.333 76.5,184C 72.9605,190.913 69.2939,197.746 65.5,204.5C 69.4216,211.342 73.0883,218.342 76.5,225.5C 73.1667,226.833 69.8333,226.833 66.5,225.5C 64.754,221.673 62.754,218.007 60.5,214.5C 58.2336,218.034 56.2336,221.7 54.5,225.5C 51.2869,225.81 48.2869,225.477 45.5,224.5C 48.8068,217.886 52.1401,211.22 55.5,204.5C 52.1401,197.78 48.8068,191.114 45.5,184.5C 48.2869,183.523 51.2869,183.19 54.5,183.5 Z"/></g>
<g><path style="opacity:1" fill="#fcfdfb" d="M 102.5,200.5 C 102.5,203.167 102.5,205.833 102.5,208.5C 98.2984,208.183 94.2984,208.517 90.5,209.5C 89.5119,214.64 89.1786,219.974 89.5,225.5C 86.8333,225.5 84.1667,225.5 81.5,225.5C 81.5,211.5 81.5,197.5 81.5,183.5C 89.5,183.5 97.5,183.5 105.5,183.5C 105.5,186.167 105.5,188.833 105.5,191.5C 100.5,191.5 95.5,191.5 90.5,191.5C 90.5,194.5 90.5,197.5 90.5,200.5C 94.5,200.5 98.5,200.5 102.5,200.5 Z"/></g>
<g><path style="opacity:1" fill="#f9fbf7" d="M 112.5,225.5 C 109.615,225.806 106.948,225.473 104.5,224.5C 107.833,210.833 111.167,197.167 114.5,183.5C 118.437,183.207 122.27,183.54 126,184.5C 129.819,198.441 133.319,212.441 136.5,226.5C 133.5,226.5 130.5,226.5 127.5,226.5C 127.167,223.833 126.833,221.167 126.5,218.5C 122.486,218.334 118.486,218.501 114.5,219C 113.77,221.154 113.103,223.321 112.5,225.5 Z"/></g>
<g><path style="opacity:1" fill="#fcfdfb" d="M 165.5,183.5 C 168.167,183.5 170.833,183.5 173.5,183.5C 173.5,197.5 173.5,211.5 173.5,225.5C 171.167,225.5 168.833,225.5 166.5,225.5C 166.831,217.804 166.497,210.138 165.5,202.5C 164.893,202.624 164.56,202.957 164.5,203.5C 162.609,206.614 161.276,209.948 160.5,213.5C 158.396,213.799 156.396,213.466 154.5,212.5C 152.88,209.596 151.547,206.596 150.5,203.5C 150.44,202.957 150.107,202.624 149.5,202.5C 148.503,210.138 148.169,217.804 148.5,225.5C 145.833,225.5 143.167,225.5 140.5,225.5C 140.5,211.5 140.5,197.5 140.5,183.5C 143.518,183.335 146.518,183.502 149.5,184C 152.04,188.914 154.706,193.747 157.5,198.5C 159.937,193.289 162.603,188.289 165.5,183.5 Z"/></g>
<g><path style="opacity:1" fill="#c6dfb6" d="M 165.5,183.5 C 168.287,182.523 171.287,182.19 174.5,182.5C 174.5,197.167 174.5,211.833 174.5,226.5C 171.5,226.5 168.5,226.5 165.5,226.5C 165.825,218.648 165.492,210.982 164.5,203.5C 164.56,202.957 164.893,202.624 165.5,202.5C 166.497,210.138 166.831,217.804 166.5,225.5C 168.833,225.5 171.167,225.5 173.5,225.5C 173.5,211.5 173.5,197.5 173.5,183.5C 170.833,183.5 168.167,183.5 165.5,183.5 Z"/></g>
<g><path style="opacity:1" fill="#569c2f" d="M 24.5,191.5 C 27.6852,191.02 30.5185,191.686 33,193.5C 33.6667,200.833 33.6667,208.167 33,215.5C 30.0293,219.092 26.696,219.425 23,216.5C 22.3333,208.833 22.3333,201.167 23,193.5C 23.7172,192.956 24.2172,192.289 24.5,191.5 Z"/></g>
<g><path style="opacity:1" fill="#5b9e35" d="M 123.5,209.5 C 120.918,209.975 118.918,209.308 117.5,207.5C 118.093,204.055 119.093,200.721 120.5,197.5C 121.915,201.409 122.915,205.409 123.5,209.5 Z"/></g>
<g><path style="opacity:1" fill="#afd19a" d="M 150.5,203.5 C 149.508,210.982 149.175,218.648 149.5,226.5C 146.287,226.81 143.287,226.477 140.5,225.5C 143.167,225.5 145.833,225.5 148.5,225.5C 148.169,217.804 148.503,210.138 149.5,202.5C 150.107,202.624 150.44,202.957 150.5,203.5 Z"/></g>
<g><path style="opacity:1" fill="#c1daae" d="M 102.5,200.5 C 103.477,203.287 103.81,206.287 103.5,209.5C 99.1667,209.5 94.8333,209.5 90.5,209.5C 94.2984,208.517 98.2984,208.183 102.5,208.5C 102.5,205.833 102.5,203.167 102.5,200.5 Z"/></g>
<g><path style="opacity:1" fill="#9ec686" d="M 117.5,207.5 C 118.918,209.308 120.918,209.975 123.5,209.5C 121.393,210.468 119.059,210.802 116.5,210.5C 116.263,209.209 116.596,208.209 117.5,207.5 Z"/></g>
<g><path style="opacity:1" fill="#bcdaa8" d="M 90.5,209.5 C 90.5,215.167 90.5,220.833 90.5,226.5C 87.2869,226.81 84.2869,226.477 81.5,225.5C 84.1667,225.5 86.8333,225.5 89.5,225.5C 89.1786,219.974 89.5119,214.64 90.5,209.5 Z"/></g>
<g><path style="opacity:1" fill="#bddaa9" d="M 45.5,224.5 C 48.2869,225.477 51.2869,225.81 54.5,225.5C 51.3132,226.806 47.9798,226.806 44.5,225.5C 44.6236,224.893 44.9569,224.56 45.5,224.5 Z"/></g>
<g><path style="opacity:1" fill="#b6d6a2" d="M 104.5,224.5 C 106.948,225.473 109.615,225.806 112.5,225.5C 109.645,226.803 106.645,226.803 103.5,225.5C 103.624,224.893 103.957,224.56 104.5,224.5 Z"/></g>
</svg>
