<?xml version="1.0" encoding="UTF-8"?>
<!DOCTYPE svg PUBLIC "-//W3C//DTD SVG 1.1//EN" "http://www.w3.org/Graphics/SVG/1.1/DTD/svg11.dtd">
<svg xmlns="http://www.w3.org/2000/svg" version="1.1" width="192px" height="279px" style="shape-rendering:geometricPrecision; text-rendering:geometricPrecision; image-rendering:optimizeQuality; fill-rule:evenodd; clip-rule:evenodd" xmlns:xlink="http://www.w3.org/1999/xlink">
<g><path style="opacity:1" fill="#fb8627" d="M -0.5,-0.5 C 63.5,-0.5 127.5,-0.5 191.5,-0.5C 191.5,92.5 191.5,185.5 191.5,278.5C 127.5,278.5 63.5,278.5 -0.5,278.5C -0.5,185.5 -0.5,92.5 -0.5,-0.5 Z"/></g>
<g><path style="opacity:1" fill="#fcf8f3" d="M 37.5,118.5 C 37.5,120.833 37.5,123.167 37.5,125.5C 36.5,125.5 35.5,125.5 34.5,125.5C 31.5547,124.532 28.5547,124.366 25.5,125C 20.6747,127.135 20.3414,129.801 24.5,133C 28.5352,135.007 32.5352,137.007 36.5,139C 38.1412,140.129 39.1412,141.629 39.5,143.5C 40.7852,151.783 37.4519,156.95 29.5,159C 24.7804,159.717 20.1138,159.55 15.5,158.5C 14.391,158.443 13.391,158.11 12.5,157.5C 12.1866,154.753 12.52,152.086 13.5,149.5C 17.9573,152.437 22.6239,153.103 27.5,151.5C 29.9263,150.647 30.7596,148.981 30,146.5C 25.2491,143.284 20.4157,140.284 15.5,137.5C 9.94383,128.558 11.9438,122.058 21.5,118C 26.8538,117.471 32.1871,117.638 37.5,118.5 Z"/></g>
<g><path style="opacity:1" fill="#fdf3e9" d="M 113.5,116.5 C 116.685,116.02 119.519,116.686 122,118.5C 122.825,120.701 122.325,122.534 120.5,124C 112.773,125.789 110.44,123.289 113.5,116.5 Z"/></g>
<g><path style="opacity:1" fill="#fccd9b" d="M 37.5,118.5 C 38.4731,120.948 38.8064,123.615 38.5,126.5C 36.901,126.768 35.5676,126.434 34.5,125.5C 35.5,125.5 36.5,125.5 37.5,125.5C 37.5,123.167 37.5,120.833 37.5,118.5 Z"/></g>
<g><path style="opacity:1" fill="#fcfcfa" d="M 137.5,121.5 C 139.369,123.635 140.036,126.302 139.5,129.5C 141.265,130.461 143.265,130.795 145.5,130.5C 145.5,132.167 145.5,133.833 145.5,135.5C 143.5,135.5 141.5,135.5 139.5,135.5C 139.179,140.695 139.513,145.695 140.5,150.5C 140.5,150.833 140.5,151.167 140.5,151.5C 141.552,153.256 143.219,153.923 145.5,153.5C 145.5,155.167 145.5,156.833 145.5,158.5C 142.167,158.5 138.833,158.5 135.5,158.5C 134.206,157.71 133.039,156.71 132,155.5C 131.5,149.175 131.334,142.842 131.5,136.5C 129.833,136.5 128.167,136.5 126.5,136.5C 126.5,134.5 126.5,132.5 126.5,130.5C 128.167,130.5 129.833,130.5 131.5,130.5C 131.5,128.167 131.5,125.833 131.5,123.5C 133.374,122.715 135.374,122.048 137.5,121.5 Z"/></g>
<g><path style="opacity:1" fill="#f9b56f" d="M 137.5,121.5 C 138.209,120.596 139.209,120.263 140.5,120.5C 140.5,123.5 140.5,126.5 140.5,129.5C 140.167,129.5 139.833,129.5 139.5,129.5C 140.036,126.302 139.369,123.635 137.5,121.5 Z"/></g>
<g><path style="opacity:1" fill="#fbd4ad" d="M 87.5,131.5 C 84.0729,129.823 81.0729,130.156 78.5,132.5C 77.596,131.791 77.2627,130.791 77.5,129.5C 81.3293,128.931 84.6627,129.598 87.5,131.5 Z"/></g>
<g><path style="opacity:1" fill="#fcd8ae" d="M 99.5,130.5 C 102.355,129.197 105.355,129.197 108.5,130.5C 108.376,131.107 108.043,131.44 107.5,131.5C 105.052,130.527 102.385,130.194 99.5,130.5 Z"/></g>
<g><path style="opacity:1" fill="#fbd6af" d="M 131.5,123.5 C 131.5,125.833 131.5,128.167 131.5,130.5C 129.833,130.5 128.167,130.5 126.5,130.5C 127.568,129.566 128.901,129.232 130.5,129.5C 130.205,127.265 130.539,125.265 131.5,123.5 Z"/></g>
<g><path style="opacity:1" fill="#fbfaf6" d="M 54.5,150.5 C 57.9601,153.377 61.1268,153.044 64,149.5C 64.4995,143.175 64.6662,136.842 64.5,130.5C 67.1667,130.5 69.8333,130.5 72.5,130.5C 72.5,139.833 72.5,149.167 72.5,158.5C 69.8333,158.5 67.1667,158.5 64.5,158.5C 64.719,157.325 64.3857,156.325 63.5,155.5C 61.946,157.093 60.2793,158.426 58.5,159.5C 51.9955,161.219 47.9955,158.885 46.5,152.5C 46.5,145.167 46.5,137.833 46.5,130.5C 48.8333,130.5 51.1667,130.5 53.5,130.5C 53.176,137.354 53.5093,144.021 54.5,150.5 Z"/></g>
<g><path style="opacity:1" fill="#fdf9f4" d="M 87.5,131.5 C 89.2195,137.829 91.0528,144.163 93,150.5C 94.1882,149.437 94.6882,148.103 94.5,146.5C 95.9238,144.485 96.5905,142.152 96.5,139.5C 96.883,136.189 97.883,133.189 99.5,130.5C 102.385,130.194 105.052,130.527 107.5,131.5C 103.883,140.351 100.883,149.351 98.5,158.5C 94.5633,158.793 90.73,158.46 87,157.5C 84.315,149.083 81.4817,140.749 78.5,132.5C 81.0729,130.156 84.0729,129.823 87.5,131.5 Z"/></g>
<g><path style="opacity:1" fill="#fdfdfa" d="M 112.5,130.5 C 115.167,130.5 117.833,130.5 120.5,130.5C 120.5,139.833 120.5,149.167 120.5,158.5C 117.833,158.5 115.167,158.5 112.5,158.5C 112.5,149.167 112.5,139.833 112.5,130.5 Z"/></g>
<g><path style="opacity:1" fill="#fbd1a0" d="M 139.5,129.5 C 139.833,129.5 140.167,129.5 140.5,129.5C 142.5,129.5 144.5,129.5 146.5,129.5C 146.5,131.833 146.5,134.167 146.5,136.5C 144.5,136.5 142.5,136.5 140.5,136.5C 140.5,141.167 140.5,145.833 140.5,150.5C 139.513,145.695 139.179,140.695 139.5,135.5C 141.5,135.5 143.5,135.5 145.5,135.5C 145.5,133.833 145.5,132.167 145.5,130.5C 143.265,130.795 141.265,130.461 139.5,129.5 Z"/></g>
<g><path style="opacity:1" fill="#fdf8f0" d="M 175.5,137.5 C 175.5,144.5 175.5,151.5 175.5,158.5C 172.833,158.5 170.167,158.5 167.5,158.5C 166.707,154.835 165.374,154.835 163.5,158.5C 153.025,161.362 148.359,157.362 149.5,146.5C 152.456,141.835 156.789,139.835 162.5,140.5C 164.167,140.5 165.833,140.5 167.5,140.5C 167.737,139.209 167.404,138.209 166.5,137.5C 166.389,136.883 166.056,136.383 165.5,136C 161.1,135.022 156.933,135.522 153,137.5C 151.469,130.486 154.303,127.819 161.5,129.5C 168.397,128.606 173.064,131.273 175.5,137.5 Z"/></g>
<g><path style="opacity:1" fill="#fbe5cf" d="M 45.5,129.5 C 48.5,129.5 51.5,129.5 54.5,129.5C 54.5,136.5 54.5,143.5 54.5,150.5C 53.5093,144.021 53.176,137.354 53.5,130.5C 51.1667,130.5 48.8333,130.5 46.5,130.5C 46.5,137.833 46.5,145.167 46.5,152.5C 45.508,145.018 45.1746,137.352 45.5,129.5 Z"/></g>
<g><path style="opacity:1" fill="#fda047" d="M 73.5,129.5 C 74.494,139.319 74.8274,149.319 74.5,159.5C 70.9581,159.813 67.6248,159.479 64.5,158.5C 67.1667,158.5 69.8333,158.5 72.5,158.5C 73.4938,149.014 73.8271,139.348 73.5,129.5 Z"/></g>
<g><path style="opacity:1" fill="#fde7bc" d="M 64.5,130.5 C 67.2869,129.523 70.2869,129.19 73.5,129.5C 73.8271,139.348 73.4938,149.014 72.5,158.5C 72.5,149.167 72.5,139.833 72.5,130.5C 69.8333,130.5 67.1667,130.5 64.5,130.5 Z"/></g>
<g><path style="opacity:1" fill="#fae2c0" d="M 112.5,130.5 C 115.287,129.523 118.287,129.19 121.5,129.5C 121.827,139.348 121.494,149.014 120.5,158.5C 120.5,149.167 120.5,139.833 120.5,130.5C 117.833,130.5 115.167,130.5 112.5,130.5 Z"/></g>
<g><path style="opacity:1" fill="#fa9c4b" d="M 121.5,129.5 C 122.494,139.319 122.827,149.319 122.5,159.5C 118.958,159.813 115.625,159.479 112.5,158.5C 115.167,158.5 117.833,158.5 120.5,158.5C 121.494,149.014 121.827,139.348 121.5,129.5 Z"/></g>
<g><path style="opacity:1" fill="#fcb679" d="M 166.5,137.5 C 167.404,138.209 167.737,139.209 167.5,140.5C 165.833,140.5 164.167,140.5 162.5,140.5C 164.219,139.978 165.552,138.978 166.5,137.5 Z"/></g>
<g><path style="opacity:1" fill="#fecba1" d="M 96.5,139.5 C 96.5905,142.152 95.9238,144.485 94.5,146.5C 94.4095,143.848 95.0762,141.515 96.5,139.5 Z"/></g>
<g><path style="opacity:1" fill="#facb9d" d="M 163.5,145.5 C 164.568,144.566 165.901,144.232 167.5,144.5C 167.768,146.099 167.434,147.432 166.5,148.5C 166.5,147.5 166.5,146.5 166.5,145.5C 165.5,145.5 164.5,145.5 163.5,145.5 Z"/></g>
<g><path style="opacity:1" fill="#fb9f4b" d="M 175.5,137.5 C 176.492,144.648 176.825,151.981 176.5,159.5C 173.287,159.81 170.287,159.477 167.5,158.5C 170.167,158.5 172.833,158.5 175.5,158.5C 175.5,151.5 175.5,144.5 175.5,137.5 Z"/></g>
<g><path style="opacity:1" fill="#f88d35" d="M 163.5,145.5 C 164.5,145.5 165.5,145.5 166.5,145.5C 166.5,146.5 166.5,147.5 166.5,148.5C 164.999,153.579 162.165,154.579 158,151.5C 157.167,147.164 159,145.164 163.5,145.5 Z"/></g>
<g><path style="opacity:1" fill="#fb9645" d="M 27.5,151.5 C 22.6239,153.103 17.9573,152.437 13.5,149.5C 12.52,152.086 12.1866,154.753 12.5,157.5C 11.5233,154.713 11.19,151.713 11.5,148.5C 13.9201,148.292 16.2534,148.626 18.5,149.5C 19.6956,149.154 19.6956,148.654 18.5,148C 19.825,148.148 20.9916,147.982 22,147.5C 22.4479,149.409 21.6145,150.576 19.5,151C 22.146,151.497 24.8127,151.664 27.5,151.5 Z"/></g>
<g><path style="opacity:1" fill="#f89039" d="M 45.5,129.5 C 45.1746,137.352 45.508,145.018 46.5,152.5C 47.9955,158.885 51.9955,161.219 58.5,159.5C 54.153,161.165 50.153,160.498 46.5,157.5C 45.8076,158.025 45.3076,158.692 45,159.5C 41.9433,158.549 38.7766,158.216 35.5,158.5C 35.5,159.5 35.5,160.5 35.5,161.5C 29.4908,161.666 23.4908,161.499 17.5,161C 16.6195,160.292 15.9528,159.458 15.5,158.5C 20.1138,159.55 24.7804,159.717 29.5,159C 37.4519,156.95 40.7852,151.783 39.5,143.5C 40.4682,145.607 40.8016,147.941 40.5,150.5C 41.8333,150.5 43.1667,150.5 44.5,150.5C 44.1755,143.313 44.5088,136.313 45.5,129.5 Z"/></g>
<g><path style="opacity:1" fill="#fa903a" d="M 149.5,146.5 C 148.359,157.362 153.025,161.362 163.5,158.5C 163.389,159.117 163.056,159.617 162.5,160C 158.638,160.645 154.804,160.479 151,159.5C 149.635,159.844 148.468,160.511 147.5,161.5C 144.36,160.911 141.36,160.244 138.5,159.5C 141.167,159.5 143.833,159.5 146.5,159.5C 146.5,157.167 146.5,154.833 146.5,152.5C 147.222,152.918 147.722,153.584 148,154.5C 148.183,151.635 148.683,148.969 149.5,146.5 Z"/></g>
<g><path style="opacity:1" fill="#fba55e" d="M 167.5,158.5 C 166.298,157.595 164.964,157.595 163.5,158.5C 165.374,154.835 166.707,154.835 167.5,158.5 Z"/></g>
<g><path style="opacity:1" fill="#fbdbb8" d="M 140.5,151.5 C 142.379,152.341 144.379,152.675 146.5,152.5C 146.5,154.833 146.5,157.167 146.5,159.5C 143.833,159.5 141.167,159.5 138.5,159.5C 137.209,159.737 136.209,159.404 135.5,158.5C 138.833,158.5 142.167,158.5 145.5,158.5C 145.5,156.833 145.5,155.167 145.5,153.5C 143.219,153.923 141.552,153.256 140.5,151.5 Z"/></g>
</svg>
