<?xml version="1.0" encoding="utf-8" ?><svg xmlns="http://www.w3.org/2000/svg" xmlns:xlink="http://www.w3.org/1999/xlink" width="832" height="1248" viewBox="0 0 832 1248"><defs><linearGradient id="gradient_0" gradientUnits="userSpaceOnUse" x1="-55.636414" y1="1196.0405" x2="733.86188" y2="237.34076"><stop offset="0" stop-color="#5CD162"/><stop offset="1" stop-color="#27C6F2"/></linearGradient></defs><path fill="url(#gradient_0)" d="M0 0L399.45 0L832 0L832 353.15L832 1248L132.321 1248L0 1248L0 1128.22L0 0Z"/><path fill="#1AD7F1" d="M399.45 0L832 0L832 353.15C830.674 355.555 830.704 376.336 830.554 380.397C829.359 371.304 830.765 360.302 830.133 351.022C830.005 349.137 826.486 346.696 826.345 345.25C826.019 341.897 823.422 343.023 820.937 341.428C810.485 337.856 804.989 329.585 798.464 321.199C797.587 320.281 795.702 316.902 794.688 316.43C788.798 313.692 778.598 311.367 774.263 306.552L772.018 307.472C771.107 307.185 765.754 305.493 765.324 305.178C756.159 298.453 754.181 290.744 744.117 285.073C743.598 285.207 743.078 285.332 742.555 285.45C738.052 286.457 728.904 285.194 727.922 282.394C724.841 273.609 726.822 272.644 717.13 266.463L714.59 267.109C713.159 265.506 713.271 264.522 712.93 262.496C711.225 252.36 694.916 243.639 685.795 243.479L685.13 243.472C680.926 240.818 673.545 237.163 672.245 232.718C673.272 227.521 671.661 224.567 666.055 225.083C663.477 227.384 651.789 217.314 651.637 215.568C650.998 208.263 646.418 209.85 641.232 204.524C637.782 200.98 632.483 201.046 628.795 198.002C626.981 196.504 625.155 191.31 622.875 189.27C619.096 190.342 620.119 196.24 614.17 195.676C610.234 189.818 606.05 184.962 601.721 179.455C599.337 176.423 601.042 177.038 597.189 175.687C596.993 174.018 597.79 172.382 599.211 171.537L599.954 172.198L600.056 174.816C600.078 172.199 602.606 171.707 604.589 170.919C604.554 169.14 604.619 169.747 603.447 168.054C601.506 167.917 602.003 168.068 599.955 169.45L598.924 168.555C598.883 169.56 598.869 169.491 598.352 170.364C595.727 169.531 593.216 170.795 589.852 170.497C596.625 162.869 581.686 157.655 576.032 152.524C576.872 150.79 577.36 150.21 577.242 148.369C575.575 147.497 575.512 147.452 574.276 146.057C574.357 144.052 574.204 144.78 575.774 142.942C573.445 140.218 573.073 143.381 569.931 141.991L568.976 138.396C568.245 140.034 568.679 139.678 567.351 140.506C564.47 139.583 552.801 124.702 550.589 121.828C550.49 120.557 550.756 119.794 551.045 118.567C547.922 116.676 540.902 119.707 537.108 118.543C534.485 113.924 532.653 106.849 530.9 101.708C529.629 97.9808 534.09 96.3284 534.266 92.7832C521.702 95.3626 526.439 91.1871 519.462 90.6093C519.216 91.9633 519.18 92.8323 518.41 93.9806C515.309 93.4249 513.277 86.4805 512.023 85.8422C501.788 80.6351 506.496 79.0771 504.901 67.6307L504.592 67.6641C504.701 71.0716 504.901 75.1936 503.684 78.3628C500.853 79.382 497.617 67.4186 493.336 67.4048C488.731 67.3899 474.238 53.9116 474.692 49.4808C475.164 44.8705 471.151 43.3858 471.718 42.1862C477.882 29.1404 470.908 26.1753 461.599 18.687C461.8 12.6509 460.362 10.3689 454.094 10.6772C444.897 11.1297 433.596 3.2026 424.927 1.84923C416.247 0.494144 408.479 4.41807 399.45 0Z"/><path fill="#53DD61" d="M0 1128.22C1.10771 1123.53 0.6124 1118.67 1.67974 1114.26C2.73951 1151.85 1.18722 1190.05 1.78765 1227.69C1.85387 1231.85 1.20884 1242.12 3.96809 1244.97C17.9435 1249.29 128.922 1243.74 132.678 1246.87L132.321 1248L0 1248L0 1128.22Z"/><path fill="#FEFEFE" d="M140.269 515.781C166.681 513.345 198.786 519.894 221.83 533.183C221.298 529.233 219.892 523.844 218.974 519.853C237.533 519.342 258.226 519.768 276.949 519.76C280.187 536.574 285.543 555.774 289.927 572.498L310.82 651.167C312.551 657.583 319.961 687.556 322.166 691.013C324.053 692.11 323.214 691.979 325.244 691.646C327.956 689.686 332.531 673.824 333.839 669.919L345.538 634.967C358.559 596.703 371.11 558.282 383.19 519.711L445.752 519.768C447.212 525.628 450.326 534.614 452.189 540.55L465.74 583.248C442.426 589.005 417.033 591.205 394.4 581.801C390.812 580.31 387.244 578.716 383.698 577.129C402.046 597.107 443.757 595.261 467.899 590.103C471.158 599.842 474.362 609.598 477.512 619.371C457.628 621.542 452.284 618.371 434.63 611.93C446.813 622.755 463.302 627.477 479.396 625.285C484.569 641.825 489.979 658.291 495.623 674.677C490.676 678.293 489.38 679.38 486.502 684.716C486.095 693.519 488.947 704.954 489.831 714.329C485.306 707.043 483.254 700.334 481.043 692.183C470.634 703.29 463.592 720.435 458.549 734.558C455.661 728.602 451.104 712.956 448.862 706.087L427.986 643.381C425.609 636.21 419.801 617.018 416.948 610.836C414.776 609.344 415.783 609.734 413.03 609.487C410.22 611.728 392.289 667.594 389.478 675.969C376.976 713.769 364.217 751.484 351.202 789.11C332.446 788.936 312.366 789.526 293.82 788.875C292.283 787.782 292.572 787.334 291.95 785.18C287.984 767.95 281.978 748.543 277.108 731.237L255.769 654.301L242.183 606.163C239.678 597.303 236.333 584.183 232.826 576.024C228.804 581.393 226.804 586.159 221.811 592.111C196.569 574.027 176.247 562.318 143.852 564.242C132.392 564.881 121.072 567.865 113.224 576.735C103.926 587.244 105.68 603.306 117.11 611.446C120.694 614.066 124.994 616.407 129.22 617.84C165.837 630.141 208.812 631.287 239.551 657.179C268.703 681.735 266.022 733.715 241.659 760.739C222.495 781.995 193.136 790.797 165.434 792.4C118.739 795.376 72.8126 779.425 38.0209 748.147C47.6553 736.039 61.512 720.877 71.9223 708.706C72.8823 709.587 73.8575 710.451 74.8473 711.298C100.483 733.475 131.33 745.32 165.377 743.149C184.564 741.925 205.439 733.146 203.338 710.547C202.859 705.395 200.185 699.002 196.022 695.742C176.899 680.771 149.939 680.081 127.373 672.955C108.224 667.466 88.4983 661.333 72.7273 648.601C44.1473 625.527 45.5333 575.022 68.2005 548.285C86.3544 526.871 112.915 518.171 140.269 515.781Z"/><path fill="#FEFEFE" d="M783.108 542.095C801.709 554.169 812.151 582.538 812.589 603.826C813.102 628.731 808.525 651.724 790.696 670.207C754.439 707.797 700.062 698.657 652.79 699.793C651.899 727.621 652.584 760.991 652.747 789.054L596.756 788.982L596.695 734.099C596.688 724.386 596.328 710.531 597.2 701.101C614.077 709.545 607.964 721.02 604.381 736.615C609.578 729.761 614.192 720.988 616.5 712.567C618.949 703.634 608.369 699.983 609.786 693.974L611.023 693.758C616.695 695.424 625.347 702.211 628.645 707.246C632.67 713.391 628.928 724.285 627.232 731.465C630.213 727.21 635.87 717.057 636.874 712.109C638.199 705.576 635.377 702.036 631.997 697.053C631.021 695.457 630.645 695.507 630.877 694.13C638.334 692.265 642.286 691.669 649.096 688.013C624.786 681.062 621.566 662.174 622.583 640.066C623.794 646.628 624.646 652.273 627.656 658.302C631.115 665.242 636.543 671.01 643.261 674.885C665.718 687.564 681.44 670.578 702.561 668.473C715.35 667.198 728.6 672.363 740.654 676.428C726.591 665.178 720.421 660.759 702.676 660.111C708.507 658.153 720.792 653.706 726.233 653.335C744.414 652.097 752.636 659.457 770.355 650.199C766.018 650.59 758.16 651.26 754.166 650.134C736.32 645.1 728.367 644.369 710.374 649.636C727.478 634.792 751.095 638.495 767.937 622.708C763.58 624.164 758.779 626.892 753.883 627.74C737.296 630.613 731.303 630.083 715.555 637.617C729.558 606.631 764.963 589.589 780.426 559.112C781.424 557.144 782.447 555.195 783.431 553.217C778.828 555.845 775.03 557.969 770.241 560.253C771.313 558.015 780.436 546.2 783.108 542.095Z"/><path fill="#FEFEFE" d="M552.883 519.722L669.189 519.698C689.988 519.655 712.277 518.834 732.985 520.618C746.306 521.766 760.744 527.962 772.938 533.212C776.829 531.699 779.134 531.073 783.206 530.072C774.868 546.354 763.645 552.386 747.728 559.844C745.256 561.003 742.127 562.254 743.053 565.367C743.946 566.727 743.976 566.799 744.537 568.33C743.287 570.607 741.716 570.858 739.077 572.305C738.261 566.775 737.841 560.83 731.271 559.377C724.016 557.774 721.009 560.709 719.907 567.515C719.564 569.631 719.467 569.901 717.746 570.946C713.617 571.318 713.832 567.999 709.094 569.037C707.133 570.392 706.733 571.919 705.813 574.089C697.515 574.274 692.493 574.341 684.279 572.079C662.841 566.177 640.822 572.133 619.277 569.441C614.418 568.834 609.448 568.332 604.604 568.053C582.646 566.76 560.613 567.664 538.835 570.75C543.675 554.724 548.931 535.919 552.883 519.722Z"/><path fill="#FEFEFE" d="M554.768 711.068L555.477 711.24L555.946 712.079C551.418 733.889 540.707 766.504 534.1 788.721L478.054 788.675L474.58 783.916C457.579 800.472 446.107 807.772 421.226 804.242C435.544 800.833 442.895 802.203 456.872 791.469C471.951 777.996 463.884 771.566 483.134 759.074C483.487 762.626 483.808 766.18 484.096 769.737C486.323 767.801 487.514 766.353 489.423 764.119C489.659 760.919 489.511 756.892 489.481 753.621C493.692 749.019 498.108 745.971 503.266 742.6C504.018 750.936 503.762 755.703 503.293 763.997C510.485 754.971 511.224 748.899 510.053 737.734C515.483 733.163 520.619 729.754 526.539 725.876C527.529 732.56 527.503 742.447 527.679 749.432C533.181 738.205 535.04 733.788 534.151 721.263C541.411 716.442 546.691 714.384 554.768 711.068Z"/><path fill="#FEFEFE" d="M593.263 589.881L594.052 590.016L594.226 591.08C590.245 601.362 587.49 614.451 583.355 625.365C579.692 635.03 574.776 644.805 572.136 654.401C570.672 659.72 570.928 670.434 570.93 676.448C567.001 660.314 565.74 650.524 572.508 634.899C544.554 638.013 541.368 651.328 542.274 677.59C538.779 666.608 536.979 660.461 540.137 649.107L540.475 647.756L539.791 647.229C517.932 649.942 515.391 675.937 513.308 693.048C511.614 685.965 511.157 678.644 511.956 671.405C512.849 663.872 516.144 653.933 518.338 646.429C521.493 635.329 524.802 624.273 528.264 613.265C550.903 604.112 569.957 597.508 593.263 589.881Z"/><path fill="#FEFEFE" d="M633.669 580.337C644.913 578.664 659.813 584.661 668.842 591.27C654.887 604.615 642.552 613.993 625.132 622.782C615.446 627.24 607.21 629.935 596.631 631.106C596.032 617.395 596.524 602.395 596.745 588.608C606.478 585.577 623.642 581.71 633.669 580.337Z"/><path fill="#FEFEFE" d="M572.521 574.905C587.249 574.259 602.517 574.985 617.217 576.232C598.207 580.883 579.428 586.433 560.945 592.866C550.592 596.635 540.306 600.587 530.092 604.719C531.529 599.174 535.489 582.982 537.511 578.126C549.935 576.848 559.884 575.486 572.521 574.905Z"/><path fill="#FEFEFE" d="M660.366 575.964C665.019 575.742 683.227 578.491 685.305 582.476L684.404 584.138C682.906 584.965 682.269 585.173 680.64 585.742C676.36 585.561 665.114 578.497 660.366 575.964Z"/></svg>