<?xml version="1.0" encoding="UTF-8"?>
<!DOCTYPE svg PUBLIC "-//W3C//DTD SVG 1.1//EN" "http://www.w3.org/Graphics/SVG/1.1/DTD/svg11.dtd">
<svg xmlns="http://www.w3.org/2000/svg" version="1.1" width="192px" height="279px" style="shape-rendering:geometricPrecision; text-rendering:geometricPrecision; image-rendering:optimizeQuality; fill-rule:evenodd; clip-rule:evenodd" xmlns:xlink="http://www.w3.org/1999/xlink">
<g><path style="opacity:1" fill="#e71120" d="M -0.5,-0.5 C 63.5,-0.5 127.5,-0.5 191.5,-0.5C 191.5,92.5 191.5,185.5 191.5,278.5C 127.5,278.5 63.5,278.5 -0.5,278.5C -0.5,185.5 -0.5,92.5 -0.5,-0.5 Z"/></g>
<g><path style="opacity:1" fill="#fdfbfb" d="M 46.5,64.5 C 67.0437,62.026 82.877,69.3593 94,86.5C 112.782,62.1435 135.282,57.9768 161.5,74C 180.828,93.3897 185.328,115.89 175,141.5C 169.477,153.694 161.644,164.194 151.5,173C 132.052,189.48 112.885,206.313 94,223.5C 70.6992,202.534 47.6992,181.201 25,159.5C 9.31662,139.109 5.64996,116.775 14,92.5C 21.0469,78.6094 31.8802,69.2761 46.5,64.5 Z"/></g>
<g><path style="opacity:1" fill="#221c4f" d="M 60.5,111.5 C 59.7321,112.263 59.2321,113.263 59,114.5C 58.3292,115.252 57.4959,115.586 56.5,115.5C 55.8333,115.5 55.5,115.167 55.5,114.5C 56.2216,109.511 56.3883,104.511 56,99.5C 53.5647,94.7762 49.7314,93.2762 44.5,95C 42.9512,96.214 41.7845,97.714 41,99.5C 40.6117,104.511 40.7784,109.511 41.5,114.5C 40.1667,114.5 38.8333,114.5 37.5,114.5C 36.4793,108.87 36.3127,103.204 37,97.5C 40.7245,89.8946 46.5579,87.7279 54.5,91C 56.3333,92.1667 57.8333,93.6667 59,95.5C 60.3967,100.708 60.8967,106.041 60.5,111.5 Z"/></g>
<g><path style="opacity:1" fill="#e5e1e6" d="M 55.5,114.5 C 54.596,113.791 54.2627,112.791 54.5,111.5C 50.5,111.5 46.5,111.5 42.5,111.5C 42.7373,112.791 42.404,113.791 41.5,114.5C 40.7784,109.511 40.6117,104.511 41,99.5C 41.7845,97.714 42.9512,96.214 44.5,95C 49.7314,93.2762 53.5647,94.7762 56,99.5C 56.3883,104.511 56.2216,109.511 55.5,114.5 Z"/></g>
<g><path style="opacity:1" fill="#1f1b4d" d="M 46.5,98.5 C 53.9631,98.9355 56.6297,102.936 54.5,110.5C 50.8333,110.5 47.1667,110.5 43.5,110.5C 42.7688,105.927 43.7688,101.927 46.5,98.5 Z"/></g>
<g><path style="opacity:1" fill="#d79597" d="M 93.5,103.5 C 91.6313,106.578 90.298,109.911 89.5,113.5C 89.1667,113.5 88.8333,113.5 88.5,113.5C 88.6586,109.326 90.3253,105.992 93.5,103.5 Z"/></g>
<g><path style="opacity:1" fill="#98242b" d="M 97.5,100.5 C 98.3764,100.369 99.0431,100.702 99.5,101.5C 97.2438,106.421 93.9105,110.421 89.5,113.5C 90.298,109.911 91.6313,106.578 93.5,103.5C 94.2623,101.738 95.5956,100.738 97.5,100.5 Z"/></g>
<g><path style="opacity:1" fill="#e61b22" d="M 97.5,100.5 C 95.5956,100.738 94.2623,101.738 93.5,103.5C 90.3253,105.992 88.6586,109.326 88.5,113.5C 84.4324,126.146 83.0991,139.146 84.5,152.5C 84.2542,155.47 82.5876,156.803 79.5,156.5C 77.0478,151.751 76.0478,146.584 76.5,141C 76.5784,133.365 77.5784,125.865 79.5,118.5C 77.7256,117.813 76.0589,116.98 74.5,116C 76.7619,115.358 78.9285,114.525 81,113.5C 82.1934,108.233 84.6934,103.733 88.5,100C 91.6965,99.1955 94.6965,99.3622 97.5,100.5 Z"/></g>
<g><path style="opacity:1" fill="#ea2525" d="M 60.5,111.5 C 61.1667,111.5 61.8333,111.5 62.5,111.5C 62.8333,112.5 63.5,113.167 64.5,113.5C 64.5,114.5 64.5,115.5 64.5,116.5C 62.8008,116.66 61.1341,116.494 59.5,116C 60.3802,114.644 60.7135,113.144 60.5,111.5 Z"/></g>
<g><path style="opacity:1" fill="#e91922" d="M 55.5,114.5 C 55.5,115.167 55.8333,115.5 56.5,115.5C 56.5,115.833 56.5,116.167 56.5,116.5C 51.1563,116.666 45.8229,116.499 40.5,116C 41.056,115.617 41.3893,115.117 41.5,114.5C 42.404,113.791 42.7373,112.791 42.5,111.5C 46.5,111.5 50.5,111.5 54.5,111.5C 54.2627,112.791 54.596,113.791 55.5,114.5 Z"/></g>
<g><path style="opacity:1" fill="#9f3338" d="M 66.5,116.5 C 66.0679,115.29 65.4013,114.29 64.5,113.5C 63.5,113.167 62.8333,112.5 62.5,111.5C 61.6971,110.577 61.5304,109.577 62,108.5C 64.9889,112.491 68.8222,115.324 73.5,117C 71.0709,117.703 68.7375,117.537 66.5,116.5 Z"/></g>
<g><path style="opacity:1" fill="#f35853" d="M 37.5,114.5 C 38.8333,114.5 40.1667,114.5 41.5,114.5C 41.3893,115.117 41.056,115.617 40.5,116C 45.8229,116.499 51.1563,116.666 56.5,116.5C 57.4916,116.328 58.1583,116.662 58.5,117.5C 55.5,117.5 52.5,117.5 49.5,117.5C 49.1667,117.5 48.8333,117.5 48.5,117.5C 44.1186,117.628 39.7853,117.295 35.5,116.5C 34.4153,112.902 35.0819,112.235 37.5,114.5 Z"/></g>
<g><path style="opacity:1" fill="#e09093" d="M 60.5,111.5 C 60.7135,113.144 60.3802,114.644 59.5,116C 61.1341,116.494 62.8008,116.66 64.5,116.5C 64.5,115.5 64.5,114.5 64.5,113.5C 65.4013,114.29 66.0679,115.29 66.5,116.5C 65.8333,116.5 65.5,116.833 65.5,117.5C 63.8333,117.5 62.1667,117.5 60.5,117.5C 60.1667,117.5 59.8333,117.5 59.5,117.5C 59.1667,117.5 58.8333,117.5 58.5,117.5C 58.1583,116.662 57.4916,116.328 56.5,116.5C 56.5,116.167 56.5,115.833 56.5,115.5C 57.4959,115.586 58.3292,115.252 59,114.5C 59.2321,113.263 59.7321,112.263 60.5,111.5 Z"/></g>
<g><path style="opacity:1" fill="#1d194b" d="M 47.5,118.5 C 47.5,120.5 47.5,122.5 47.5,124.5C 43.5,124.833 43.5,125.167 47.5,125.5C 47.6567,126.873 47.49,128.207 47,129.5C 46.1072,128.289 45.2739,128.289 44.5,129.5C 45.325,130.386 46.325,130.719 47.5,130.5C 48.1389,140.227 47.4722,149.56 45.5,158.5C 39.8333,158.5 34.1667,158.5 28.5,158.5C 28.5,155.5 28.5,152.5 28.5,149.5C 30.4672,149.739 32.3005,149.406 34,148.5C 35.2333,138.499 36.4,128.499 37.5,118.5C 40.8333,118.5 44.1667,118.5 47.5,118.5 Z"/></g>
<g><path style="opacity:1" fill="#5f5b80" d="M 49.5,118.5 C 49.5,118.167 49.5,117.833 49.5,117.5C 52.5,117.5 55.5,117.5 58.5,117.5C 58.8333,117.5 59.1667,117.5 59.5,117.5C 59.5,117.833 59.5,118.167 59.5,118.5C 54.7797,118.225 54.4463,119.059 58.5,121C 57.9341,121.995 57.2674,122.828 56.5,123.5C 56.5,122.5 56.5,121.5 56.5,120.5C 54.8212,120.285 53.8212,120.952 53.5,122.5C 52.2089,121.458 52.2089,120.292 53.5,119C 52.2068,118.51 50.8734,118.343 49.5,118.5 Z"/></g>
<g><path style="opacity:1" fill="#2b2554" d="M 137.5,119.5 C 140.382,123.018 139.382,125.018 134.5,125.5C 134.5,126.833 134.5,128.167 134.5,129.5C 133.521,126.375 133.187,123.042 133.5,119.5C 134.833,119.5 136.167,119.5 137.5,119.5 Z"/></g>
<g><path style="opacity:1" fill="#201c4e" d="M 35.5,116.5 C 35.1856,126.87 34.3523,137.203 33,147.5C 31.3005,148.406 29.4672,148.739 27.5,148.5C 25.1104,148.315 24.1104,146.982 24.5,144.5C 26.1922,136.872 27.6922,129.206 29,121.5C 29.9705,118.179 32.1372,116.513 35.5,116.5 Z"/></g>
<g><path style="opacity:1" fill="#b3adbf" d="M 35.5,116.5 C 39.7853,117.295 44.1186,117.628 48.5,117.5C 48.5,117.833 48.5,118.167 48.5,118.5C 48.1667,118.5 47.8333,118.5 47.5,118.5C 44.1667,118.5 40.8333,118.5 37.5,118.5C 36.4,128.499 35.2333,138.499 34,148.5C 32.3005,149.406 30.4672,149.739 28.5,149.5C 27.8333,149.5 27.5,149.167 27.5,148.5C 29.4672,148.739 31.3005,148.406 33,147.5C 34.3523,137.203 35.1856,126.87 35.5,116.5 Z"/></g>
<g><path style="opacity:1" fill="#3b3563" d="M 109.5,118.5 C 115.213,118.465 116.547,120.798 113.5,125.5C 117.188,131.31 116.688,131.643 112,126.5C 111.781,127.938 111.281,129.271 110.5,130.5C 109.509,126.555 109.176,122.555 109.5,118.5 Z"/></g>
<g><path style="opacity:1" fill="#1f1b4d" d="M 60.5,117.5 C 62.1667,117.5 63.8333,117.5 65.5,117.5C 69.0172,126.88 71.1839,136.547 72,146.5C 70.8873,147.305 69.7206,147.972 68.5,148.5C 67.1779,148.67 66.0113,148.337 65,147.5C 62.7857,137.597 61.2857,127.597 60.5,117.5 Z"/></g>
<g><path style="opacity:1" fill="#e6e5ea" d="M 111.5,120.5 C 115.31,121.754 115.31,122.754 111.5,123.5C 111.5,122.5 111.5,121.5 111.5,120.5 Z"/></g>
<g><path style="opacity:1" fill="#727092" d="M 137.5,119.5 C 136.167,119.5 134.833,119.5 133.5,119.5C 133.187,123.042 133.521,126.375 134.5,129.5C 134.44,130.043 134.107,130.376 133.5,130.5C 132.509,126.555 132.176,122.555 132.5,118.5C 134.415,118.216 136.081,118.549 137.5,119.5 Z"/></g>
<g><path style="opacity:1" fill="#e7e6ec" d="M 134.5,120.5 C 135.5,120.5 136.5,120.5 137.5,120.5C 137.5,121.5 137.5,122.5 137.5,123.5C 136.5,123.5 135.5,123.5 134.5,123.5C 134.5,122.5 134.5,121.5 134.5,120.5 Z"/></g>
<g><path style="opacity:1" fill="#49456d" d="M 160.5,118.5 C 165.675,117.507 167.509,119.507 166,124.5C 164.989,125.337 163.822,125.67 162.5,125.5C 162.785,127.288 162.452,128.955 161.5,130.5C 160.509,126.555 160.176,122.555 160.5,118.5 Z"/></g>
<g><path style="opacity:1" fill="#e5e4ea" d="M 162.5,120.5 C 166.31,121.754 166.31,122.754 162.5,123.5C 162.5,122.5 162.5,121.5 162.5,120.5 Z"/></g>
<g><path style="opacity:1" fill="#201c4e" d="M 49.5,118.5 C 50.8734,118.343 52.2068,118.51 53.5,119C 52.2089,120.292 52.2089,121.458 53.5,122.5C 54.391,123.11 55.391,123.443 56.5,123.5C 57.2674,122.828 57.9341,121.995 58.5,121C 54.4463,119.059 54.7797,118.225 59.5,118.5C 60.0857,128.933 61.419,139.266 63.5,149.5C 65.1667,149.5 66.8333,149.5 68.5,149.5C 69.2653,152.096 69.5987,154.763 69.5,157.5C 62.9409,158.014 56.4409,158.68 50,159.5C 49.5001,145.837 49.3334,132.171 49.5,118.5 Z"/></g>
<g><path style="opacity:1" fill="#b1525f" d="M 56.5,123.5 C 55.391,123.443 54.391,123.11 53.5,122.5C 53.8212,120.952 54.8212,120.285 56.5,120.5C 56.5,121.5 56.5,122.5 56.5,123.5 Z"/></g>
<g><path style="opacity:1" fill="#37315f" d="M 91.5,118.5 C 93.4741,120.428 94.9741,122.761 96,125.5C 96.8147,123.377 97.8147,121.377 99,119.5C 100,121.5 101,123.5 102,125.5C 103.08,123.004 104.414,120.67 106,118.5C 105.639,121.924 104.639,125.258 103,128.5C 102.333,129.833 101.667,129.833 101,128.5C 100.529,126.754 99.8624,125.087 99,123.5C 98,125.5 97,127.5 96,129.5C 93.9525,126.07 92.4525,122.403 91.5,118.5 Z"/></g>
<g><path style="opacity:1" fill="#332e5b" d="M 124.5,118.5 C 127.088,122.098 128.588,126.098 129,130.5C 126,126.5 123,126.5 120,130.5C 121.168,126.475 122.668,122.475 124.5,118.5 Z"/></g>
<g><path style="opacity:1" fill="#d7d5de" d="M 124.5,122.5 C 127.481,125.122 127.148,125.789 123.5,124.5C 123.863,123.817 124.196,123.15 124.5,122.5 Z"/></g>
<g><path style="opacity:1" fill="#46406b" d="M 148.5,118.5 C 150.237,121.008 151.07,124.008 151,127.5C 152.333,128.833 153.667,128.833 155,127.5C 156.329,115.5 156.996,115.5 157,127.5C 154.842,130.95 152.342,131.283 149.5,128.5C 148.583,125.242 148.249,121.909 148.5,118.5 Z"/></g>
<g><path style="opacity:1" fill="#d3d1dc" d="M 51.5,128.5 C 52.7733,129.077 52.7733,129.743 51.5,130.5C 50.537,130.03 50.537,129.363 51.5,128.5 Z"/></g>
<g><path style="opacity:1" fill="#4d4875" d="M 47.5,118.5 C 47.8333,118.5 48.1667,118.5 48.5,118.5C 48.5,132.167 48.5,145.833 48.5,159.5C 47.209,159.737 46.209,159.404 45.5,158.5C 47.4722,149.56 48.1389,140.227 47.5,130.5C 46.325,130.719 45.325,130.386 44.5,129.5C 45.2739,128.289 46.1072,128.289 47,129.5C 47.49,128.207 47.6567,126.873 47.5,125.5C 43.5,125.167 43.5,124.833 47.5,124.5C 47.5,122.5 47.5,120.5 47.5,118.5 Z"/></g>
<g><path style="opacity:1" fill="#f9bebe" d="M 118.5,135.5 C 119.812,140.015 119.812,144.682 118.5,149.5C 117.893,149.376 117.56,149.043 117.5,148.5C 118.485,144.366 118.818,140.032 118.5,135.5 Z"/></g>
<g><path style="opacity:1" fill="#f9c6c7" d="M 156.5,135.5 C 155.515,139.634 155.182,143.968 155.5,148.5C 154.188,143.985 154.188,139.318 155.5,134.5C 156.107,134.624 156.44,134.957 156.5,135.5 Z"/></g>
<g><path style="opacity:1" fill="#b8b6c7" d="M 59.5,117.5 C 59.8333,117.5 60.1667,117.5 60.5,117.5C 61.2857,127.597 62.7857,137.597 65,147.5C 66.0113,148.337 67.1779,148.67 68.5,148.5C 68.5,148.833 68.5,149.167 68.5,149.5C 66.8333,149.5 65.1667,149.5 63.5,149.5C 61.419,139.266 60.0857,128.933 59.5,118.5C 59.5,118.167 59.5,117.833 59.5,117.5 Z"/></g>
<g><path style="opacity:1" fill="#ea463e" d="M 118.5,135.5 C 118.818,140.032 118.485,144.366 117.5,148.5C 114.871,145.369 112.038,142.369 109,139.5C 108.821,142.553 108.321,145.553 107.5,148.5C 106.338,143.869 106.172,139.202 107,134.5C 110,137.5 113,140.5 116,143.5C 115.947,140.325 116.78,137.658 118.5,135.5 Z"/></g>
<g><path style="opacity:1" fill="#ee7f7b" d="M 166.5,135.5 C 167.811,139.683 167.811,144.016 166.5,148.5C 165.893,148.376 165.56,148.043 165.5,147.5C 166.483,143.702 166.817,139.702 166.5,135.5 Z"/></g>
<g><path style="opacity:1" fill="#e62725" d="M 156.5,135.5 C 159.129,138.631 161.962,141.631 165,144.5C 165.181,141.305 165.681,138.305 166.5,135.5C 166.817,139.702 166.483,143.702 165.5,147.5C 163.233,144.729 160.733,142.062 158,139.5C 158.07,142.992 157.237,145.992 155.5,148.5C 155.182,143.968 155.515,139.634 156.5,135.5 Z"/></g>
<g><path style="opacity:1" fill="#e83c34" d="M 92.5,135.5 C 99.1816,134.373 102.682,137.04 103,143.5C 99.4681,149.29 95.1348,149.957 90,145.5C 88.8613,141.579 89.6946,138.246 92.5,135.5 Z"/></g>
<g><path style="opacity:1" fill="#fcf7f7" d="M 92.5,137.5 C 99.8776,135.874 102.211,138.541 99.5,145.5C 92.3185,147.313 89.9851,144.646 92.5,137.5 Z"/></g>
<g><path style="opacity:1" fill="#e73a32" d="M 140.5,135.5 C 150.159,134.35 153.159,138.184 149.5,147C 142.864,150.396 138.864,148.562 137.5,141.5C 137.628,139.045 138.628,137.045 140.5,135.5 Z"/></g>
<g><path style="opacity:1" fill="#fdf3f3" d="M 141.5,137.5 C 148.997,136.804 150.997,139.637 147.5,146C 139.749,147.091 137.749,144.258 141.5,137.5 Z"/></g>
<g><path style="opacity:1" fill="#e7302c" d="M 123.5,135.5 C 133.818,135.322 136.151,139.489 130.5,148C 128.19,148.497 125.857,148.663 123.5,148.5C 123.5,144.167 123.5,139.833 123.5,135.5 Z"/></g>
<g><path style="opacity:1" fill="#fbf2f2" d="M 125.5,137.5 C 128.916,136.866 130.916,138.2 131.5,141.5C 131.338,145.326 129.338,146.993 125.5,146.5C 125.5,143.5 125.5,140.5 125.5,137.5 Z"/></g>
<g><path style="opacity:1" fill="#97222a" d="M 108.5,153.5 C 108.489,155.017 107.823,156.184 106.5,157C 103.305,157.181 100.305,157.681 97.5,158.5C 94.6557,159.058 91.8224,159.725 89,160.5C 86.4564,159.929 83.9564,159.262 81.5,158.5C 83.2608,157.687 84.9275,156.687 86.5,155.5C 93.5469,152.342 100.88,151.675 108.5,153.5 Z"/></g>
<g><path style="opacity:1" fill="#e29090" d="M 84.5,152.5 C 85.1667,153.5 85.8333,154.5 86.5,155.5C 84.9275,156.687 83.2608,157.687 81.5,158.5C 80.5,158.167 79.8333,157.5 79.5,156.5C 82.5876,156.803 84.2542,155.47 84.5,152.5 Z"/></g>
<g><path style="opacity:1" fill="#dba3a4" d="M 108.5,153.5 C 111.279,154.617 111.612,155.783 109.5,157C 112.17,158.724 111.837,159.891 108.5,160.5C 105.123,158.675 101.457,158.008 97.5,158.5C 100.305,157.681 103.305,157.181 106.5,157C 107.823,156.184 108.489,155.017 108.5,153.5 Z"/></g>
</svg>
