<?xml version="1.0" encoding="utf-8" ?><svg xmlns="http://www.w3.org/2000/svg" xmlns:xlink="http://www.w3.org/1999/xlink" width="342" height="512" viewBox="0 0 342 512"><path fill="#C2D3CE" transform="matrix(0.411058 0 0 0.410256 0 -1.52588e-05)" d="M0 0L832 0L832 1248L0 1248L0 0Z"/><path fill="#D22D37" transform="matrix(0.411058 0 0 0.410256 0 -1.52588e-05)" d="M339.549 909.749L339.547 909.026C339.584 897.919 342.092 880.062 343.63 868.874C355.34 783.695 390.14 703.22 451.57 642.08C531.072 562.954 639.127 535.316 748.359 535.648C748.149 542.024 748.123 548.381 748.193 554.759C748.675 598.762 747.969 642.813 748.479 686.81C677.245 688.489 613.824 692.688 544.769 713.576C525.65 719.359 511.772 725.45 493.756 731.635L493.694 940.787C442.491 940.806 389.852 941.424 338.719 940.64C338.431 931.308 338.537 919.04 339.549 909.749Z"/><path fill="#156264" transform="matrix(0.411058 0 0 0.410256 0 -1.52588e-05)" d="M339.549 909.749C340.997 904.967 341.703 900.122 343.042 895.374C345.991 884.914 349.471 872.811 353.858 862.883C376.935 810.661 420.013 768.291 470.725 742.709C478.201 738.937 486.027 734.719 493.756 731.635L493.694 940.787C442.491 940.806 389.852 941.424 338.719 940.64C338.431 931.308 338.537 919.04 339.549 909.749Z"/><path fill="#D22D37" transform="matrix(0.411058 0 0 0.410256 0 -1.52588e-05)" d="M338.334 338.54C352.414 337.564 378.255 338.37 393.098 338.39L493.432 338.461C493.319 348.562 493.329 358.254 492.533 368.342C492.607 380.783 490.453 393.953 488.877 406.325C461.902 618.107 304.99 740.505 94.6451 741.575C90.9938 741.587 87.3424 741.567 83.6914 741.516L83.7481 642.75C83.7633 625.265 83.478 606.762 83.8975 589.341C175.921 589.619 252.533 579.94 338.476 545.664C337.664 477.406 338.102 406.924 338.334 338.54Z"/><path fill="#156264" transform="matrix(0.411058 0 0 0.410256 0 -1.52588e-05)" d="M338.334 338.54C352.414 337.564 378.255 338.37 393.098 338.39L493.432 338.461C493.319 348.562 493.329 358.254 492.533 368.342L492.348 368.884C490.831 373.434 490.17 378.715 489.083 383.433C473.21 452.363 420.285 504.837 359.098 536.157C352.365 539.622 345.484 542.794 338.476 545.664C337.664 477.406 338.102 406.924 338.334 338.54Z"/></svg>