<?xml version="1.0" encoding="UTF-8"?>
<!DOCTYPE svg PUBLIC "-//W3C//DTD SVG 1.1//EN" "http://www.w3.org/Graphics/SVG/1.1/DTD/svg11.dtd">
<svg xmlns="http://www.w3.org/2000/svg" version="1.1" width="192px" height="279px" style="shape-rendering:geometricPrecision; text-rendering:geometricPrecision; image-rendering:optimizeQuality; fill-rule:evenodd; clip-rule:evenodd" xmlns:xlink="http://www.w3.org/1999/xlink">
<g><path style="opacity:1" fill="#e87aab" d="M -0.5,-0.5 C 63.5,-0.5 127.5,-0.5 191.5,-0.5C 191.5,64.1667 191.5,128.833 191.5,193.5C 187.518,191.183 184.185,188.183 181.5,184.5C 180.522,181.675 178.522,180.342 175.5,180.5C 174.292,177.478 172.958,177.145 171.5,179.5C 171.714,177.856 171.38,176.356 170.5,175C 168.527,174.505 166.527,174.338 164.5,174.5C 163.833,172.833 163.167,171.167 162.5,169.5C 161.432,166.925 159.765,164.758 157.5,163C 137.358,145.693 117.358,128.193 97.5,110.5C 98.2341,109.292 98.5674,107.959 98.5,106.5C 103.224,109.553 107.224,108.886 110.5,104.5C 112.042,105.301 113.708,105.634 115.5,105.5C 118.728,105.701 121.895,105.367 125,104.5C 126.86,106.201 129.027,107.201 131.5,107.5C 131.511,109.686 132.511,110.519 134.5,110C 135.801,108.384 135.801,106.884 134.5,105.5C 134.343,102.656 135.676,100.989 138.5,100.5C 138.366,102.292 138.699,103.958 139.5,105.5C 139.5,105.833 139.5,106.167 139.5,106.5C 136.924,106.722 136.09,108.055 137,110.5C 138.444,112.155 140.278,112.822 142.5,112.5C 143.635,114.213 145.302,114.88 147.5,114.5C 147.155,117.488 148.488,118.821 151.5,118.5C 154.845,118.489 156.511,116.822 156.5,113.5C 163.081,114.572 166.414,111.905 166.5,105.5C 168.544,106.778 170.544,106.612 172.5,105C 175.99,103.008 178.657,100.174 180.5,96.5C 179.112,92.1595 176.446,90.4928 172.5,91.5C 171.5,90.5 170.5,89.5 169.5,88.5C 170.935,86.335 170.269,84.835 167.5,84C 164.259,83.2069 161.259,83.7069 158.5,85.5C 156.585,85.7845 154.919,85.4511 153.5,84.5C 157.013,82.0917 157.346,79.2583 154.5,76C 148.669,74.3341 146.002,76.5008 146.5,82.5C 145.448,82.6495 144.448,82.4828 143.5,82C 146.349,77.64 145.016,75.4734 139.5,75.5C 139.062,75.5654 138.728,75.3988 138.5,75C 140.615,74.5756 141.448,73.4089 141,71.5C 139.301,70.5939 137.467,70.2606 135.5,70.5C 131.534,68.6792 128.201,69.3459 125.5,72.5C 120.81,66.3075 115.643,65.9742 110,71.5C 109.297,73.9291 109.463,76.2625 110.5,78.5C 110.018,79.4163 109.685,80.4163 109.5,81.5C 111.449,83.7918 112.449,86.4585 112.5,89.5C 106.512,89.664 105.179,92.164 108.5,97C 109.793,97.49 111.127,97.6567 112.5,97.5C 112.5,98.8333 112.5,100.167 112.5,101.5C 111.833,101.833 111.167,102.167 110.5,102.5C 108.467,97.2036 105.634,96.2036 102,99.5C 101.667,98.8333 101.333,98.1667 101,97.5C 100.329,98.2524 99.4959,98.5858 98.5,98.5C 97.8716,95.0451 95.8716,93.8785 92.5,95C 90.1656,96.8425 89.8323,99.0091 91.5,101.5C 90.391,101.557 89.391,101.89 88.5,102.5C 85.4275,100.431 83.0941,97.7642 81.5,94.5C 86.8333,95.1667 89.1667,92.8333 88.5,87.5C 91.3475,84.5051 90.6808,82.5051 86.5,81.5C 84.8247,81.8684 83.8247,82.8684 83.5,84.5C 77.6192,84.3714 75.6192,87.038 77.5,92.5C 75.3894,90.369 73.0561,88.7023 70.5,87.5C 69.1667,85.8333 67.8333,84.1667 66.5,82.5C 66.1667,82.5 65.8333,82.5 65.5,82.5C 44.2149,62.225 22.2149,42.5583 -0.5,23.5C -0.5,15.5 -0.5,7.5 -0.5,-0.5 Z"/></g>
<g><path style="opacity:1" fill="#2c2281" d="M 98.5,68.5 C 107.361,67.823 110.027,71.323 106.5,79C 100.489,82.1829 96.8227,80.5162 95.5,74C 95.8627,71.8077 96.8627,69.9744 98.5,68.5 Z"/></g>
<g><path style="opacity:1" fill="#e10f7d" d="M 125.5,72.5 C 125.5,73.5 125.5,74.5 125.5,75.5C 124.527,79.1391 122.194,81.1391 118.5,81.5C 117.078,77.5359 114.411,76.5359 110.5,78.5C 109.463,76.2625 109.297,73.9291 110,71.5C 115.643,65.9742 120.81,66.3075 125.5,72.5 Z"/></g>
<g><path style="opacity:1" fill="#2d2381" d="M 135.5,70.5 C 136.833,76.5 134.5,78.8333 128.5,77.5C 127.5,76.8333 126.5,76.1667 125.5,75.5C 125.5,74.5 125.5,73.5 125.5,72.5C 128.201,69.3459 131.534,68.6792 135.5,70.5 Z"/></g>
<g><path style="opacity:1" fill="#4caee5" d="M 83.5,70.5 C 87.4589,69.5778 89.7922,71.0778 90.5,75C 88.7873,78.5175 86.1206,79.3508 82.5,77.5C 81.1544,74.9004 81.4877,72.5671 83.5,70.5 Z"/></g>
<g><path style="opacity:1" fill="#e01581" d="M 59.5,71.5 C 60.8333,71.5 62.1667,71.5 63.5,71.5C 63.5,72.8333 63.5,74.1667 63.5,75.5C 60.5,75.8333 59.1667,74.5 59.5,71.5 Z"/></g>
<g><path style="opacity:1" fill="#df0d7e" d="M 153.5,84.5 C 153.389,83.8826 153.056,83.3826 152.5,83C 150.276,82.9605 148.276,82.7938 146.5,82.5C 146.002,76.5008 148.669,74.3341 154.5,76C 157.346,79.2583 157.013,82.0917 153.5,84.5 Z"/></g>
<g><path style="opacity:1" fill="#e076a8" d="M 125.5,75.5 C 126.5,76.1667 127.5,76.8333 128.5,77.5C 127.463,79.7375 127.297,82.0709 128,84.5C 128.417,85.756 129.25,86.4226 130.5,86.5C 130.5,88.8333 130.5,91.1667 130.5,93.5C 133.453,93.8504 135.787,92.8504 137.5,90.5C 137.517,92.5648 137.85,94.5648 138.5,96.5C 134.24,93.3197 131.24,94.3197 129.5,99.5C 128.961,96.8336 127.628,94.6669 125.5,93C 121.846,91.6393 118.179,91.1393 114.5,91.5C 115.628,90.7379 116.795,90.0712 118,89.5C 117.761,86.7513 117.928,84.0847 118.5,81.5C 122.194,81.1391 124.527,79.1391 125.5,75.5 Z"/></g>
<g><path style="opacity:1" fill="#db087b" d="M 135.5,70.5 C 137.467,70.2606 139.301,70.5939 141,71.5C 141.448,73.4089 140.615,74.5756 138.5,75C 138.728,75.3988 139.062,75.5654 139.5,75.5C 136.424,79.4273 137.424,81.9273 142.5,83C 141.944,83.3826 141.611,83.8826 141.5,84.5C 139.958,85.3007 138.292,85.634 136.5,85.5C 134.379,85.3253 132.379,85.6586 130.5,86.5C 129.25,86.4226 128.417,85.756 128,84.5C 127.297,82.0709 127.463,79.7375 128.5,77.5C 134.5,78.8333 136.833,76.5 135.5,70.5 Z"/></g>
<g><path style="opacity:1" fill="#eb94bc" d="M -0.5,23.5 C 22.2149,42.5583 44.2149,62.225 65.5,82.5C 58.7617,83.0611 57.0951,86.2278 60.5,92C 62.1341,92.4935 63.8008,92.6602 65.5,92.5C 66.973,90.6053 68.6397,88.9387 70.5,87.5C 73.0561,88.7023 75.3894,90.369 77.5,92.5C 78.6049,93.6005 79.9382,94.2671 81.5,94.5C 83.0941,97.7642 85.4275,100.431 88.5,102.5C 88.5674,103.959 88.2341,105.292 87.5,106.5C 85.1489,108.07 82.4823,108.903 79.5,109C 78.5,110 77.5,111 76.5,112C 71.2565,111.564 66.7565,113.064 63,116.5C 59.6131,125.398 62.6131,130.398 72,131.5C 79.2139,130.788 83.3806,126.788 84.5,119.5C 87.4263,116.584 90.0929,113.584 92.5,110.5C 94.1667,110.5 95.8333,110.5 97.5,110.5C 117.358,128.193 137.358,145.693 157.5,163C 159.765,164.758 161.432,166.925 162.5,169.5C 159.904,168.735 157.237,168.401 154.5,168.5C 155.271,165.417 153.937,163.417 150.5,162.5C 147.206,163.136 145.873,165.136 146.5,168.5C 143.547,168.15 141.213,169.15 139.5,171.5C 119.528,161.014 99.1951,151.347 78.5,142.5C 78.2772,140.246 77.9439,137.912 77.5,135.5C 76.8589,136.993 75.8589,137.993 74.5,138.5C 72.2972,138.396 70.2972,137.73 68.5,136.5C 68.5479,133.708 67.2146,131.875 64.5,131C 62.1152,130.444 59.7819,130.61 57.5,131.5C 53.6733,129.754 50.0066,127.754 46.5,125.5C 44.7028,124.27 42.7028,123.604 40.5,123.5C 37.8716,121.519 34.8716,120.019 31.5,119C 32.4158,118.722 33.0825,118.222 33.5,117.5C 37.8847,113.704 37.218,111.037 31.5,109.5C 27.5193,110.499 26.186,112.832 27.5,116.5C 18.042,112.466 8.70862,108.133 -0.5,103.5C -0.5,76.8333 -0.5,50.1667 -0.5,23.5 Z"/></g>
<g><path style="opacity:1" fill="#3c2984" d="M 66.5,82.5 C 66.3852,77.6724 68.5519,76.3391 73,78.5C 73.5946,79.8989 73.4279,81.2322 72.5,82.5C 70.4844,83.6942 68.4844,83.6942 66.5,82.5 Z"/></g>
<g><path style="opacity:1" fill="#b1a7b3" d="M 18.5,80.5 C 19.8333,80.5 21.1667,80.5 22.5,80.5C 22.5,81.8333 22.5,83.1667 22.5,84.5C 21.1667,84.5 19.8333,84.5 18.5,84.5C 18.5,83.1667 18.5,81.8333 18.5,80.5 Z"/></g>
<g><path style="opacity:1" fill="#aea7b3" d="M 65.5,82.5 C 65.8333,82.5 66.1667,82.5 66.5,82.5C 67.8333,84.1667 69.1667,85.8333 70.5,87.5C 68.6397,88.9387 66.973,90.6053 65.5,92.5C 63.8008,92.6602 62.1341,92.4935 60.5,92C 57.0951,86.2278 58.7617,83.0611 65.5,82.5 Z"/></g>
<g><path style="opacity:1" fill="#3a2380" d="M 88.5,87.5 C 86.0107,87.7593 84.344,86.7593 83.5,84.5C 83.8247,82.8684 84.8247,81.8684 86.5,81.5C 90.6808,82.5051 91.3475,84.5051 88.5,87.5 Z"/></g>
<g><path style="opacity:1" fill="#312280" d="M 139.5,75.5 C 145.016,75.4734 146.349,77.64 143.5,82C 144.448,82.4828 145.448,82.6495 146.5,82.5C 148.276,82.7938 150.276,82.9605 152.5,83C 153.056,83.3826 153.389,83.8826 153.5,84.5C 154.919,85.4511 156.585,85.7845 158.5,85.5C 159.479,87.1454 160.812,88.4787 162.5,89.5C 164.747,88.6258 167.08,88.2924 169.5,88.5C 170.5,89.5 171.5,90.5 172.5,91.5C 173.181,98.0231 170.181,100.69 163.5,99.5C 161.607,96.64 159.107,95.9733 156,97.5C 154.167,97.4814 152.667,96.8148 151.5,95.5C 151.167,95.5 150.833,95.5 150.5,95.5C 149.781,93.2362 149.448,90.9029 149.5,88.5C 148.5,88.5 147.5,88.5 146.5,88.5C 145.167,88.5 143.833,88.5 142.5,88.5C 141.766,87.2921 141.433,85.9587 141.5,84.5C 141.611,83.8826 141.944,83.3826 142.5,83C 137.424,81.9273 136.424,79.4273 139.5,75.5 Z"/></g>
<g><path style="opacity:1" fill="#d2127a" d="M 169.5,88.5 C 167.08,88.2924 164.747,88.6258 162.5,89.5C 160.812,88.4787 159.479,87.1454 158.5,85.5C 161.259,83.7069 164.259,83.2069 167.5,84C 170.269,84.835 170.935,86.335 169.5,88.5 Z"/></g>
<g><path style="opacity:1" fill="#e00e7d" d="M 83.5,84.5 C 84.344,86.7593 86.0107,87.7593 88.5,87.5C 89.1667,92.8333 86.8333,95.1667 81.5,94.5C 79.9382,94.2671 78.6049,93.6005 77.5,92.5C 75.6192,87.038 77.6192,84.3714 83.5,84.5 Z"/></g>
<g><path style="opacity:1" fill="#49ade6" d="M 105.5,89.5 C 103.498,88.0049 101.498,87.3382 99.5,87.5C 99.6518,83.5134 101.652,82.0134 105.5,83C 108.134,85.2933 108.134,87.46 105.5,89.5 Z"/></g>
<g><path style="opacity:1" fill="#352582" d="M 136.5,85.5 C 137.301,87.0418 137.634,88.7085 137.5,90.5C 135.787,92.8504 133.453,93.8504 130.5,93.5C 130.5,91.1667 130.5,88.8333 130.5,86.5C 132.379,85.6586 134.379,85.3253 136.5,85.5 Z"/></g>
<g><path style="opacity:1" fill="#cf6ba3" d="M 141.5,84.5 C 141.433,85.9587 141.766,87.2921 142.5,88.5C 140.486,88.3915 138.82,89.0582 137.5,90.5C 137.634,88.7085 137.301,87.0418 136.5,85.5C 138.292,85.634 139.958,85.3007 141.5,84.5 Z"/></g>
<g><path style="opacity:1" fill="#735da4" d="M 99.5,87.5 C 101.498,87.3382 103.498,88.0049 105.5,89.5C 104.054,90.6129 102.387,90.7796 100.5,90C 99.7476,89.3292 99.4142,88.4959 99.5,87.5 Z"/></g>
<g><path style="opacity:1" fill="#de0f7d" d="M 142.5,88.5 C 143.833,88.5 145.167,88.5 146.5,88.5C 147.688,90.9885 149.021,93.3218 150.5,95.5C 150.833,95.5 151.167,95.5 151.5,95.5C 152.758,97.6869 153.758,100.02 154.5,102.5C 151.775,106.631 152.442,110.298 156.5,113.5C 156.511,116.822 154.845,118.489 151.5,118.5C 148.488,118.821 147.155,117.488 147.5,114.5C 150.322,113.211 150.989,111.211 149.5,108.5C 146.145,107.484 142.812,106.484 139.5,105.5C 138.699,103.958 138.366,102.292 138.5,100.5C 139.833,99.1667 139.833,97.8333 138.5,96.5C 137.85,94.5648 137.517,92.5648 137.5,90.5C 138.82,89.0582 140.486,88.3915 142.5,88.5 Z"/></g>
<g><path style="opacity:1" fill="#2f2381" d="M 118.5,81.5 C 117.928,84.0847 117.761,86.7513 118,89.5C 116.795,90.0712 115.628,90.7379 114.5,91.5C 118.179,91.1393 121.846,91.6393 125.5,93C 127.628,94.6669 128.961,96.8336 129.5,99.5C 131.24,94.3197 134.24,93.3197 138.5,96.5C 139.833,97.8333 139.833,99.1667 138.5,100.5C 135.676,100.989 134.343,102.656 134.5,105.5C 133.29,105.932 132.29,106.599 131.5,107.5C 129.027,107.201 126.86,106.201 125,104.5C 121.895,105.367 118.728,105.701 115.5,105.5C 114.488,104.128 113.488,102.795 112.5,101.5C 112.5,100.167 112.5,98.8333 112.5,97.5C 111.127,97.6567 109.793,97.49 108.5,97C 105.179,92.164 106.512,89.664 112.5,89.5C 112.449,86.4585 111.449,83.7918 109.5,81.5C 109.685,80.4163 110.018,79.4163 110.5,78.5C 114.411,76.5359 117.078,77.5359 118.5,81.5 Z"/></g>
<g><path style="opacity:1" fill="#e21880" d="M 40.5,84.5 C 46.8263,82.8411 49.8263,85.1744 49.5,91.5C 54.0685,91.0826 55.5685,93.0826 54,97.5C 49.6841,99.6014 47.1841,98.268 46.5,93.5C 41.9167,95.2084 38.9167,93.7084 37.5,89C 37.9567,87.0598 38.9567,85.5598 40.5,84.5 Z"/></g>
<g><path style="opacity:1" fill="#e20f7d" d="M 65.5,92.5 C 73.7904,89.9586 77.2904,92.9586 76,101.5C 70.1928,105.863 65.6928,104.696 62.5,98C 63.1242,95.9149 64.1242,94.0816 65.5,92.5 Z"/></g>
<g><path style="opacity:1" fill="#e0097c" d="M 166.5,105.5 C 165.5,104.167 164.5,102.833 163.5,101.5C 163.5,100.833 163.5,100.167 163.5,99.5C 170.181,100.69 173.181,98.0231 172.5,91.5C 176.446,90.4928 179.112,92.1595 180.5,96.5C 178.657,100.174 175.99,103.008 172.5,105C 170.544,106.612 168.544,106.778 166.5,105.5 Z"/></g>
<g><path style="opacity:1" fill="#e178a9" d="M 146.5,88.5 C 147.5,88.5 148.5,88.5 149.5,88.5C 149.448,90.9029 149.781,93.2362 150.5,95.5C 149.021,93.3218 147.688,90.9885 146.5,88.5 Z"/></g>
<g><path style="opacity:1" fill="#e12182" d="M 24.5,94.5 C 27.5036,94.3347 29.5036,95.6681 30.5,98.5C 28.9973,102.162 26.4973,103.162 23,101.5C 22.185,98.8018 22.685,96.4685 24.5,94.5 Z"/></g>
<g><path style="opacity:1" fill="#2c2177" d="M 98.5,98.5 C 97.8333,99.5 97.1667,100.5 96.5,101.5C 94.8333,101.5 93.1667,101.5 91.5,101.5C 89.8323,99.0091 90.1656,96.8425 92.5,95C 95.8716,93.8785 97.8716,95.0451 98.5,98.5 Z"/></g>
<g><path style="opacity:1" fill="#e374a8" d="M 151.5,95.5 C 152.667,96.8148 154.167,97.4814 156,97.5C 159.107,95.9733 161.607,96.64 163.5,99.5C 163.5,100.167 163.5,100.833 163.5,101.5C 162.183,101.179 160.849,100.846 159.5,100.5C 157.823,101.187 156.156,101.854 154.5,102.5C 153.758,100.02 152.758,97.6869 151.5,95.5 Z"/></g>
<g><path style="opacity:1" fill="#50a7e1" d="M 110.5,102.5 C 110.5,103.167 110.5,103.833 110.5,104.5C 107.224,108.886 103.224,109.553 98.5,106.5C 98.8799,104.302 98.2132,102.635 96.5,101.5C 97.1667,100.5 97.8333,99.5 98.5,98.5C 99.4959,98.5858 100.329,98.2524 101,97.5C 101.333,98.1667 101.667,98.8333 102,99.5C 105.634,96.2036 108.467,97.2036 110.5,102.5 Z"/></g>
<g><path style="opacity:1" fill="#2c2281" d="M 52.5,109.5 C 52.5,108.833 52.5,108.167 52.5,107.5C 53.123,102.712 55.7897,100.879 60.5,102C 63.9779,104.706 64.3112,107.706 61.5,111C 58.1769,111.932 55.1769,111.432 52.5,109.5 Z"/></g>
<g><path style="opacity:1" fill="#d70b7a" d="M 91.5,101.5 C 93.1667,101.5 94.8333,101.5 96.5,101.5C 98.2132,102.635 98.8799,104.302 98.5,106.5C 98.5674,107.959 98.2341,109.292 97.5,110.5C 95.8333,110.5 94.1667,110.5 92.5,110.5C 91.7939,108.124 90.1273,106.79 87.5,106.5C 88.2341,105.292 88.5674,103.959 88.5,102.5C 89.391,101.89 90.391,101.557 91.5,101.5 Z"/></g>
<g><path style="opacity:1" fill="#c52383" d="M 112.5,101.5 C 113.488,102.795 114.488,104.128 115.5,105.5C 113.708,105.634 112.042,105.301 110.5,104.5C 110.5,103.833 110.5,103.167 110.5,102.5C 111.167,102.167 111.833,101.833 112.5,101.5 Z"/></g>
<g><path style="opacity:1" fill="#2d227c" d="M 163.5,101.5 C 164.5,102.833 165.5,104.167 166.5,105.5C 166.414,111.905 163.081,114.572 156.5,113.5C 152.442,110.298 151.775,106.631 154.5,102.5C 156.156,101.854 157.823,101.187 159.5,100.5C 160.849,100.846 162.183,101.179 163.5,101.5 Z"/></g>
<g><path style="opacity:1" fill="#eea7c8" d="M -0.5,103.5 C 8.70862,108.133 18.042,112.466 27.5,116.5C 29.4352,117.15 31.4352,117.483 33.5,117.5C 33.0825,118.222 32.4158,118.722 31.5,119C 34.8716,120.019 37.8716,121.519 40.5,123.5C 34.7715,125.977 34.1049,129.477 38.5,134C 45.5934,135.078 48.2601,132.245 46.5,125.5C 50.0066,127.754 53.6733,129.754 57.5,131.5C 55.5364,135.849 56.5364,139.349 60.5,142C 57.1667,147 58.5,149.333 64.5,149C 67.1715,146.321 66.8382,143.988 63.5,142C 66.079,140.924 67.7457,139.091 68.5,136.5C 70.2972,137.73 72.2972,138.396 74.5,138.5C 77.2869,140.205 76.9535,141.372 73.5,142C 75.4025,142.199 76.9025,143.033 78,144.5C 78.4643,143.906 78.631,143.239 78.5,142.5C 99.1951,151.347 119.528,161.014 139.5,171.5C 139.5,172.167 139.5,172.833 139.5,173.5C 137.62,173.229 136.287,173.896 135.5,175.5C 132.23,176.389 129.23,177.723 126.5,179.5C 122.458,177.913 118.625,178.246 115,180.5C 110.57,179.345 106.07,178.678 101.5,178.5C 99.7867,176.15 97.4534,175.15 94.5,175.5C 93.8559,172.196 91.8559,170.862 88.5,171.5C 88.7673,166.262 86.2673,163.262 81,162.5C 75.7327,163.262 73.2327,166.262 73.5,171.5C 76.3809,173.741 78.0475,176.741 78.5,180.5C 77.6431,181.425 76.6431,182.092 75.5,182.5C 74.596,181.791 74.2627,180.791 74.5,179.5C 72.901,179.232 71.5676,179.566 70.5,180.5C 68.9991,179.248 67.3325,178.248 65.5,177.5C 65.5,176.5 65.5,175.5 65.5,174.5C 64.1667,174.5 62.8333,174.5 61.5,174.5C 61.5,175.5 61.5,176.5 61.5,177.5C 58.8021,177.845 56.8021,179.178 55.5,181.5C 55.1667,181.5 54.8333,181.5 54.5,181.5C 56.1067,178.222 55.7733,175.222 53.5,172.5C 60.4102,173.244 63.5769,170.244 63,163.5C 59.4321,159.062 55.2654,158.395 50.5,161.5C 47.9524,164.793 47.9524,168.127 50.5,171.5C 49.448,171.351 48.448,171.517 47.5,172C 45.635,174.194 43.9683,176.36 42.5,178.5C 43.4124,177.262 43.5791,175.928 43,174.5C 41.1852,173.756 39.3519,173.089 37.5,172.5C 34.5436,169.848 31.5436,169.848 28.5,172.5C 18.9369,170.403 9.27023,168.403 -0.5,166.5C -0.5,145.5 -0.5,124.5 -0.5,103.5 Z"/></g>
<g><path style="opacity:1" fill="#e1107e" d="M 52.5,107.5 C 52.5,108.167 52.5,108.833 52.5,109.5C 51.4761,113.347 49.1428,114.347 45.5,112.5C 44.2404,110.647 44.2404,108.814 45.5,107C 47.9291,106.297 50.2625,106.463 52.5,107.5 Z"/></g>
<g><path style="opacity:1" fill="#de2786" d="M 67.5,107.5 C 74.0853,108.682 74.0853,110.015 67.5,111.5C 67.5,110.167 67.5,108.833 67.5,107.5 Z"/></g>
<g><path style="opacity:1" fill="#dd167e" d="M 134.5,105.5 C 135.801,106.884 135.801,108.384 134.5,110C 132.511,110.519 131.511,109.686 131.5,107.5C 132.29,106.599 133.29,105.932 134.5,105.5 Z"/></g>
<g><path style="opacity:1" fill="#4eaae2" d="M 139.5,106.5 C 140.496,106.414 141.329,106.748 142,107.5C 142.494,109.134 142.66,110.801 142.5,112.5C 140.278,112.822 138.444,112.155 137,110.5C 136.09,108.055 136.924,106.722 139.5,106.5 Z"/></g>
<g><path style="opacity:1" fill="#2a217f" d="M 87.5,106.5 C 90.1273,106.79 91.7939,108.124 92.5,110.5C 90.0929,113.584 87.4263,116.584 84.5,119.5C 83.3806,126.788 79.2139,130.788 72,131.5C 62.6131,130.398 59.6131,125.398 63,116.5C 66.7565,113.064 71.2565,111.564 76.5,112C 77.5,111 78.5,110 79.5,109C 82.4823,108.903 85.1489,108.07 87.5,106.5 Z"/></g>
<g><path style="opacity:1" fill="#382380" d="M 139.5,106.5 C 139.5,106.167 139.5,105.833 139.5,105.5C 142.812,106.484 146.145,107.484 149.5,108.5C 150.989,111.211 150.322,113.211 147.5,114.5C 145.302,114.88 143.635,114.213 142.5,112.5C 142.66,110.801 142.494,109.134 142,107.5C 141.329,106.748 140.496,106.414 139.5,106.5 Z"/></g>
<g><path style="opacity:1" fill="#b0a7b3" d="M 33.5,117.5 C 31.4352,117.483 29.4352,117.15 27.5,116.5C 26.186,112.832 27.5193,110.499 31.5,109.5C 37.218,111.037 37.8847,113.704 33.5,117.5 Z"/></g>
<g><path style="opacity:1" fill="#e21f84" d="M 2.5,114.5 C 4.19919,114.34 5.86586,114.506 7.5,115C 8.81328,118.692 7.47994,120.359 3.5,120C 1.3652,118.444 1.03187,116.611 2.5,114.5 Z"/></g>
<g><path style="opacity:1" fill="#ada8b3" d="M 54.5,118.5 C 59.2129,118.468 60.7129,120.801 59,125.5C 55.7473,127.967 53.5807,127.134 52.5,123C 52.5186,121.167 53.1852,119.667 54.5,118.5 Z"/></g>
<g><path style="opacity:1" fill="#e31e81" d="M 40.5,123.5 C 42.7028,123.604 44.7028,124.27 46.5,125.5C 48.2601,132.245 45.5934,135.078 38.5,134C 34.1049,129.477 34.7715,125.977 40.5,123.5 Z"/></g>
<g><path style="opacity:1" fill="#332683" d="M 14.5,128.5 C 20.3596,127.074 22.3596,129.074 20.5,134.5C 14.4875,136.454 12.4875,134.454 14.5,128.5 Z"/></g>
<g><path style="opacity:1" fill="#51ade4" d="M 29.5,129.5 C 32.1662,129.066 33.3329,130.066 33,132.5C 31.8173,133.731 30.6507,133.731 29.5,132.5C 28.2086,131.473 28.2086,130.473 29.5,129.5 Z"/></g>
<g><path style="opacity:1" fill="#2e2381" d="M 68.5,136.5 C 67.7457,139.091 66.079,140.924 63.5,142C 66.8382,143.988 67.1715,146.321 64.5,149C 58.5,149.333 57.1667,147 60.5,142C 56.5364,139.349 55.5364,135.849 57.5,131.5C 59.7819,130.61 62.1152,130.444 64.5,131C 67.2146,131.875 68.5479,133.708 68.5,136.5 Z"/></g>
<g><path style="opacity:1" fill="#312481" d="M 48.5,132.5 C 53.6978,132.081 55.3645,134.248 53.5,139C 47.2435,139.934 45.5769,137.767 48.5,132.5 Z"/></g>
<g><path style="opacity:1" fill="#afa8b3" d="M 37.5,135.5 C 41.6953,135.031 44.6953,136.698 46.5,140.5C 42.8832,148.233 38.8832,148.399 34.5,141C 35.7577,139.259 36.7577,137.426 37.5,135.5 Z"/></g>
<g><path style="opacity:1" fill="#b6a1b4" d="M 78.5,142.5 C 78.631,143.239 78.4643,143.906 78,144.5C 76.9025,143.033 75.4025,142.199 73.5,142C 76.9535,141.372 77.2869,140.205 74.5,138.5C 75.8589,137.993 76.8589,136.993 77.5,135.5C 77.9439,137.912 78.2772,140.246 78.5,142.5 Z"/></g>
<g><path style="opacity:1" fill="#31247c" d="M 70.5,158.5 C 68.2947,156.637 66.9613,154.303 66.5,151.5C 67.6249,145.908 70.9582,144.074 76.5,146C 81.4032,149.272 81.7365,152.939 77.5,157C 75.3225,158.202 72.9892,158.702 70.5,158.5 Z"/></g>
<g><path style="opacity:1" fill="#e31e83" d="M 16.5,147.5 C 18.1667,147.5 19.8333,147.5 21.5,147.5C 21.9854,152.159 20.152,153.492 16,151.5C 15.4209,150.072 15.5876,148.738 16.5,147.5 Z"/></g>
<g><path style="opacity:1" fill="#4daee4" d="M 44.5,150.5 C 49.2664,151.158 50.5997,153.658 48.5,158C 42.9057,159.913 40.739,158.08 42,152.5C 42.9947,151.934 43.828,151.267 44.5,150.5 Z"/></g>
<g><path style="opacity:1" fill="#e01982" d="M 64.5,152.5 C 65.7729,154.713 66.7729,157.046 67.5,159.5C 62.6766,159.673 60.6766,157.339 61.5,152.5C 62.5,152.5 63.5,152.5 64.5,152.5 Z"/></g>
<g><path style="opacity:1" fill="#342683" d="M 29.5,153.5 C 36.494,153.415 38.1607,156.248 34.5,162C 26.1836,162.838 24.517,160.004 29.5,153.5 Z"/></g>
<g><path style="opacity:1" fill="#ce69a5" d="M 66.5,151.5 C 66.9613,154.303 68.2947,156.637 70.5,158.5C 69.609,159.11 68.609,159.443 67.5,159.5C 66.7729,157.046 65.7729,154.713 64.5,152.5C 65.1667,152.167 65.8333,151.833 66.5,151.5 Z"/></g>
<g><path style="opacity:1" fill="#312582" d="M 53.5,172.5 C 52.609,171.89 51.609,171.557 50.5,171.5C 47.9524,168.127 47.9524,164.793 50.5,161.5C 55.2654,158.395 59.4321,159.062 63,163.5C 63.5769,170.244 60.4102,173.244 53.5,172.5 Z"/></g>
<g><path style="opacity:1" fill="#312582" d="M 94.5,175.5 C 94.2503,177.674 93.2503,179.341 91.5,180.5C 89.7376,180.643 88.0709,180.309 86.5,179.5C 85.5,179.833 84.8333,180.5 84.5,181.5C 85.3715,184.032 85.7048,186.365 85.5,188.5C 86.9688,186.364 88.9688,185.03 91.5,184.5C 92.8333,184.5 94.1667,184.5 95.5,184.5C 100.323,187.954 100.656,191.787 96.5,196C 92.5138,196.499 88.5138,196.666 84.5,196.5C 81.7026,196.033 80.3692,194.367 80.5,191.5C 81.0431,191.44 81.3764,191.107 81.5,190.5C 79.6136,189.594 77.7803,188.594 76,187.5C 75.5065,185.866 75.3398,184.199 75.5,182.5C 76.6431,182.092 77.6431,181.425 78.5,180.5C 78.0475,176.741 76.3809,173.741 73.5,171.5C 73.2327,166.262 75.7327,163.262 81,162.5C 86.2673,163.262 88.7673,166.262 88.5,171.5C 91.8559,170.862 93.8559,172.196 94.5,175.5 Z"/></g>
<g><path style="opacity:1" fill="#f3bad4" d="M -0.5,166.5 C 9.27023,168.403 18.9369,170.403 28.5,172.5C 28.418,175.585 29.918,177.252 33,177.5C 36.082,177.252 37.582,175.585 37.5,172.5C 39.3519,173.089 41.1852,173.756 43,174.5C 43.5791,175.928 43.4124,177.262 42.5,178.5C 38.8539,179.462 37.6872,181.795 39,185.5C 43.1817,188.553 46.6817,187.886 49.5,183.5C 51.0217,182.438 52.6883,181.771 54.5,181.5C 54.8333,181.5 55.1667,181.5 55.5,181.5C 54.1667,183.833 54.1667,186.167 55.5,188.5C 55.3022,191.77 56.8022,193.77 60,194.5C 60.9947,193.934 61.828,193.267 62.5,192.5C 69.706,191.324 72.3727,187.324 70.5,180.5C 71.5676,179.566 72.901,179.232 74.5,179.5C 74.2627,180.791 74.596,181.791 75.5,182.5C 75.3398,184.199 75.5065,185.866 76,187.5C 77.7803,188.594 79.6136,189.594 81.5,190.5C 81.3764,191.107 81.0431,191.44 80.5,191.5C 73.8962,193.342 72.8962,196.842 77.5,202C 80.1667,202.667 82.8333,202.667 85.5,202C 88.1017,199.688 87.7684,197.855 84.5,196.5C 88.5138,196.666 92.5138,196.499 96.5,196C 100.656,191.787 100.323,187.954 95.5,184.5C 96.609,184.443 97.609,184.11 98.5,183.5C 98.6574,186.318 99.9908,188.318 102.5,189.5C 103.442,192.42 104.776,195.086 106.5,197.5C 102.69,196.976 100.69,198.643 100.5,202.5C 95.207,204.749 94.207,208.249 97.5,213C 103.127,215.682 107.127,214.182 109.5,208.5C 109.547,206.962 108.88,205.962 107.5,205.5C 107.5,204.833 107.5,204.167 107.5,203.5C 108.167,203.167 108.833,202.833 109.5,202.5C 111.582,202.528 113.416,201.861 115,200.5C 114.563,202.757 114.063,205.09 113.5,207.5C 111.516,207.484 110.516,208.484 110.5,210.5C 111.1,212.468 112.433,213.468 114.5,213.5C 113.433,215.677 114.266,217.011 117,217.5C 120.285,217.3 121.118,215.8 119.5,213C 122.276,212.934 124.442,211.768 126,209.5C 128.06,216.065 131.56,217.065 136.5,212.5C 137.313,210.739 138.313,209.072 139.5,207.5C 141.97,208.878 144.304,208.545 146.5,206.5C 146.833,206.5 147.167,206.5 147.5,206.5C 148.492,208.026 149.992,208.693 152,208.5C 154.626,208.95 156.126,207.95 156.5,205.5C 159.833,205.5 161.5,203.833 161.5,200.5C 166.422,202.624 170.089,201.291 172.5,196.5C 178.81,197.941 185.143,199.274 191.5,200.5C 191.5,226.5 191.5,252.5 191.5,278.5C 127.5,278.5 63.5,278.5 -0.5,278.5C -0.5,241.167 -0.5,203.833 -0.5,166.5 Z"/></g>
<g><path style="opacity:1" fill="#aea7b2" d="M 154.5,168.5 C 157.237,168.401 159.904,168.735 162.5,169.5C 163.167,171.167 163.833,172.833 164.5,174.5C 163.078,178.217 160.411,180.551 156.5,181.5C 155.833,181.5 155.167,181.5 154.5,181.5C 154.431,178.916 153.265,176.916 151,175.5C 150.506,173.866 150.34,172.199 150.5,170.5C 152.38,170.771 153.713,170.104 154.5,168.5 Z"/></g>
<g><path style="opacity:1" fill="#41aee7" d="M 4.5,168.5 C 9.72417,168.369 10.5575,170.036 7,173.5C 5.98873,172.663 4.82207,172.33 3.5,172.5C 3.43255,171.041 3.76589,169.708 4.5,168.5 Z"/></g>
<g><path style="opacity:1" fill="#e10f7d" d="M 154.5,168.5 C 153.713,170.104 152.38,170.771 150.5,170.5C 146.475,174.35 146.808,178.183 151.5,182C 152.448,182.483 153.448,182.649 154.5,182.5C 154.296,184.685 153.63,186.685 152.5,188.5C 152.167,188.5 151.833,188.5 151.5,188.5C 150.5,188.5 149.5,188.5 148.5,188.5C 146.521,186.832 144.188,186.166 141.5,186.5C 141.167,185.5 140.5,184.833 139.5,184.5C 139.5,184.167 139.5,183.833 139.5,183.5C 139.629,181.784 139.962,180.117 140.5,178.5C 141.93,176.545 141.597,174.879 139.5,173.5C 139.5,172.833 139.5,172.167 139.5,171.5C 141.213,169.15 143.547,168.15 146.5,168.5C 145.873,165.136 147.206,163.136 150.5,162.5C 153.937,163.417 155.271,165.417 154.5,168.5 Z"/></g>
<g><path style="opacity:1" fill="#e21780" d="M 37.5,172.5 C 37.582,175.585 36.082,177.252 33,177.5C 29.918,177.252 28.418,175.585 28.5,172.5C 31.5436,169.848 34.5436,169.848 37.5,172.5 Z"/></g>
<g><path style="opacity:1" fill="#e02384" d="M 73.5,171.5 C 73.5,172.833 73.5,174.167 73.5,175.5C 71.8008,175.66 70.1341,175.494 68.5,175C 67.0099,169.437 68.6766,168.27 73.5,171.5 Z"/></g>
<g><path style="opacity:1" fill="#e2107d" d="M 50.5,171.5 C 51.609,171.557 52.609,171.89 53.5,172.5C 55.7733,175.222 56.1067,178.222 54.5,181.5C 52.6883,181.771 51.0217,182.438 49.5,183.5C 46.6817,187.886 43.1817,188.553 39,185.5C 37.6872,181.795 38.8539,179.462 42.5,178.5C 43.9683,176.36 45.635,174.194 47.5,172C 48.448,171.517 49.448,171.351 50.5,171.5 Z"/></g>
<g><path style="opacity:1" fill="#d2097c" d="M 65.5,177.5 C 64.1667,177.5 62.8333,177.5 61.5,177.5C 61.5,176.5 61.5,175.5 61.5,174.5C 62.8333,174.5 64.1667,174.5 65.5,174.5C 65.5,175.5 65.5,176.5 65.5,177.5 Z"/></g>
<g><path style="opacity:1" fill="#312381" d="M 139.5,173.5 C 141.597,174.879 141.93,176.545 140.5,178.5C 139.167,178.5 137.833,178.5 136.5,178.5C 135.596,177.791 135.263,176.791 135.5,175.5C 136.287,173.896 137.62,173.229 139.5,173.5 Z"/></g>
<g><path style="opacity:1" fill="#d71e7e" d="M 164.5,174.5 C 166.527,174.338 168.527,174.505 170.5,175C 171.38,176.356 171.714,177.856 171.5,179.5C 170.108,182.393 167.941,183.06 165,181.5C 165.059,184.843 163.559,186.843 160.5,187.5C 159.041,187.567 157.708,187.234 156.5,186.5C 156.5,184.833 156.5,183.167 156.5,181.5C 160.411,180.551 163.078,178.217 164.5,174.5 Z"/></g>
<g><path style="opacity:1" fill="#dd197f" d="M 94.5,175.5 C 97.4534,175.15 99.7867,176.15 101.5,178.5C 99.31,179.374 98.31,181.041 98.5,183.5C 97.609,184.11 96.609,184.443 95.5,184.5C 94.1667,184.5 92.8333,184.5 91.5,184.5C 91.5,183.167 91.5,181.833 91.5,180.5C 93.2503,179.341 94.2503,177.674 94.5,175.5 Z"/></g>
<g><path style="opacity:1" fill="#de1c81" d="M 135.5,175.5 C 135.263,176.791 135.596,177.791 136.5,178.5C 135.853,180.141 134.853,181.474 133.5,182.5C 132.833,182.833 132.167,183.167 131.5,183.5C 130.833,183.5 130.167,183.5 129.5,183.5C 128.5,182.167 127.5,180.833 126.5,179.5C 129.23,177.723 132.23,176.389 135.5,175.5 Z"/></g>
<g><path style="opacity:1" fill="#b02376" d="M 150.5,170.5 C 150.34,172.199 150.506,173.866 151,175.5C 153.265,176.916 154.431,178.916 154.5,181.5C 154.5,181.833 154.5,182.167 154.5,182.5C 153.448,182.649 152.448,182.483 151.5,182C 146.808,178.183 146.475,174.35 150.5,170.5 Z"/></g>
<g><path style="opacity:1" fill="#2d2381" d="M 61.5,177.5 C 62.8333,177.5 64.1667,177.5 65.5,177.5C 67.3325,178.248 68.9991,179.248 70.5,180.5C 72.3727,187.324 69.706,191.324 62.5,192.5C 59.7238,191.911 57.3904,190.578 55.5,188.5C 54.1667,186.167 54.1667,183.833 55.5,181.5C 56.8021,179.178 58.8021,177.845 61.5,177.5 Z"/></g>
<g><path style="opacity:1" fill="#2d2280" d="M 101.5,178.5 C 106.07,178.678 110.57,179.345 115,180.5C 118.625,178.246 122.458,177.913 126.5,179.5C 127.5,180.833 128.5,182.167 129.5,183.5C 130.167,188.833 130.833,188.833 131.5,183.5C 132.167,183.167 132.833,182.833 133.5,182.5C 135.621,182.325 137.621,182.659 139.5,183.5C 139.5,183.833 139.5,184.167 139.5,184.5C 139.201,186.973 138.201,189.14 136.5,191C 137.965,194.7 137.632,198.2 135.5,201.5C 134.005,201.989 132.671,202.655 131.5,203.5C 129.833,203.5 128.167,203.5 126.5,203.5C 124.284,202.034 122.284,200.367 120.5,198.5C 120.5,196.5 120.5,194.5 120.5,192.5C 117.916,192.431 115.916,191.265 114.5,189C 113.251,188.26 112.251,188.427 111.5,189.5C 108.5,189.5 105.5,189.5 102.5,189.5C 99.9908,188.318 98.6574,186.318 98.5,183.5C 98.31,181.041 99.31,179.374 101.5,178.5 Z"/></g>
<g><path style="opacity:1" fill="#c985b4" d="M 136.5,178.5 C 137.833,178.5 139.167,178.5 140.5,178.5C 139.962,180.117 139.629,181.784 139.5,183.5C 137.621,182.659 135.621,182.325 133.5,182.5C 134.853,181.474 135.853,180.141 136.5,178.5 Z"/></g>
<g><path style="opacity:1" fill="#eab0cd" d="M 91.5,180.5 C 91.5,181.833 91.5,183.167 91.5,184.5C 88.9688,185.03 86.9688,186.364 85.5,188.5C 85.7048,186.365 85.3715,184.032 84.5,181.5C 84.8333,180.5 85.5,179.833 86.5,179.5C 88.0709,180.309 89.7376,180.643 91.5,180.5 Z"/></g>
<g><path style="opacity:1" fill="#ab106f" d="M 175.5,180.5 C 178.522,180.342 180.522,181.675 181.5,184.5C 180.256,187.789 177.922,188.956 174.5,188C 171.694,185.063 172.027,182.563 175.5,180.5 Z"/></g>
<g><path style="opacity:1" fill="#d78eb9" d="M 129.5,183.5 C 130.167,183.5 130.833,183.5 131.5,183.5C 130.833,188.833 130.167,188.833 129.5,183.5 Z"/></g>
<g><path style="opacity:1" fill="#e798bd" d="M 154.5,181.5 C 155.167,181.5 155.833,181.5 156.5,181.5C 156.5,183.167 156.5,184.833 156.5,186.5C 155.167,187.167 153.833,187.833 152.5,188.5C 153.63,186.685 154.296,184.685 154.5,182.5C 154.5,182.167 154.5,181.833 154.5,181.5 Z"/></g>
<g><path style="opacity:1" fill="#efa1c4" d="M 175.5,180.5 C 172.027,182.563 171.694,185.063 174.5,188C 177.922,188.956 180.256,187.789 181.5,184.5C 184.185,188.183 187.518,191.183 191.5,193.5C 191.5,195.833 191.5,198.167 191.5,200.5C 185.143,199.274 178.81,197.941 172.5,196.5C 172.5,195.5 172.5,194.5 172.5,193.5C 171.473,190.142 169.14,188.475 165.5,188.5C 164.041,188.433 162.708,188.766 161.5,189.5C 161.167,189.5 160.833,189.5 160.5,189.5C 160.5,188.833 160.5,188.167 160.5,187.5C 163.559,186.843 165.059,184.843 165,181.5C 167.941,183.06 170.108,182.393 171.5,179.5C 172.958,177.145 174.292,177.478 175.5,180.5 Z"/></g>
<g><path style="opacity:1" fill="#47a9e3" d="M 156.5,186.5 C 157.708,187.234 159.041,187.567 160.5,187.5C 160.5,188.167 160.5,188.833 160.5,189.5C 159.545,191.746 158.878,194.079 158.5,196.5C 157.5,196.5 156.5,196.5 155.5,196.5C 154.391,196.443 153.391,196.11 152.5,195.5C 151.972,194.279 151.305,193.113 150.5,192C 151.337,190.989 151.67,189.822 151.5,188.5C 151.833,188.5 152.167,188.5 152.5,188.5C 153.833,187.833 155.167,187.167 156.5,186.5 Z"/></g>
<g><path style="opacity:1" fill="#34247c" d="M 141.5,186.5 C 144.188,186.166 146.521,186.832 148.5,188.5C 149.667,194.496 147.334,196.996 141.5,196C 137.581,192.84 137.581,189.673 141.5,186.5 Z"/></g>
<g><path style="opacity:1" fill="#e20f7c" d="M 165.5,188.5 C 165.414,189.496 165.748,190.329 166.5,191C 168.217,192.559 170.217,193.392 172.5,193.5C 172.5,194.5 172.5,195.5 172.5,196.5C 170.089,201.291 166.422,202.624 161.5,200.5C 161.167,199.5 160.5,198.833 159.5,198.5C 159.167,197.833 158.833,197.167 158.5,196.5C 161.092,194.964 162.092,192.631 161.5,189.5C 162.708,188.766 164.041,188.433 165.5,188.5 Z"/></g>
<g><path style="opacity:1" fill="#a90a6e" d="M 165.5,188.5 C 169.14,188.475 171.473,190.142 172.5,193.5C 170.217,193.392 168.217,192.559 166.5,191C 165.748,190.329 165.414,189.496 165.5,188.5 Z"/></g>
<g><path style="opacity:1" fill="#3a2984" d="M 24.5,189.5 C 30.4877,189.664 31.821,192.164 28.5,197C 22.4034,197.147 21.0701,194.647 24.5,189.5 Z"/></g>
<g><path style="opacity:1" fill="#e11a80" d="M 102.5,189.5 C 105.5,189.5 108.5,189.5 111.5,189.5C 111.351,190.552 111.517,191.552 112,192.5C 114.64,194.792 117.474,196.792 120.5,198.5C 122.284,200.367 124.284,202.034 126.5,203.5C 127.778,206.789 129.445,206.789 131.5,203.5C 132.671,202.655 134.005,201.989 135.5,201.5C 137.116,203.416 136.782,204.916 134.5,206C 136.229,207.789 136.896,209.956 136.5,212.5C 131.56,217.065 128.06,216.065 126,209.5C 124.442,211.768 122.276,212.934 119.5,213C 121.118,215.8 120.285,217.3 117,217.5C 114.266,217.011 113.433,215.677 114.5,213.5C 115.11,212.609 115.443,211.609 115.5,210.5C 116.718,208.668 116.051,207.668 113.5,207.5C 114.063,205.09 114.563,202.757 115,200.5C 113.416,201.861 111.582,202.528 109.5,202.5C 109.5,202.167 109.5,201.833 109.5,201.5C 109.262,199.596 108.262,198.262 106.5,197.5C 104.776,195.086 103.442,192.42 102.5,189.5 Z"/></g>
<g><path style="opacity:1" fill="#e00e7d" d="M 80.5,191.5 C 80.3692,194.367 81.7026,196.033 84.5,196.5C 87.7684,197.855 88.1017,199.688 85.5,202C 82.8333,202.667 80.1667,202.667 77.5,202C 72.8962,196.842 73.8962,193.342 80.5,191.5 Z"/></g>
<g><path style="opacity:1" fill="#54ace1" d="M 55.5,188.5 C 57.3904,190.578 59.7238,191.911 62.5,192.5C 61.828,193.267 60.9947,193.934 60,194.5C 56.8022,193.77 55.3022,191.77 55.5,188.5 Z"/></g>
<g><path style="opacity:1" fill="#532881" d="M 160.5,189.5 C 160.833,189.5 161.167,189.5 161.5,189.5C 162.092,192.631 161.092,194.964 158.5,196.5C 158.878,194.079 159.545,191.746 160.5,189.5 Z"/></g>
<g><path style="opacity:1" fill="#eaabcb" d="M 120.5,198.5 C 117.474,196.792 114.64,194.792 112,192.5C 111.517,191.552 111.351,190.552 111.5,189.5C 112.251,188.427 113.251,188.26 114.5,189C 115.916,191.265 117.916,192.431 120.5,192.5C 120.5,194.5 120.5,196.5 120.5,198.5 Z"/></g>
<g><path style="opacity:1" fill="#e10d80" d="M 41.5,194.5 C 45.1378,193.737 46.6378,195.07 46,198.5C 41.4155,200.413 39.9155,199.079 41.5,194.5 Z"/></g>
<g><path style="opacity:1" fill="#372783" d="M 152.5,195.5 C 153.391,196.11 154.391,196.443 155.5,196.5C 156.183,198.176 157.517,198.843 159.5,198.5C 160.5,198.833 161.167,199.5 161.5,200.5C 161.5,203.833 159.833,205.5 156.5,205.5C 154.853,202.336 152.186,200.67 148.5,200.5C 148.183,197.454 149.516,195.787 152.5,195.5 Z"/></g>
<g><path style="opacity:1" fill="#e8a9ca" d="M 139.5,184.5 C 140.5,184.833 141.167,185.5 141.5,186.5C 137.581,189.673 137.581,192.84 141.5,196C 147.334,196.996 149.667,194.496 148.5,188.5C 149.5,188.5 150.5,188.5 151.5,188.5C 151.67,189.822 151.337,190.989 150.5,192C 151.305,193.113 151.972,194.279 152.5,195.5C 149.516,195.787 148.183,197.454 148.5,200.5C 147.539,202.265 147.205,204.265 147.5,206.5C 147.167,206.5 146.833,206.5 146.5,206.5C 145.661,201.332 143.161,200.332 139,203.5C 138.421,204.928 138.588,206.262 139.5,207.5C 138.313,209.072 137.313,210.739 136.5,212.5C 136.896,209.956 136.229,207.789 134.5,206C 136.782,204.916 137.116,203.416 135.5,201.5C 137.632,198.2 137.965,194.7 136.5,191C 138.201,189.14 139.201,186.973 139.5,184.5 Z"/></g>
<g><path style="opacity:1" fill="#dea5c3" d="M 155.5,196.5 C 156.5,196.5 157.5,196.5 158.5,196.5C 158.833,197.167 159.167,197.833 159.5,198.5C 157.517,198.843 156.183,198.176 155.5,196.5 Z"/></g>
<g><path style="opacity:1" fill="#5d247d" d="M 106.5,197.5 C 108.262,198.262 109.262,199.596 109.5,201.5C 107.738,200.738 106.738,199.404 106.5,197.5 Z"/></g>
<g><path style="opacity:1" fill="#4eaae3" d="M 106.5,197.5 C 106.738,199.404 107.738,200.738 109.5,201.5C 109.5,201.833 109.5,202.167 109.5,202.5C 108.833,202.833 108.167,203.167 107.5,203.5C 105.565,202.85 103.565,202.517 101.5,202.5C 101.167,202.5 100.833,202.5 100.5,202.5C 100.69,198.643 102.69,196.976 106.5,197.5 Z"/></g>
<g><path style="opacity:1" fill="#dc137d" d="M 148.5,200.5 C 152.186,200.67 154.853,202.336 156.5,205.5C 156.126,207.95 154.626,208.95 152,208.5C 149.992,208.693 148.492,208.026 147.5,206.5C 147.205,204.265 147.539,202.265 148.5,200.5 Z"/></g>
<g><path style="opacity:1" fill="#e2187e" d="M 100.5,202.5 C 100.833,202.5 101.167,202.5 101.5,202.5C 102.607,204.969 104.607,205.969 107.5,205.5C 108.88,205.962 109.547,206.962 109.5,208.5C 107.127,214.182 103.127,215.682 97.5,213C 94.207,208.249 95.207,204.749 100.5,202.5 Z"/></g>
<g><path style="opacity:1" fill="#452b85" d="M 101.5,202.5 C 103.565,202.517 105.565,202.85 107.5,203.5C 107.5,204.167 107.5,204.833 107.5,205.5C 104.607,205.969 102.607,204.969 101.5,202.5 Z"/></g>
<g><path style="opacity:1" fill="#f0b0ce" d="M 126.5,203.5 C 128.167,203.5 129.833,203.5 131.5,203.5C 129.445,206.789 127.778,206.789 126.5,203.5 Z"/></g>
<g><path style="opacity:1" fill="#392a80" d="M 146.5,206.5 C 144.304,208.545 141.97,208.878 139.5,207.5C 138.588,206.262 138.421,204.928 139,203.5C 143.161,200.332 145.661,201.332 146.5,206.5 Z"/></g>
<g><path style="opacity:1" fill="#e32b84" d="M 69.5,203.5 C 73.8433,203.347 76.01,205.347 76,209.5C 72.1094,212.652 69.2761,211.985 67.5,207.5C 67.7517,205.927 68.4183,204.594 69.5,203.5 Z"/></g>
<g><path style="opacity:1" fill="#302481" d="M 83.5,205.5 C 85.5,205.833 87.5,206.167 89.5,206.5C 89.8623,213.004 87.3623,214.671 82,211.5C 81.2516,209.16 81.7516,207.16 83.5,205.5 Z"/></g>
<g><path style="opacity:1" fill="#582f84" d="M 113.5,207.5 C 116.051,207.668 116.718,208.668 115.5,210.5C 114.833,209.5 114.167,208.5 113.5,207.5 Z"/></g>
<g><path style="opacity:1" fill="#5bade0" d="M 113.5,207.5 C 114.167,208.5 114.833,209.5 115.5,210.5C 115.443,211.609 115.11,212.609 114.5,213.5C 112.433,213.468 111.1,212.468 110.5,210.5C 110.516,208.484 111.516,207.484 113.5,207.5 Z"/></g>
</svg>
