<?xml version="1.0" encoding="UTF-8"?>
<!DOCTYPE svg PUBLIC "-//W3C//DTD SVG 1.1//EN" "http://www.w3.org/Graphics/SVG/1.1/DTD/svg11.dtd">
<svg xmlns="http://www.w3.org/2000/svg" version="1.1" width="192px" height="279px" style="shape-rendering:geometricPrecision; text-rendering:geometricPrecision; image-rendering:optimizeQuality; fill-rule:evenodd; clip-rule:evenodd" xmlns:xlink="http://www.w3.org/1999/xlink">
<g><path style="opacity:1" fill="#9ad8f6" d="M -0.5,-0.5 C 63.5,-0.5 127.5,-0.5 191.5,-0.5C 191.5,92.5 191.5,185.5 191.5,278.5C 127.5,278.5 63.5,278.5 -0.5,278.5C -0.5,185.5 -0.5,92.5 -0.5,-0.5 Z"/></g>
<g><path style="opacity:1" fill="#70b874" d="M 92.5,88.5 C 91.5386,86.7354 91.2053,84.7354 91.5,82.5C 87.5,82.5 83.5,82.5 79.5,82.5C 79.8016,85.0593 79.4682,87.3926 78.5,89.5C 78.5,86.8333 78.5,84.1667 78.5,81.5C 83.1667,81.5 87.8333,81.5 92.5,81.5C 92.5,83.8333 92.5,86.1667 92.5,88.5 Z"/></g>
<g><path style="opacity:1" fill="#66ae49" d="M 92.5,88.5 C 94.7354,88.2053 96.7354,88.5386 98.5,89.5C 98.5,93.5 98.5,97.5 98.5,101.5C 97.209,101.263 96.209,101.596 95.5,102.5C 94.5,102.5 93.5,102.5 92.5,102.5C 92.448,104.903 92.7814,107.236 93.5,109.5C 93.4565,114.996 95.6232,116.329 100,113.5C 102.53,115.696 104.697,118.196 106.5,121C 103.571,127.418 98.5714,130.252 91.5,129.5C 88.8607,127.691 86.6941,125.358 85,122.5C 83.0353,117.429 81.202,112.429 79.5,107.5C 79.5,106.167 79.5,104.833 79.5,103.5C 75.5,103.5 71.5,103.5 67.5,103.5C 67.5,99.5 67.5,95.5 67.5,91.5C 71.3597,91.1916 75.0264,90.5249 78.5,89.5C 79.4682,87.3926 79.8016,85.0593 79.5,82.5C 83.5,82.5 87.5,82.5 91.5,82.5C 91.2053,84.7354 91.5386,86.7354 92.5,88.5 Z"/></g>
<g><path style="opacity:1" fill="#99d6e4" d="M 132.5,92.5 C 129.5,92.5 126.5,92.5 123.5,92.5C 125.004,99.4933 122.337,102.327 115.5,101C 114.944,100.617 114.611,100.117 114.5,99.5C 120.599,98.921 122.932,95.7543 121.5,90C 124.101,87.5017 125.435,88.0017 125.5,91.5C 128.059,91.1984 130.393,91.5318 132.5,92.5 Z"/></g>
<g><path style="opacity:1" fill="#66ae49" d="M 54.5,96.5 C 56.8333,96.5 59.1667,96.5 61.5,96.5C 61.5,100.167 61.5,103.833 61.5,107.5C 60.209,107.263 59.209,107.596 58.5,108.5C 54.1288,111.022 53.4621,114.355 56.5,118.5C 58.0453,119.452 59.712,119.785 61.5,119.5C 61.5,123.167 61.5,126.833 61.5,130.5C 51.9809,132.312 44.6476,129.312 39.5,121.5C 38.0899,111.886 41.0899,104.053 48.5,98C 50.3453,96.872 52.3453,96.372 54.5,96.5 Z"/></g>
<g><path style="opacity:1" fill="#81c79c" d="M 98.5,89.5 C 99.4849,93.6344 99.8182,97.9677 99.5,102.5C 98.1667,102.5 96.8333,102.5 95.5,102.5C 96.209,101.596 97.209,101.263 98.5,101.5C 98.5,97.5 98.5,93.5 98.5,89.5 Z"/></g>
<g><path style="opacity:1" fill="#67ae4a" d="M 114.5,99.5 C 114.611,100.117 114.944,100.617 115.5,101C 122.337,102.327 125.004,99.4933 123.5,92.5C 126.5,92.5 129.5,92.5 132.5,92.5C 133.787,93.8714 134.453,95.7047 134.5,98C 135.04,102.489 135.374,106.989 135.5,111.5C 134.886,115.135 134.552,118.802 134.5,122.5C 134.5,122.833 134.5,123.167 134.5,123.5C 133.18,125.463 131.846,127.463 130.5,129.5C 128.026,132.31 125.026,134.31 121.5,135.5C 117.774,135.823 114.107,135.489 110.5,134.5C 111.833,133.5 111.833,132.5 110.5,131.5C 111.624,130.086 112.624,128.586 113.5,127C 113.167,126.667 112.833,126.333 112.5,126C 117.681,126.634 120.681,124.467 121.5,119.5C 121.799,117.396 121.466,115.396 120.5,113.5C 114.179,115.54 108.512,114.54 103.5,110.5C 102.461,104.203 102.294,97.8699 103,91.5C 106.394,90.5442 109.894,90.2108 113.5,90.5C 113.19,93.7131 113.523,96.7131 114.5,99.5 Z"/></g>
<g><path style="opacity:1" fill="#77bd82" d="M 54.5,96.5 C 56.9479,95.5269 59.6146,95.1936 62.5,95.5C 62.5,99.8333 62.5,104.167 62.5,108.5C 61.1667,108.5 59.8333,108.5 58.5,108.5C 59.209,107.596 60.209,107.263 61.5,107.5C 61.5,103.833 61.5,100.167 61.5,96.5C 59.1667,96.5 56.8333,96.5 54.5,96.5 Z"/></g>
<g><path style="opacity:1" fill="#83c7a1" d="M 147.5,115.5 C 148.919,114.549 150.585,114.216 152.5,114.5C 153.272,118.452 153.605,122.452 153.5,126.5C 153.167,126.5 152.833,126.5 152.5,126.5C 152.577,122.785 152.244,119.119 151.5,115.5C 150.167,115.5 148.833,115.5 147.5,115.5 Z"/></g>
<g><path style="opacity:1" fill="#75bb79" d="M 135.5,111.5 C 136.774,115.265 136.441,118.931 134.5,122.5C 134.552,118.802 134.886,115.135 135.5,111.5 Z"/></g>
<g><path style="opacity:1" fill="#67af4d" d="M 65.5,108.5 C 68.8333,108.5 72.1667,108.5 75.5,108.5C 75.3347,112.182 75.5014,115.848 76,119.5C 80.7827,120.044 83.6161,122.711 84.5,127.5C 83.9904,129.088 82.9904,130.255 81.5,131C 77.8484,131.499 74.1817,131.665 70.5,131.5C 68.629,131.141 67.129,130.141 66,128.5C 65.5004,121.842 65.3337,115.175 65.5,108.5 Z"/></g>
<g><path style="opacity:1" fill="#8aceb8" d="M 30.5,124.5 C 29.5,124.5 28.5,124.5 27.5,124.5C 27.7373,125.791 27.404,126.791 26.5,127.5C 26.5,126.167 26.5,124.833 26.5,123.5C 28.099,123.232 29.4324,123.566 30.5,124.5 Z"/></g>
<g><path style="opacity:1" fill="#97d6e1" d="M 134.5,123.5 C 134.461,124.756 134.961,125.756 136,126.5C 138.63,126.141 140.797,125.141 142.5,123.5C 143.404,124.209 143.737,125.209 143.5,126.5C 142.167,126.5 140.833,126.5 139.5,126.5C 139.5,128.5 139.5,130.5 139.5,132.5C 138.837,130.958 138.17,129.291 137.5,127.5C 136.614,128.325 136.281,129.325 136.5,130.5C 134.435,130.483 132.435,130.15 130.5,129.5C 131.846,127.463 133.18,125.463 134.5,123.5 Z"/></g>
<g><path style="opacity:1" fill="#66ae4a" d="M 147.5,115.5 C 148.833,115.5 150.167,115.5 151.5,115.5C 152.244,119.119 152.577,122.785 152.5,126.5C 152.238,127.978 152.571,129.311 153.5,130.5C 155.849,128.796 156.849,126.463 156.5,123.5C 159.246,118.449 163.58,115.782 169.5,115.5C 172.176,115.837 174.843,116.17 177.5,116.5C 178.665,125.858 174.999,132.191 166.5,135.5C 162.167,135.5 157.833,135.5 153.5,135.5C 153.216,137.415 153.549,139.081 154.5,140.5C 155.839,144.354 156.672,148.354 157,152.5C 158.936,154.254 160.77,155.921 162.5,157.5C 162.5,161.833 162.5,166.167 162.5,170.5C 157.258,171.729 153.425,170.063 151,165.5C 150.059,162.846 149.226,160.179 148.5,157.5C 148.768,155.901 148.434,154.568 147.5,153.5C 146.926,148.817 146.26,144.15 145.5,139.5C 145.5,138.167 145.5,136.833 145.5,135.5C 143.833,135.5 142.167,135.5 140.5,135.5C 139.596,134.791 139.263,133.791 139.5,132.5C 139.5,130.5 139.5,128.5 139.5,126.5C 140.833,126.5 142.167,126.5 143.5,126.5C 143.737,125.209 143.404,124.209 142.5,123.5C 142.5,120.833 142.5,118.167 142.5,115.5C 144.167,115.5 145.833,115.5 147.5,115.5 Z"/></g>
<g><path style="opacity:1" fill="#68b155" d="M 121.5,119.5 C 120.681,124.467 117.681,126.634 112.5,126C 112.833,126.333 113.167,126.667 113.5,127C 112.624,128.586 111.624,130.086 110.5,131.5C 111.833,132.5 111.833,133.5 110.5,134.5C 114.107,135.489 117.774,135.823 121.5,135.5C 121.5,135.833 121.5,136.167 121.5,136.5C 120.833,136.5 120.167,136.5 119.5,136.5C 113.454,137.198 107.787,136.198 102.5,133.5C 103.663,129.992 105.663,126.992 108.5,124.5C 111.386,124.29 114.386,124.123 117.5,124C 119.07,122.603 120.404,121.103 121.5,119.5 Z"/></g>
<g><path style="opacity:1" fill="#65ae47" d="M 30.5,124.5 C 30.8333,124.5 31.1667,124.5 31.5,124.5C 33.9608,125.531 36.6275,126.198 39.5,126.5C 39.3841,129.86 39.0508,133.193 38.5,136.5C 37.5269,138.948 37.1936,141.615 37.5,144.5C 38.791,144.737 39.791,144.404 40.5,143.5C 42.1624,142.169 43.829,140.836 45.5,139.5C 43.9951,138.158 43.3285,136.492 43.5,134.5C 45.1667,134.5 46.8333,134.5 48.5,134.5C 48.8333,134.5 49.1667,134.5 49.5,134.5C 49.5,146.5 49.5,158.5 49.5,170.5C 47.076,170.808 44.7427,170.474 42.5,169.5C 41.9027,166.029 41.236,162.695 40.5,159.5C 39.4324,158.566 38.099,158.232 36.5,158.5C 37.0265,163.807 36.3598,168.807 34.5,173.5C 34.1667,173.5 33.8333,173.5 33.5,173.5C 31.8333,173.5 30.1667,173.5 28.5,173.5C 28.7373,172.209 28.404,171.209 27.5,170.5C 27.5905,167.848 26.9238,165.515 25.5,163.5C 23.9325,151.425 24.2659,139.425 26.5,127.5C 27.404,126.791 27.7373,125.791 27.5,124.5C 28.5,124.5 29.5,124.5 30.5,124.5 Z"/></g>
<g><path style="opacity:1" fill="#76bb7b" d="M 156.5,123.5 C 156.849,126.463 155.849,128.796 153.5,130.5C 152.571,129.311 152.238,127.978 152.5,126.5C 152.833,126.5 153.167,126.5 153.5,126.5C 153.435,126.938 153.601,127.272 154,127.5C 154.608,125.934 155.442,124.6 156.5,123.5 Z"/></g>
<g><path style="opacity:1" fill="#97d5df" d="M 79.5,107.5 C 81.202,112.429 83.0353,117.429 85,122.5C 86.6941,125.358 88.8607,127.691 91.5,129.5C 89.8561,129.714 88.3561,129.38 87,128.5C 86.5172,129.448 86.3505,130.448 86.5,131.5C 85.1266,131.343 83.7932,131.51 82.5,132C 82.9574,132.414 83.2907,132.914 83.5,133.5C 87.6475,134.167 91.6475,134.834 95.5,135.5C 91.1539,135.334 86.8206,135.501 82.5,136C 81.6667,136.833 80.8333,137.667 80,138.5C 78.9887,137.663 77.8221,137.33 76.5,137.5C 76.5,142.5 76.5,147.5 76.5,152.5C 75.5128,147.695 75.1795,142.695 75.5,137.5C 77.2418,136.043 79.2418,134.876 81.5,134C 77.8312,132.907 74.1645,132.074 70.5,131.5C 74.1817,131.665 77.8484,131.499 81.5,131C 82.9904,130.255 83.9904,129.088 84.5,127.5C 83.6161,122.711 80.7827,120.044 76,119.5C 75.5014,115.848 75.3347,112.182 75.5,108.5C 72.1667,108.5 68.8333,108.5 65.5,108.5C 68.5091,107.717 71.6758,107.05 75,106.5C 76.584,106.988 77.7506,107.988 78.5,109.5C 79.2975,109.043 79.6309,108.376 79.5,107.5 Z"/></g>
<g><path style="opacity:1" fill="#96d4d8" d="M 130.5,129.5 C 130.586,130.496 130.252,131.329 129.5,132C 131.995,131.588 134.329,131.755 136.5,132.5C 127.832,133.832 124.999,138.832 128,147.5C 129.095,148.693 129.928,150.027 130.5,151.5C 130.06,153.844 129.06,155.844 127.5,157.5C 129.502,151.33 127.502,146.83 121.5,144C 119.455,143.51 117.455,143.677 115.5,144.5C 117.203,142.859 119.37,141.859 122,141.5C 124,142.167 125.333,143.5 126,145.5C 126.498,142.518 126.665,139.518 126.5,136.5C 124.833,136.5 123.167,136.5 121.5,136.5C 121.5,136.167 121.5,135.833 121.5,135.5C 125.026,134.31 128.026,132.31 130.5,129.5 Z"/></g>
<g><path style="opacity:1" fill="#8acbb2" d="M 140.5,135.5 C 142.167,135.5 143.833,135.5 145.5,135.5C 145.5,136.833 145.5,138.167 145.5,139.5C 144.596,138.791 144.263,137.791 144.5,136.5C 142.901,136.768 141.568,136.434 140.5,135.5 Z"/></g>
<g><path style="opacity:1" fill="#98d6e4" d="M 102.5,133.5 C 107.787,136.198 113.454,137.198 119.5,136.5C 116.359,137.321 113.025,137.821 109.5,138C 110.244,139.815 110.911,141.648 111.5,143.5C 108.518,143.037 105.518,142.704 102.5,142.5C 103.263,141.732 104.263,141.232 105.5,141C 104.773,139.601 104.273,138.101 104,136.5C 103.667,136.833 103.333,137.167 103,137.5C 102.51,136.207 102.343,134.873 102.5,133.5 Z"/></g>
<g><path style="opacity:1" fill="#72b772" d="M 166.5,135.5 C 162.702,136.483 158.702,136.817 154.5,136.5C 154.5,137.833 154.5,139.167 154.5,140.5C 153.549,139.081 153.216,137.415 153.5,135.5C 157.833,135.5 162.167,135.5 166.5,135.5 Z"/></g>
<g><path style="opacity:1" fill="#9bd9f7" d="M 119.5,136.5 C 120.167,136.5 120.833,136.5 121.5,136.5C 123.167,136.5 124.833,136.5 126.5,136.5C 126.665,139.518 126.498,142.518 126,145.5C 125.333,143.5 124,142.167 122,141.5C 119.37,141.859 117.203,142.859 115.5,144.5C 114.833,145.5 114.167,146.5 113.5,147.5C 112.833,146.167 112.167,144.833 111.5,143.5C 110.911,141.648 110.244,139.815 109.5,138C 113.025,137.821 116.359,137.321 119.5,136.5 Z"/></g>
<g><path style="opacity:1" fill="#9bd9f0" d="M 139.5,132.5 C 139.263,133.791 139.596,134.791 140.5,135.5C 141.568,136.434 142.901,136.768 144.5,136.5C 144.263,137.791 144.596,138.791 145.5,139.5C 146.26,144.15 146.926,148.817 147.5,153.5C 147.737,154.791 147.404,155.791 146.5,156.5C 144.14,151.631 140.806,147.464 136.5,144C 138.871,140.108 138.871,136.274 136.5,132.5C 134.329,131.755 131.995,131.588 129.5,132C 130.252,131.329 130.586,130.496 130.5,129.5C 132.435,130.15 134.435,130.483 136.5,130.5C 136.281,129.325 136.614,128.325 137.5,127.5C 138.17,129.291 138.837,130.958 139.5,132.5 Z"/></g>
<g><path style="opacity:1" fill="#83c59f" d="M 38.5,136.5 C 37.9898,139.388 38.6565,141.721 40.5,143.5C 39.791,144.404 38.791,144.737 37.5,144.5C 37.1936,141.615 37.5269,138.948 38.5,136.5 Z"/></g>
<g><path style="opacity:1" fill="#66ae4a" d="M 102.5,142.5 C 105.518,142.704 108.518,143.037 111.5,143.5C 110.941,147.853 110.275,152.186 109.5,156.5C 108.285,161.121 107.285,165.788 106.5,170.5C 103.169,172.298 99.5025,172.964 95.5,172.5C 94.4935,168.142 93.3269,163.809 92,159.5C 91.1764,156.118 91.343,152.784 92.5,149.5C 93.4461,149.013 94.4461,148.68 95.5,148.5C 96.8363,149.423 98.1696,149.923 99.5,150C 100.282,147.328 101.282,144.828 102.5,142.5 Z"/></g>
<g><path style="opacity:1" fill="#91d1c4" d="M 111.5,143.5 C 112.167,144.833 112.833,146.167 113.5,147.5C 111.9,153.689 111.233,160.022 111.5,166.5C 110.833,163.167 110.167,159.833 109.5,156.5C 110.275,152.186 110.941,147.853 111.5,143.5 Z"/></g>
<g><path style="opacity:1" fill="#80c399" d="M 49.5,134.5 C 50.4952,146.655 50.8286,158.989 50.5,171.5C 47.5,171.5 44.5,171.5 41.5,171.5C 40.6403,167.566 40.307,163.566 40.5,159.5C 41.236,162.695 41.9027,166.029 42.5,169.5C 44.7427,170.474 47.076,170.808 49.5,170.5C 49.5,158.5 49.5,146.5 49.5,134.5 Z"/></g>
<g><path style="opacity:1" fill="#67af4c" d="M 136.5,132.5 C 138.871,136.274 138.871,140.108 136.5,144C 140.806,147.464 144.14,151.631 146.5,156.5C 146.5,159.167 146.5,161.833 146.5,164.5C 144.46,172.669 139.794,174.669 132.5,170.5C 132.5,167.167 132.5,163.833 132.5,160.5C 134.099,160.768 135.432,160.434 136.5,159.5C 137.412,158.262 137.579,156.928 137,155.5C 134.722,154.281 132.555,152.948 130.5,151.5C 129.928,150.027 129.095,148.693 128,147.5C 124.999,138.832 127.832,133.832 136.5,132.5 Z"/></g>
<g><path style="opacity:1" fill="#85c8a4" d="M 147.5,153.5 C 148.434,154.568 148.768,155.901 148.5,157.5C 147.833,159.833 147.167,162.167 146.5,164.5C 146.5,161.833 146.5,159.167 146.5,156.5C 147.404,155.791 147.737,154.791 147.5,153.5 Z"/></g>
<g><path style="opacity:1" fill="#66af4c" d="M 127.5,157.5 C 124.958,158.6 122.625,159.933 120.5,161.5C 117.368,162.053 117.034,163.053 119.5,164.5C 121.453,163.844 123.453,163.511 125.5,163.5C 130.32,166.582 130.32,170.082 125.5,174C 118.599,175.588 113.932,173.088 111.5,166.5C 111.233,160.022 111.9,153.689 113.5,147.5C 114.167,146.5 114.833,145.5 115.5,144.5C 117.455,143.677 119.455,143.51 121.5,144C 127.502,146.83 129.502,151.33 127.5,157.5 Z"/></g>
<g><path style="opacity:1" fill="#9cd9ed" d="M 118.5,150.5 C 119.5,150.5 120.5,150.5 121.5,150.5C 121.5,151.833 121.5,153.167 121.5,154.5C 120.5,154.5 119.5,154.5 118.5,154.5C 118.5,153.167 118.5,151.833 118.5,150.5 Z"/></g>
<g><path style="opacity:1" fill="#7dc393" d="M 40.5,159.5 C 39.5,159.5 38.5,159.5 37.5,159.5C 37.5,164.167 37.5,168.833 37.5,173.5C 36.5,173.5 35.5,173.5 34.5,173.5C 36.3598,168.807 37.0265,163.807 36.5,158.5C 38.099,158.232 39.4324,158.566 40.5,159.5 Z"/></g>
<g><path style="opacity:1" fill="#89cdad" d="M 25.5,163.5 C 26.9238,165.515 27.5905,167.848 27.5,170.5C 26.0762,168.485 25.4095,166.152 25.5,163.5 Z"/></g>
<g><path style="opacity:1" fill="#8fd0c4" d="M 27.5,170.5 C 28.404,171.209 28.7373,172.209 28.5,173.5C 30.1667,173.5 31.8333,173.5 33.5,173.5C 31.7354,174.461 29.7354,174.795 27.5,174.5C 27.5,173.167 27.5,171.833 27.5,170.5 Z"/></g>
<g><path style="opacity:1" fill="#9ad7ed" d="M 103.5,110.5 C 108.512,114.54 114.179,115.54 120.5,113.5C 121.466,115.396 121.799,117.396 121.5,119.5C 120.404,121.103 119.07,122.603 117.5,124C 114.386,124.123 111.386,124.29 108.5,124.5C 105.663,126.992 103.663,129.992 102.5,133.5C 102.343,134.873 102.51,136.207 103,137.5C 103.333,137.167 103.667,136.833 104,136.5C 104.273,138.101 104.773,139.601 105.5,141C 104.263,141.232 103.263,141.732 102.5,142.5C 101.282,144.828 100.282,147.328 99.5,150C 98.1696,149.923 96.8363,149.423 95.5,148.5C 94.4461,148.68 93.4461,149.013 92.5,149.5C 91.343,152.784 91.1764,156.118 92,159.5C 93.3269,163.809 94.4935,168.142 95.5,172.5C 98.9619,173.482 102.629,173.815 106.5,173.5C 106.5,172.5 106.5,171.5 106.5,170.5C 107.285,165.788 108.285,161.121 109.5,156.5C 110.167,159.833 110.833,163.167 111.5,166.5C 113.932,173.088 118.599,175.588 125.5,174C 130.32,170.082 130.32,166.582 125.5,163.5C 123.833,162.833 122.167,162.167 120.5,161.5C 122.625,159.933 124.958,158.6 127.5,157.5C 129.06,155.844 130.06,153.844 130.5,151.5C 132.555,152.948 134.722,154.281 137,155.5C 137.579,156.928 137.412,158.262 136.5,159.5C 134.833,159.5 133.167,159.5 131.5,159.5C 131.185,163.371 131.518,167.038 132.5,170.5C 139.794,174.669 144.46,172.669 146.5,164.5C 147.167,162.167 147.833,159.833 148.5,157.5C 149.226,160.179 150.059,162.846 151,165.5C 153.425,170.063 157.258,171.729 162.5,170.5C 162.5,166.167 162.5,161.833 162.5,157.5C 163.321,160.641 163.821,163.975 164,167.5C 165.726,166.424 167.559,166.257 169.5,167C 168.984,170.033 168.317,173.366 167.5,177C 166.833,179 166.167,179 165.5,177C 166.233,175.234 166.567,173.401 166.5,171.5C 163.813,171.336 161.146,171.503 158.5,172C 157.027,172.71 156.36,173.876 156.5,175.5C 158.924,175.192 161.257,175.526 163.5,176.5C 162.5,176.833 161.5,177.167 160.5,177.5C 154.629,176.663 149.129,174.996 144,172.5C 143.219,173.944 143.386,175.277 144.5,176.5C 148.451,176.934 152.118,177.934 155.5,179.5C 114.833,179.5 74.1667,179.5 33.5,179.5C 37.3382,178.264 41.3382,177.264 45.5,176.5C 45.5,175.5 45.5,174.5 45.5,173.5C 46.552,173.649 47.552,173.483 48.5,173C 45.9644,172.814 43.631,172.314 41.5,171.5C 44.5,171.5 47.5,171.5 50.5,171.5C 50.8286,158.989 50.4952,146.655 49.5,134.5C 49.1667,134.5 48.8333,134.5 48.5,134.5C 46.7354,133.539 44.7354,133.205 42.5,133.5C 42.0405,136.877 41.3739,140.211 40.5,143.5C 38.6565,141.721 37.9898,139.388 38.5,136.5C 39.0508,133.193 39.3841,129.86 39.5,126.5C 36.6275,126.198 33.9608,125.531 31.5,124.5C 34.9419,125.172 37.6086,124.172 39.5,121.5C 44.6476,129.312 51.9809,132.312 61.5,130.5C 60.2055,132.328 59.2055,134.328 58.5,136.5C 57.325,136.281 56.325,136.614 55.5,137.5C 57.2914,138.17 58.9581,138.837 60.5,139.5C 54.2326,139.624 51.3993,142.957 52,149.5C 51.2422,155.891 51.5755,162.224 53,168.5C 56.4373,175.542 60.7706,176.209 66,170.5C 69,173.167 72,173.167 75,170.5C 74.3539,164.22 73.8539,157.887 73.5,151.5C 73.5,146.833 73.5,142.167 73.5,137.5C 74.1667,137.5 74.8333,137.5 75.5,137.5C 75.1795,142.695 75.5128,147.695 76.5,152.5C 77.3833,157.103 77.7166,161.77 77.5,166.5C 77.5,168.833 77.5,171.167 77.5,173.5C 81.0419,173.813 84.3752,173.479 87.5,172.5C 87.1688,164.14 87.5021,155.807 88.5,147.5C 90.7094,146.894 92.876,146.227 95,145.5C 95.5,143 96,140.5 96.5,138C 96.472,136.93 96.1386,136.097 95.5,135.5C 91.6475,134.834 87.6475,134.167 83.5,133.5C 83.2907,132.914 82.9574,132.414 82.5,132C 83.7932,131.51 85.1266,131.343 86.5,131.5C 86.3505,130.448 86.5172,129.448 87,128.5C 88.3561,129.38 89.8561,129.714 91.5,129.5C 98.5714,130.252 103.571,127.418 106.5,121C 104.697,118.196 102.53,115.696 100,113.5C 95.6232,116.329 93.4565,114.996 93.5,109.5C 95.1765,108.817 95.8432,107.483 95.5,105.5C 97.1667,105.5 98.8333,105.5 100.5,105.5C 100.771,107.821 100.104,109.821 98.5,111.5C 99.9905,112.244 101.491,112.91 103,113.5C 103.483,112.552 103.649,111.552 103.5,110.5 Z"/></g>
<g><path style="opacity:1" fill="#7ec197" d="M 106.5,170.5 C 106.5,171.5 106.5,172.5 106.5,173.5C 102.629,173.815 98.9619,173.482 95.5,172.5C 99.5025,172.964 103.169,172.298 106.5,170.5 Z"/></g>
<g><path style="opacity:1" fill="#7dc095" d="M 77.5,166.5 C 78.4614,168.265 78.7947,170.265 78.5,172.5C 81.5,172.5 84.5,172.5 87.5,172.5C 84.3752,173.479 81.0419,173.813 77.5,173.5C 77.5,171.167 77.5,168.833 77.5,166.5 Z"/></g>
<g><path style="opacity:1" fill="#7ac089" d="M 136.5,159.5 C 135.432,160.434 134.099,160.768 132.5,160.5C 132.5,163.833 132.5,167.167 132.5,170.5C 131.518,167.038 131.185,163.371 131.5,159.5C 133.167,159.5 134.833,159.5 136.5,159.5 Z"/></g>
<g><path style="opacity:1" fill="#96d2d1" d="M 120.5,161.5 C 122.167,162.167 123.833,162.833 125.5,163.5C 123.453,163.511 121.453,163.844 119.5,164.5C 117.034,163.053 117.368,162.053 120.5,161.5 Z"/></g>
<g><path style="opacity:1" fill="#80c595" d="M 73.5,137.5 C 73.5,142.167 73.5,146.833 73.5,151.5C 72.5139,147.03 72.1805,142.363 72.5,137.5C 69.8333,137.5 67.1667,137.5 64.5,137.5C 64.719,138.675 64.3857,139.675 63.5,140.5C 62.8933,140.376 62.56,140.043 62.5,139.5C 63.404,138.791 63.7373,137.791 63.5,136.5C 67.0419,136.187 70.3752,136.521 73.5,137.5 Z"/></g>
<g><path style="opacity:1" fill="#66ae4a" d="M 73.5,151.5 C 73.8539,157.887 74.3539,164.22 75,170.5C 72,173.167 69,173.167 66,170.5C 60.7706,176.209 56.4373,175.542 53,168.5C 51.5755,162.224 51.2422,155.891 52,149.5C 51.3993,142.957 54.2326,139.624 60.5,139.5C 61.1667,139.5 61.8333,139.5 62.5,139.5C 62.56,140.043 62.8933,140.376 63.5,140.5C 64.3857,139.675 64.719,138.675 64.5,137.5C 67.1667,137.5 69.8333,137.5 72.5,137.5C 72.1805,142.363 72.5139,147.03 73.5,151.5 Z"/></g>
<g><path style="opacity:1" fill="#98d6d5" d="M 60.5,154.5 C 63.3892,154.999 64.0558,156.499 62.5,159C 61.552,159.483 60.552,159.649 59.5,159.5C 59.366,157.708 59.6993,156.042 60.5,154.5 Z"/></g>
<g><path style="opacity:1" fill="#71b76d" d="M 48.5,134.5 C 46.8333,134.5 45.1667,134.5 43.5,134.5C 43.3285,136.492 43.9951,138.158 45.5,139.5C 43.829,140.836 42.1624,142.169 40.5,143.5C 41.3739,140.211 42.0405,136.877 42.5,133.5C 44.7354,133.205 46.7354,133.539 48.5,134.5 Z"/></g>
<g><path style="opacity:1" fill="#66ae48" d="M 95.5,135.5 C 96.1386,136.097 96.472,136.93 96.5,138C 96,140.5 95.5,143 95,145.5C 92.876,146.227 90.7094,146.894 88.5,147.5C 87.5021,155.807 87.1688,164.14 87.5,172.5C 84.5,172.5 81.5,172.5 78.5,172.5C 78.7947,170.265 78.4614,168.265 77.5,166.5C 77.7166,161.77 77.3833,157.103 76.5,152.5C 76.5,147.5 76.5,142.5 76.5,137.5C 77.8221,137.33 78.9887,137.663 80,138.5C 80.8333,137.667 81.6667,136.833 82.5,136C 86.8206,135.501 91.1539,135.334 95.5,135.5 Z"/></g>
<g><path style="opacity:1" fill="#66ae4a" d="M 33.5,179.5 C 74.1667,179.5 114.833,179.5 155.5,179.5C 152.177,194.652 143.51,205.485 129.5,212C 124.69,213.577 119.857,215.077 115,216.5C 113.699,217.098 112.865,218.098 112.5,219.5C 100.5,220.833 88.5,220.833 76.5,219.5C 76.0233,218.522 75.3567,217.689 74.5,217C 72.6183,216.802 70.9516,216.302 69.5,215.5C 67.4855,214.076 65.1522,213.41 62.5,213.5C 45.6253,208.293 35.9586,196.96 33.5,179.5 Z"/></g>
<g><path style="opacity:1" fill="#98d6d7" d="M 133.5,199.5 C 134.833,199.5 136.167,199.5 137.5,199.5C 137.826,195.116 137.492,190.783 136.5,186.5C 135.832,189.306 135.166,191.972 134.5,194.5C 134.5,191.5 134.5,188.5 134.5,185.5C 135.833,185.5 137.167,185.5 138.5,185.5C 138.5,190.5 138.5,195.5 138.5,200.5C 136.585,200.784 134.919,200.451 133.5,199.5 Z"/></g>
<g><path style="opacity:1" fill="#96d4d4" d="M 52.5,196.5 C 54.5,196.5 56.5,196.5 58.5,196.5C 58.5,197.833 58.5,199.167 58.5,200.5C 55.2869,200.81 52.2869,200.477 49.5,199.5C 52.2469,199.813 54.9135,199.48 57.5,198.5C 55.7086,197.83 54.0419,197.163 52.5,196.5 Z"/></g>
<g><path style="opacity:1" fill="#9bd7e9" d="M 111.5,185.5 C 120.485,184.979 123.652,188.979 121,197.5C 118.441,200.349 115.274,201.183 111.5,200C 107.527,195.098 107.527,190.264 111.5,185.5 Z"/></g>
<g><path style="opacity:1" fill="#9bd7eb" d="M 63.5,185.5 C 71.4888,184.989 74.6555,188.656 73,196.5C 68.2049,202.089 63.8715,201.756 60,195.5C 58.7563,191.191 59.9229,187.858 63.5,185.5 Z"/></g>
<g><path style="opacity:1" fill="#9cd8f2" d="M 79.5,185.5 C 81.653,187.794 83.3197,190.46 84.5,193.5C 84.56,194.043 84.8933,194.376 85.5,194.5C 86.4841,191.572 86.8174,188.572 86.5,185.5C 87.5,185.5 88.5,185.5 89.5,185.5C 89.5,190.5 89.5,195.5 89.5,200.5C 85.4316,200.438 82.765,198.438 81.5,194.5C 81.44,193.957 81.1067,193.624 80.5,193.5C 79.5344,195.396 79.2011,197.396 79.5,199.5C 78.5,199.5 77.5,199.5 76.5,199.5C 76.5,194.833 76.5,190.167 76.5,185.5C 77.5,185.5 78.5,185.5 79.5,185.5 Z"/></g>
<g><path style="opacity:1" fill="#66b052" d="M 112.5,189.5 C 118.555,188.942 119.888,191.109 116.5,196C 111.791,196.082 110.458,193.915 112.5,189.5 Z"/></g>
<g><path style="opacity:1" fill="#9cd9f8" d="M 93.5,186.5 C 95.8837,187.425 96.8837,189.258 96.5,192C 95.3378,193.773 94.8378,195.94 95,198.5C 96.9483,197.891 98.7816,197.224 100.5,196.5C 101.5,196.5 102.5,196.5 103.5,196.5C 103.546,187.286 104.213,187.286 105.5,196.5C 104.833,197.833 103.833,198.833 102.5,199.5C 99.5,199.5 96.5,199.5 93.5,199.5C 93.5,195.167 93.5,190.833 93.5,186.5 Z"/></g>
<g><path style="opacity:1" fill="#65b152" d="M 64.5,189.5 C 70.1549,189.325 71.4882,191.491 68.5,196C 63.5705,196.427 62.2372,194.26 64.5,189.5 Z"/></g>
<g><path style="opacity:1" fill="#8fcfc2" d="M 92.5,185.5 C 92.8333,185.5 93.1667,185.5 93.5,185.5C 93.5,185.833 93.5,186.167 93.5,186.5C 93.5,190.833 93.5,195.167 93.5,199.5C 96.5,199.5 99.5,199.5 102.5,199.5C 99.3752,200.479 96.0419,200.813 92.5,200.5C 92.5,195.5 92.5,190.5 92.5,185.5 Z"/></g>
<g><path style="opacity:1" fill="#80c697" d="M 86.5,185.5 C 86.8174,188.572 86.4841,191.572 85.5,194.5C 84.8933,194.376 84.56,194.043 84.5,193.5C 85.1667,190.833 85.8333,188.167 86.5,185.5 Z"/></g>
<g><path style="opacity:1" fill="#88ccaa" d="M 79.5,185.5 C 78.5,185.5 77.5,185.5 76.5,185.5C 76.5,190.167 76.5,194.833 76.5,199.5C 77.5,199.5 78.5,199.5 79.5,199.5C 79.2011,197.396 79.5344,195.396 80.5,193.5C 81.1067,193.624 81.44,193.957 81.5,194.5C 80.5386,196.265 80.2053,198.265 80.5,200.5C 78.8333,200.5 77.1667,200.5 75.5,200.5C 75.5,195.167 75.5,189.833 75.5,184.5C 77.099,184.232 78.4324,184.566 79.5,185.5 Z"/></g>
<g><path style="opacity:1" fill="#9ed9f5" d="M 52.5,196.5 C 54.0419,197.163 55.7086,197.83 57.5,198.5C 54.9135,199.48 52.2469,199.813 49.5,199.5C 49.5,194.833 49.5,190.167 49.5,185.5C 50.5,185.5 51.5,185.5 52.5,185.5C 52.5,189.167 52.5,192.833 52.5,196.5 Z"/></g>
<g><path style="opacity:1" fill="#9cd8f1" d="M 134.5,194.5 C 135.166,191.972 135.832,189.306 136.5,186.5C 137.492,190.783 137.826,195.116 137.5,199.5C 136.167,199.5 134.833,199.5 133.5,199.5C 131.863,197.684 130.363,195.684 129,193.5C 128.503,195.81 128.337,198.143 128.5,200.5C 127.167,200.5 125.833,200.5 124.5,200.5C 124.5,195.5 124.5,190.5 124.5,185.5C 125.873,185.343 127.207,185.51 128.5,186C 130.399,188.988 132.399,191.821 134.5,194.5 Z"/></g>
<g><path style="opacity:1" fill="#99d6e6" d="M 93.5,186.5 C 93.5,186.167 93.5,185.833 93.5,185.5C 97.4872,185.01 101.154,185.676 104.5,187.5C 106.499,190.449 106.832,193.449 105.5,196.5C 104.213,187.286 103.546,187.286 103.5,196.5C 102.5,196.5 101.5,196.5 100.5,196.5C 98.7816,197.224 96.9483,197.891 95,198.5C 94.8378,195.94 95.3378,193.773 96.5,192C 96.8837,189.258 95.8837,187.425 93.5,186.5 Z"/></g>
<g><path style="opacity:1" fill="#67b154" d="M 100.5,196.5 C 99.5,196.5 98.5,196.5 97.5,196.5C 97.5,194.167 97.5,191.833 97.5,189.5C 100.59,188.83 102.257,189.997 102.5,193C 102.138,194.434 101.472,195.601 100.5,196.5 Z"/></g>
<g><path style="opacity:1" fill="#6bb265" d="M 92.5,185.5 C 95.9758,184.357 99.6425,184.19 103.5,185C 104.252,185.671 104.586,186.504 104.5,187.5C 101.154,185.676 97.4872,185.01 93.5,185.5C 93.1667,185.5 92.8333,185.5 92.5,185.5 Z"/></g>
<g><path style="opacity:1" fill="#76bb7f" d="M 62.5,213.5 C 65.1522,213.41 67.4855,214.076 69.5,215.5C 66.8478,215.59 64.5145,214.924 62.5,213.5 Z"/></g>
</svg>
