<?xml version="1.0" encoding="UTF-8"?>
<!DOCTYPE svg PUBLIC "-//W3C//DTD SVG 1.1//EN" "http://www.w3.org/Graphics/SVG/1.1/DTD/svg11.dtd">
<svg xmlns="http://www.w3.org/2000/svg" version="1.1" width="192px" height="279px" style="shape-rendering:geometricPrecision; text-rendering:geometricPrecision; image-rendering:optimizeQuality; fill-rule:evenodd; clip-rule:evenodd" xmlns:xlink="http://www.w3.org/1999/xlink">
<g><path style="opacity:1" fill="#da0123" d="M -0.5,-0.5 C 63.5,-0.5 127.5,-0.5 191.5,-0.5C 191.5,92.5 191.5,185.5 191.5,278.5C 127.5,278.5 63.5,278.5 -0.5,278.5C -0.5,185.5 -0.5,92.5 -0.5,-0.5 Z"/></g>
<g><path style="opacity:1" fill="#faf0f1" d="M 56.5,104.5 C 61.0386,103.539 63.372,105.373 63.5,110C 62.9663,114.594 60.633,117.761 56.5,119.5C 53.7723,118.238 52.1056,116.072 51.5,113C 52.1366,109.537 53.8033,106.704 56.5,104.5 Z"/></g>
<g><path style="opacity:1" fill="#faf5f6" d="M 90.5,134.5 C 85.0679,136.715 79.7345,139.215 74.5,142C 73.0715,142.579 71.7382,142.412 70.5,141.5C 68.1606,138.494 65.4939,135.827 62.5,133.5C 69.9874,130.21 77.6541,127.377 85.5,125C 88.4424,123.876 91.4424,123.542 94.5,124C 97.3855,125.933 98.0521,128.433 96.5,131.5C 94.4734,132.513 92.4734,133.513 90.5,134.5 Z"/></g>
<g><path style="opacity:1" fill="#f9f4f5" d="M 82.5,113.5 C 87.8196,113.426 89.8196,116.093 88.5,121.5C 69.0348,125.155 50.3682,131.322 32.5,140C 30.7818,140.346 29.1151,140.846 27.5,141.5C 24.8603,139.378 25.1937,137.544 28.5,136C 45.9339,126.81 63.9339,119.31 82.5,113.5 Z"/></g>
<g><path style="opacity:1" fill="#faf8f8" d="M 14.5,166.5 C 19.0911,163.91 23.7577,161.41 28.5,159C 24.7376,159.53 21.071,160.697 17.5,162.5C 16.8165,162.137 16.1499,161.804 15.5,161.5C 15.1924,159.076 15.5258,156.743 16.5,154.5C 27.5,149 38.5,143.5 49.5,138C 50.635,137.251 51.635,137.417 52.5,138.5C 48.6051,146.93 44.9385,155.43 41.5,164C 32.8068,167.43 24.3068,171.264 16,175.5C 12.371,172.726 11.871,169.726 14.5,166.5 Z"/></g>
<g><path style="opacity:1" fill="#fbf7f8" d="M 109.5,144.5 C 103.771,145.686 98.1042,147.186 92.5,149C 87.1357,149.829 81.8023,149.663 76.5,148.5C 75.5,147.167 74.5,145.833 73.5,144.5C 79.4959,142.175 85.4959,140.175 91.5,138.5C 96.3079,137.448 101.141,136.448 106,135.5C 107.261,135.759 108.261,136.426 109,137.5C 109.497,139.81 109.663,142.143 109.5,144.5 Z"/></g>
<g><path style="opacity:1" fill="#dd2432" d="M 90.5,134.5 C 90.4606,135.583 90.1272,136.583 89.5,137.5C 89.9569,138.298 90.6236,138.631 91.5,138.5C 85.4959,140.175 79.4959,142.175 73.5,144.5C 74.5,145.833 75.5,147.167 76.5,148.5C 81.8023,149.663 87.1357,149.829 92.5,149C 98.1042,147.186 103.771,145.686 109.5,144.5C 109.611,145.117 109.944,145.617 110.5,146C 108.833,147 107.167,148 105.5,149C 108.825,152.151 112.325,152.318 116,149.5C 118.468,150.931 120.968,152.264 123.5,153.5C 122.539,156.426 121.873,159.426 121.5,162.5C 122.5,162.5 123.5,162.5 124.5,162.5C 124.397,159.781 124.731,157.115 125.5,154.5C 125.253,153.287 124.586,152.62 123.5,152.5C 125.189,150 127.522,149.167 130.5,150C 129.833,150.333 129.167,150.667 128.5,151C 129.737,151.232 130.737,151.732 131.5,152.5C 130.167,152.5 128.833,152.5 127.5,152.5C 127.308,155.601 126.642,158.601 125.5,161.5C 126.167,162.833 126.833,162.833 127.5,161.5C 129.138,156.414 130.138,156.747 130.5,162.5C 131.552,162.649 132.552,162.483 133.5,162C 134.099,160.378 134.766,158.878 135.5,157.5C 136.053,159.552 137.053,159.885 138.5,158.5C 139.043,158.56 139.376,158.893 139.5,159.5C 138.167,160.167 136.833,160.833 135.5,161.5C 137.516,162.694 139.516,162.694 141.5,161.5C 141.423,162.75 140.756,163.583 139.5,164C 142.919,164.248 146.253,164.748 149.5,165.5C 148.833,167.5 148.167,169.5 147.5,171.5C 146.596,172.209 146.263,173.209 146.5,174.5C 144.46,175.519 142.46,175.519 140.5,174.5C 140.624,173.893 140.957,173.56 141.5,173.5C 142.302,174.885 142.969,174.718 143.5,173C 144.233,171.234 144.567,169.401 144.5,167.5C 148.444,166.726 148.277,166.059 144,165.5C 142.319,165.608 141.152,166.275 140.5,167.5C 140.167,167.5 139.833,167.5 139.5,167.5C 139.631,166.624 139.298,165.957 138.5,165.5C 137.573,167.113 136.739,168.779 136,170.5C 135.871,166.882 134.038,165.215 130.5,165.5C 130.784,167.415 130.451,169.081 129.5,170.5C 129.532,165.787 127.199,164.287 122.5,166C 121.584,166.278 120.918,166.778 120.5,167.5C 119.833,166.833 119.167,166.167 118.5,165.5C 112.991,164.176 110.324,166.343 110.5,172C 110.684,173.376 111.351,174.209 112.5,174.5C 111.791,175.404 110.791,175.737 109.5,175.5C 109.5,174.167 109.5,172.833 109.5,171.5C 108.993,170.141 107.993,169.141 106.5,168.5C 111.363,166.325 110.697,165.325 104.5,165.5C 106.631,164.686 108.964,164.186 111.5,164C 112.738,163.31 112.738,162.81 111.5,162.5C 110.993,161.141 109.993,160.141 108.5,159.5C 109.833,158.833 111.167,158.167 112.5,157.5C 111.5,156.833 110.5,156.167 109.5,155.5C 110.833,154.833 112.167,154.167 113.5,153.5C 111.5,152.167 109.5,152.167 107.5,153.5C 106.577,156.447 105.911,159.447 105.5,162.5C 104.833,162.167 104.167,161.833 103.5,161.5C 107.631,154.327 105.631,151.327 97.5,152.5C 97.1489,155.903 96.4822,159.237 95.5,162.5C 95.1667,162.5 94.8333,162.5 94.5,162.5C 95.4475,163.978 96.7809,164.978 98.5,165.5C 96.5328,165.261 94.6995,165.594 93,166.5C 93.1404,168.851 93.6404,171.184 94.5,173.5C 92.8212,173.285 91.8212,173.952 91.5,175.5C 90.8333,175.5 90.1667,175.5 89.5,175.5C 89.9272,172.624 90.5938,169.791 91.5,167C 91.1667,166.5 90.8333,166 90.5,165.5C 89.1936,166.912 88.3603,168.579 88,170.5C 87.5983,169.128 87.0983,167.795 86.5,166.5C 85.635,165.417 84.635,165.251 83.5,166C 82.6453,168.436 81.9787,170.936 81.5,173.5C 80.8333,172.5 80.1667,171.5 79.5,170.5C 79.5,168.833 79.5,167.167 79.5,165.5C 78.0413,165.433 76.7079,165.766 75.5,166.5C 75.2053,164.265 75.5386,162.265 76.5,160.5C 76.3691,161.376 76.7025,162.043 77.5,162.5C 78.7376,158.689 79.4042,158.689 79.5,162.5C 80.675,162.719 81.675,162.386 82.5,161.5C 82.9424,160.261 83.6091,159.261 84.5,158.5C 84.3433,159.873 84.51,161.207 85,162.5C 86.3129,159.605 87.4796,156.605 88.5,153.5C 86.0912,152.202 84.4245,152.869 83.5,155.5C 82.596,154.791 82.2627,153.791 82.5,152.5C 81.0222,152.238 79.6888,152.571 78.5,153.5C 78.0576,154.739 77.3909,155.739 76.5,156.5C 75.0077,154.078 73.0077,153.412 70.5,154.5C 70.7093,155.086 71.0426,155.586 71.5,156C 69.8807,156.236 68.8807,157.069 68.5,158.5C 66.8474,155.869 65.1807,153.203 63.5,150.5C 64.9221,150.25 65.9221,149.417 66.5,148C 65.1669,146.16 65.3335,145.66 67,146.5C 67.065,144.117 67.8983,143.45 69.5,144.5C 70.3857,143.675 70.719,142.675 70.5,141.5C 71.7382,142.412 73.0715,142.579 74.5,142C 79.7345,139.215 85.0679,136.715 90.5,134.5 Z"/></g>
<g><path style="opacity:1" fill="#f5e6e6" d="M 84.5,158.5 C 85.0431,158.44 85.3764,158.107 85.5,157.5C 84.7573,156.818 84.0906,156.151 83.5,155.5C 84.4245,152.869 86.0912,152.202 88.5,153.5C 87.4796,156.605 86.3129,159.605 85,162.5C 84.51,161.207 84.3433,159.873 84.5,158.5 Z"/></g>
<g><path style="opacity:1" fill="#f6eced" d="M 141.5,161.5 C 139.516,162.694 137.516,162.694 135.5,161.5C 136.833,160.833 138.167,160.167 139.5,159.5C 139.376,158.893 139.043,158.56 138.5,158.5C 136.4,153.768 137.733,152.101 142.5,153.5C 141.5,154.167 140.5,154.833 139.5,155.5C 141.086,157.173 141.753,159.173 141.5,161.5 Z"/></g>
<g><path style="opacity:1" fill="#f9f4f5" d="M 63.5,150.5 C 65.1807,153.203 66.8474,155.869 68.5,158.5C 68.7852,160.288 68.4519,161.955 67.5,163.5C 57.7691,167.782 48.2691,172.449 39,177.5C 35.1491,172.732 35.9824,169.065 41.5,166.5C 44.2114,168.856 47.2114,169.523 50.5,168.5C 53.9363,162.627 57.103,156.627 60,150.5C 61.1455,149.316 62.3121,149.316 63.5,150.5 Z"/></g>
<g><path style="opacity:1" fill="#f8d9db" d="M 83.5,155.5 C 84.0906,156.151 84.7573,156.818 85.5,157.5C 85.3764,158.107 85.0431,158.44 84.5,158.5C 83.6091,159.261 82.9424,160.261 82.5,161.5C 81.675,162.386 80.675,162.719 79.5,162.5C 79.4042,158.689 78.7376,158.689 77.5,162.5C 76.7025,162.043 76.3691,161.376 76.5,160.5C 76.5,159.167 76.5,157.833 76.5,156.5C 77.3909,155.739 78.0576,154.739 78.5,153.5C 79.6888,152.571 81.0222,152.238 82.5,152.5C 82.2627,153.791 82.596,154.791 83.5,155.5 Z"/></g>
<g><path style="opacity:1" fill="#f9e4e3" d="M 123.5,152.5 C 124.586,152.62 125.253,153.287 125.5,154.5C 124.731,157.115 124.397,159.781 124.5,162.5C 123.5,162.5 122.5,162.5 121.5,162.5C 121.873,159.426 122.539,156.426 123.5,153.5C 123.5,153.167 123.5,152.833 123.5,152.5 Z"/></g>
<g><path style="opacity:1" fill="#f8e8e8" d="M 94.5,162.5 C 92.076,162.808 89.7427,162.474 87.5,161.5C 88.6416,158.601 89.3083,155.601 89.5,152.5C 91.924,152.192 94.2573,152.526 96.5,153.5C 94.8333,154.167 93.1667,154.833 91.5,155.5C 92.5,156.167 93.5,156.833 94.5,157.5C 93.1667,158.167 91.8333,158.833 90.5,159.5C 92.3316,160.057 93.6649,161.057 94.5,162.5 Z"/></g>
<g><path style="opacity:1" fill="#f6dfe1" d="M 103.5,161.5 C 100.904,162.265 98.2372,162.599 95.5,162.5C 96.4822,159.237 97.1489,155.903 97.5,152.5C 105.631,151.327 107.631,154.327 103.5,161.5 Z"/></g>
<g><path style="opacity:1" fill="#f7e4e5" d="M 131.5,152.5 C 132.167,157.833 132.833,157.833 133.5,152.5C 134.675,152.281 135.675,152.614 136.5,153.5C 135.754,154.736 135.421,156.07 135.5,157.5C 134.766,158.878 134.099,160.378 133.5,162C 132.552,162.483 131.552,162.649 130.5,162.5C 130.138,156.747 129.138,156.414 127.5,161.5C 126.833,162.833 126.167,162.833 125.5,161.5C 126.642,158.601 127.308,155.601 127.5,152.5C 128.833,152.5 130.167,152.5 131.5,152.5 Z"/></g>
<g><path style="opacity:1" fill="#dd1426" d="M 100.5,154.5 C 103.063,155.998 103.063,157.665 100.5,159.5C 99.3336,157.833 99.3336,156.166 100.5,154.5 Z"/></g>
<g><path style="opacity:1" fill="#f7e6e7" d="M 111.5,162.5 C 109.5,162.5 107.5,162.5 105.5,162.5C 105.911,159.447 106.577,156.447 107.5,153.5C 109.5,152.167 111.5,152.167 113.5,153.5C 112.167,154.167 110.833,154.833 109.5,155.5C 110.5,156.167 111.5,156.833 112.5,157.5C 111.167,158.167 109.833,158.833 108.5,159.5C 109.993,160.141 110.993,161.141 111.5,162.5 Z"/></g>
<g><path style="opacity:1" fill="#f6e9ea" d="M 117.5,152.5 C 122.694,152.942 122.694,153.942 117.5,155.5C 116.691,157.071 116.357,158.738 116.5,160.5C 117.873,160.343 119.207,160.51 120.5,161C 117.297,163.283 114.964,162.616 113.5,159C 113.722,156.038 115.056,153.871 117.5,152.5 Z"/></g>
<g><path style="opacity:1" fill="#e13f4b" d="M 14.5,166.5 C 14.6287,164.784 14.962,163.117 15.5,161.5C 16.1499,161.804 16.8165,162.137 17.5,162.5C 21.071,160.697 24.7376,159.53 28.5,159C 23.7577,161.41 19.0911,163.91 14.5,166.5 Z"/></g>
<g><path style="opacity:1" fill="#ed7c86" d="M 118.5,165.5 C 119.167,166.167 119.833,166.833 120.5,167.5C 119.659,169.379 119.325,171.379 119.5,173.5C 118.833,172.5 118.167,171.5 117.5,170.5C 118.301,168.958 118.634,167.292 118.5,165.5 Z"/></g>
<g><path style="opacity:1" fill="#f8e5e6" d="M 154.5,172.5 C 155.263,173.268 156.263,173.768 157.5,174C 155.527,174.495 153.527,174.662 151.5,174.5C 151.704,171.482 152.037,168.482 152.5,165.5C 154.924,165.192 157.257,165.526 159.5,166.5C 158.167,167.167 156.833,167.833 155.5,168.5C 156.167,169.167 156.833,169.833 157.5,170.5C 156.398,171.176 155.398,171.842 154.5,172.5 Z"/></g>
<g><path style="opacity:1" fill="#f8e4e5" d="M 104.5,165.5 C 110.697,165.325 111.363,166.325 106.5,168.5C 107.993,169.141 108.993,170.141 109.5,171.5C 108.167,171.5 106.833,171.5 105.5,171.5C 105.735,174.812 104.735,175.645 102.5,174C 103.406,171.209 104.073,168.376 104.5,165.5 Z"/></g>
<g><path style="opacity:1" fill="#f5e6e7" d="M 129.5,170.5 C 127.588,174.123 124.588,175.623 120.5,175C 119.944,174.617 119.611,174.117 119.5,173.5C 119.325,171.379 119.659,169.379 120.5,167.5C 120.918,166.778 121.584,166.278 122.5,166C 127.199,164.287 129.532,165.787 129.5,170.5 Z"/></g>
<g><path style="opacity:1" fill="#f9e9eb" d="M 141.5,173.5 C 141.357,171.738 141.691,170.071 142.5,168.5C 142.043,167.702 141.376,167.369 140.5,167.5C 141.152,166.275 142.319,165.608 144,165.5C 148.277,166.059 148.444,166.726 144.5,167.5C 144.567,169.401 144.233,171.234 143.5,173C 142.969,174.718 142.302,174.885 141.5,173.5 Z"/></g>
<g><path style="opacity:1" fill="#f7ebec" d="M 89.5,175.5 C 88.5,175.5 87.5,175.5 86.5,175.5C 85.7786,168.435 84.7786,168.102 83.5,174.5C 82.5084,174.672 81.8417,174.338 81.5,173.5C 81.9787,170.936 82.6453,168.436 83.5,166C 84.635,165.251 85.635,165.417 86.5,166.5C 87.0983,167.795 87.5983,169.128 88,170.5C 88.3603,168.579 89.1936,166.912 90.5,165.5C 90.8333,166 91.1667,166.5 91.5,167C 90.5938,169.791 89.9272,172.624 89.5,175.5 Z"/></g>
<g><path style="opacity:1" fill="#f8e9ea" d="M 118.5,165.5 C 118.634,167.292 118.301,168.958 117.5,170.5C 116.839,171.718 116.172,173.051 115.5,174.5C 114.004,170.665 113.004,170.665 112.5,174.5C 111.351,174.209 110.684,173.376 110.5,172C 110.324,166.343 112.991,164.176 118.5,165.5 Z"/></g>
<g><path style="opacity:1" fill="#e5484e" d="M 113.5,167.5 C 114.675,167.281 115.675,167.614 116.5,168.5C 114.948,169.798 113.948,169.465 113.5,167.5 Z"/></g>
<g><path style="opacity:1" fill="#de2a36" d="M 123.5,167.5 C 124.5,167.5 125.5,167.5 126.5,167.5C 126.978,170.278 125.978,172.278 123.5,173.5C 121.001,171.604 121.001,169.604 123.5,167.5 Z"/></g>
<g><path style="opacity:1" fill="#f7f0f0" d="M 149.5,165.5 C 150.376,165.369 151.043,165.702 151.5,166.5C 150.518,169.096 149.851,171.762 149.5,174.5C 147.952,174.179 147.285,173.179 147.5,171.5C 148.167,169.5 148.833,167.5 149.5,165.5 Z"/></g>
<g><path style="opacity:1" fill="#f7e3e5" d="M 75.5,166.5 C 76.7079,165.766 78.0413,165.433 79.5,165.5C 79.5,167.167 79.5,168.833 79.5,170.5C 79.6567,171.873 79.49,173.207 79,174.5C 78.7216,173.584 78.2216,172.918 77.5,172.5C 75.3193,172.284 73.6526,173.117 72.5,175C 69.854,175.497 67.1873,175.664 64.5,175.5C 64.5,174.5 64.5,173.5 64.5,172.5C 65.675,172.719 66.675,172.386 67.5,171.5C 65.5003,166.166 67.167,164.5 72.5,166.5C 71.675,167.386 70.675,167.719 69.5,167.5C 69.687,169.564 70.187,171.564 71,173.5C 72.7235,171.283 74.2235,168.95 75.5,166.5 Z"/></g>
<g><path style="opacity:1" fill="#f6dee1" d="M 98.5,165.5 C 97.9935,166.859 96.9935,167.859 95.5,168.5C 98.5684,173.126 97.2351,175.459 91.5,175.5C 91.8212,173.952 92.8212,173.285 94.5,173.5C 93.6404,171.184 93.1404,168.851 93,166.5C 94.6995,165.594 96.5328,165.261 98.5,165.5 Z"/></g>
<g><path style="opacity:1" fill="#f8e6e7" d="M 161.5,174.5 C 160.167,174.5 159.5,173.833 159.5,172.5C 159.413,167.001 162.08,164.668 167.5,165.5C 167.753,167.827 167.086,169.827 165.5,171.5C 166.246,172.736 166.579,174.07 166.5,175.5C 165.5,175.5 164.5,175.5 163.5,175.5C 163.719,174.325 163.386,173.325 162.5,172.5C 161.702,172.957 161.369,173.624 161.5,174.5 Z"/></g>
<g><path style="opacity:1" fill="#db2b3f" d="M 163.5,167.5 C 165.337,167.639 165.67,168.306 164.5,169.5C 163.702,169.043 163.369,168.376 163.5,167.5 Z"/></g>
<g><path style="opacity:1" fill="#f8eaeb" d="M 176.5,165.5 C 175.322,166.999 173.655,167.999 171.5,168.5C 172.5,169.167 173.5,169.833 174.5,170.5C 173.167,171.167 171.833,171.833 170.5,172.5C 171.949,173.172 173.282,173.839 174.5,174.5C 172.5,174.5 170.5,174.5 168.5,174.5C 168.5,173.5 168.5,172.5 168.5,171.5C 168.833,169.5 169.167,167.5 169.5,165.5C 171.833,165.5 174.167,165.5 176.5,165.5 Z"/></g>
<g><path style="opacity:1" fill="#e44c4f" d="M 176.5,165.5 C 177.167,165.5 177.833,165.5 178.5,165.5C 177.051,168.051 177.385,170.385 179.5,172.5C 177.668,173.057 176.335,174.057 175.5,175.5C 175.167,175.5 174.833,175.5 174.5,175.5C 174.5,175.167 174.5,174.833 174.5,174.5C 173.282,173.839 171.949,173.172 170.5,172.5C 171.833,171.833 173.167,171.167 174.5,170.5C 173.5,169.833 172.5,169.167 171.5,168.5C 173.655,167.999 175.322,166.999 176.5,165.5 Z"/></g>
<g><path style="opacity:1" fill="#f7e7e8" d="M 139.5,167.5 C 138.226,169.993 137.56,172.659 137.5,175.5C 134.355,174.923 132.855,172.923 133,169.5C 132,171.5 131,173.5 130,175.5C 129.506,173.866 129.34,172.199 129.5,170.5C 130.451,169.081 130.784,167.415 130.5,165.5C 134.038,165.215 135.871,166.882 136,170.5C 136.739,168.779 137.573,167.113 138.5,165.5C 139.298,165.957 139.631,166.624 139.5,167.5 Z"/></g>
<g><path style="opacity:1" fill="#ed7481" d="M 154.5,172.5 C 156.167,172.5 157.833,172.5 159.5,172.5C 159.5,173.833 160.167,174.5 161.5,174.5C 158.167,175.833 154.833,175.833 151.5,174.5C 153.527,174.662 155.527,174.495 157.5,174C 156.263,173.768 155.263,173.268 154.5,172.5 Z"/></g>
<g><path style="opacity:1" fill="#f5e0e3" d="M 178.5,165.5 C 183.443,165.288 184.11,166.288 180.5,168.5C 182.911,173.841 181.245,176.175 175.5,175.5C 176.335,174.057 177.668,173.057 179.5,172.5C 177.385,170.385 177.051,168.051 178.5,165.5 Z"/></g>
<g><path style="opacity:1" fill="#f29ba5" d="M 79.5,170.5 C 80.1667,171.5 80.8333,172.5 81.5,173.5C 81.8417,174.338 82.5084,174.672 83.5,174.5C 81.7354,175.461 79.7354,175.795 77.5,175.5C 77.5,174.5 77.5,173.5 77.5,172.5C 78.2216,172.918 78.7216,173.584 79,174.5C 79.49,173.207 79.6567,171.873 79.5,170.5 Z"/></g>
<g><path style="opacity:1" fill="#ec828f" d="M 147.5,171.5 C 147.285,173.179 147.952,174.179 149.5,174.5C 148.5,175.833 147.5,175.833 146.5,174.5C 146.263,173.209 146.596,172.209 147.5,171.5 Z"/></g>
<g><path style="opacity:1" fill="#f49aa9" d="M 168.5,171.5 C 168.5,172.5 168.5,173.5 168.5,174.5C 170.5,174.5 172.5,174.5 174.5,174.5C 174.5,174.833 174.5,175.167 174.5,175.5C 172.167,175.5 169.833,175.5 167.5,175.5C 167.232,173.901 167.566,172.568 168.5,171.5 Z"/></g>
</svg>
