<?xml version="1.0" encoding="UTF-8"?>
<!DOCTYPE svg PUBLIC "-//W3C//DTD SVG 1.1//EN" "http://www.w3.org/Graphics/SVG/1.1/DTD/svg11.dtd">
<svg xmlns="http://www.w3.org/2000/svg" version="1.1" width="192px" height="279px" style="shape-rendering:geometricPrecision; text-rendering:geometricPrecision; image-rendering:optimizeQuality; fill-rule:evenodd; clip-rule:evenodd" xmlns:xlink="http://www.w3.org/1999/xlink">
<g><path style="opacity:1" fill="#15748b" d="M -0.5,-0.5 C 63.5,-0.5 127.5,-0.5 191.5,-0.5C 191.5,92.5 191.5,185.5 191.5,278.5C 127.5,278.5 63.5,278.5 -0.5,278.5C -0.5,185.5 -0.5,92.5 -0.5,-0.5 Z"/></g>
<g><path style="opacity:1" fill="#fafcfc" d="M 120.5,174.5 C 122.071,167.295 124.571,160.295 128,153.5C 133.059,146.772 137.726,139.772 142,132.5C 152.851,107.101 148.684,84.6006 129.5,65C 108.202,48.0377 85.5358,46.0377 61.5,59C 34.1659,79.8452 28.3326,105.679 44,136.5C 52.9454,147.055 59.2787,159.055 63,172.5C 63.9025,173.701 65.0692,174.535 66.5,175C 72.5,175.667 78.5,175.667 84.5,175C 100.531,160.285 111.198,142.285 116.5,121C 113.82,108.74 107.653,106.573 98,114.5C 97.8702,118.951 97.2036,123.284 96,127.5C 88.911,130.948 85.0777,128.615 84.5,120.5C 86.5496,116.421 85.5496,113.254 81.5,111C 72.1995,108.121 67.5328,111.621 67.5,121.5C 69.6628,133.529 75.4961,143.529 85,151.5C 87.654,158.684 85.154,161.851 77.5,161C 68.3015,152.756 61.4682,142.922 57,131.5C 51.8618,115.781 56.6951,104.614 71.5,98C 74.8333,97.3333 78.1667,97.3333 81.5,98C 85.4357,99.5468 88.9357,101.713 92,104.5C 100.49,97.4722 109.657,96.6389 119.5,102C 127.19,109.593 129.69,118.76 127,129.5C 123.262,142.309 117.429,153.976 109.5,164.5C 104.428,173.741 97.428,181.241 88.5,187C 80.1667,187.667 71.8333,187.667 63.5,187C 59.2076,185.604 55.7076,183.104 53,179.5C 49.6667,171.5 46.3333,163.5 43,155.5C 21.2746,129.696 17.9413,101.696 33,71.5C 58.2596,36.9196 90.0929,29.4196 128.5,49C 158.254,71.3644 166.754,100.198 154,135.5C 150.244,144.02 145.244,151.687 139,158.5C 133.511,168.457 131.178,179.124 132,190.5C 129.877,198.458 125.044,204.125 117.5,207.5C 132.59,216.087 133.257,225.587 119.5,236C 123,238.167 125.833,241 128,244.5C 130.392,249.791 128.725,253.125 123,254.5C 118.602,252.11 114.769,248.944 111.5,245C 109.167,244 106.833,243 104.5,242C 91.5804,240.086 78.5804,239.086 65.5,239C 61.5,235.333 61.5,231.667 65.5,228C 80.8646,227.859 96.1979,227.192 111.5,226C 117.58,224.222 117.913,221.889 112.5,219C 96.9781,216.21 81.3115,214.876 65.5,215C 61.6073,211.254 61.6073,207.588 65.5,204C 82.8519,204.556 99.5185,201.556 115.5,195C 116.667,193.833 117.833,192.667 119,191.5C 119.445,185.82 119.945,180.154 120.5,174.5 Z"/></g>
<g><path style="opacity:1" fill="#18758c" d="M 120.5,174.5 C 120.516,172.516 119.516,171.516 117.5,171.5C 116.353,171.818 115.519,172.484 115,173.5C 114.193,169.551 113.693,169.551 113.5,173.5C 112.448,173.649 111.448,173.483 110.5,173C 112.099,171.934 113.099,170.434 113.5,168.5C 111.615,167.803 111.282,166.803 112.5,165.5C 111.675,164.614 110.675,164.281 109.5,164.5C 117.429,153.976 123.262,142.309 127,129.5C 129.69,118.76 127.19,109.593 119.5,102C 109.657,96.6389 100.49,97.4722 92,104.5C 88.9357,101.713 85.4357,99.5468 81.5,98C 78.1667,97.3333 74.8333,97.3333 71.5,98C 56.6951,104.614 51.8618,115.781 57,131.5C 61.4682,142.922 68.3015,152.756 77.5,161C 85.154,161.851 87.654,158.684 85,151.5C 75.4961,143.529 69.6628,133.529 67.5,121.5C 67.5328,111.621 72.1995,108.121 81.5,111C 85.5496,113.254 86.5496,116.421 84.5,120.5C 85.0777,128.615 88.911,130.948 96,127.5C 97.2036,123.284 97.8702,118.951 98,114.5C 107.653,106.573 113.82,108.74 116.5,121C 111.198,142.285 100.531,160.285 84.5,175C 78.5,175.667 72.5,175.667 66.5,175C 65.0692,174.535 63.9025,173.701 63,172.5C 59.2787,159.055 52.9454,147.055 44,136.5C 28.3326,105.679 34.1659,79.8452 61.5,59C 85.5358,46.0377 108.202,48.0377 129.5,65C 148.684,84.6006 152.851,107.101 142,132.5C 137.726,139.772 133.059,146.772 128,153.5C 124.571,160.295 122.071,167.295 120.5,174.5 Z"/></g>
</svg>
