<?xml version="1.0" encoding="UTF-8"?>
<!DOCTYPE svg PUBLIC "-//W3C//DTD SVG 1.1//EN" "http://www.w3.org/Graphics/SVG/1.1/DTD/svg11.dtd">
<svg xmlns="http://www.w3.org/2000/svg" version="1.1" width="192px" height="279px" style="shape-rendering:geometricPrecision; text-rendering:geometricPrecision; image-rendering:optimizeQuality; fill-rule:evenodd; clip-rule:evenodd" xmlns:xlink="http://www.w3.org/1999/xlink">
<g><path style="opacity:1" fill="#fdf2ef" d="M -0.5,-0.5 C 63.5,-0.5 127.5,-0.5 191.5,-0.5C 191.5,92.5 191.5,185.5 191.5,278.5C 127.5,278.5 63.5,278.5 -0.5,278.5C -0.5,185.5 -0.5,92.5 -0.5,-0.5 Z"/></g>
<g><path style="opacity:1" fill="#cf7477" d="M 123.5,54.5 C 123.5,54.8333 123.5,55.1667 123.5,55.5C 104.167,55.5 84.8333,55.5 65.5,55.5C 65.5,72.5 65.5,89.5 65.5,106.5C 65.1667,106.5 64.8333,106.5 64.5,106.5C 64.5,89.1667 64.5,71.8333 64.5,54.5C 84.1667,54.5 103.833,54.5 123.5,54.5 Z"/></g>
<g><path style="opacity:1" fill="#aa1626" d="M 123.5,55.5 C 123.5,72.5 123.5,89.5 123.5,106.5C 104.167,106.5 84.8333,106.5 65.5,106.5C 65.5,89.5 65.5,72.5 65.5,55.5C 84.8333,55.5 104.167,55.5 123.5,55.5 Z"/></g>
<g><path style="opacity:1" fill="#e4a1b4" d="M 123.5,54.5 C 124.497,71.3251 124.83,88.3251 124.5,105.5C 141.675,105.17 158.675,105.503 175.5,106.5C 175.167,106.5 174.833,106.5 174.5,106.5C 157.833,106.5 141.167,106.5 124.5,106.5C 124.167,106.5 123.833,106.5 123.5,106.5C 123.5,89.5 123.5,72.5 123.5,55.5C 123.5,55.1667 123.5,54.8333 123.5,54.5 Z"/></g>
<g><path style="opacity:1" fill="#ab014c" d="M 124.5,106.5 C 141.167,106.5 157.833,106.5 174.5,106.5C 174.5,125.833 174.5,145.167 174.5,164.5C 173.5,164.5 172.5,164.5 171.5,164.5C 171.879,163.194 172.212,161.861 172.5,160.5C 171.975,159.808 171.308,159.308 170.5,159C 171.791,145.542 171.791,132.042 170.5,118.5C 155.588,118.176 140.755,118.509 126,119.5C 124.569,115.365 124.069,111.032 124.5,106.5 Z"/></g>
<g><path style="opacity:1" fill="#de5721" d="M 64.5,107.5 C 64.5,126.5 64.5,145.5 64.5,164.5C 47.8333,164.5 31.1667,164.5 14.5,164.5C 14.5,145.5 14.5,126.5 14.5,107.5C 31.1667,107.5 47.8333,107.5 64.5,107.5 Z"/></g>
<g><path style="opacity:1" fill="#be2c13" d="M 64.5,106.5 C 64.8333,106.5 65.1667,106.5 65.5,106.5C 84.8333,106.5 104.167,106.5 123.5,106.5C 123.5,125.833 123.5,145.167 123.5,164.5C 123.5,164.833 123.5,165.167 123.5,165.5C 123.5,182.167 123.5,198.833 123.5,215.5C 104.167,215.5 84.8333,215.5 65.5,215.5C 65.8299,198.325 65.4966,181.325 64.5,164.5C 64.5,145.5 64.5,126.5 64.5,107.5C 64.5,107.167 64.5,106.833 64.5,106.5 Z"/></g>
<g><path style="opacity:1" fill="#e76735" d="M 64.5,106.5 C 64.5,106.833 64.5,107.167 64.5,107.5C 47.8333,107.5 31.1667,107.5 14.5,107.5C 14.5,126.5 14.5,145.5 14.5,164.5C 14.1667,164.5 13.8333,164.5 13.5,164.5C 13.5,145.167 13.5,125.833 13.5,106.5C 30.5,106.5 47.5,106.5 64.5,106.5 Z"/></g>
<g><path style="opacity:1" fill="#a90046" d="M 123.5,106.5 C 123.833,106.5 124.167,106.5 124.5,106.5C 124.069,111.032 124.569,115.365 126,119.5C 140.755,118.509 155.588,118.176 170.5,118.5C 171.791,132.042 171.791,145.542 170.5,159C 171.308,159.308 171.975,159.808 172.5,160.5C 172.212,161.861 171.879,163.194 171.5,164.5C 155.5,164.5 139.5,164.5 123.5,164.5C 123.5,145.167 123.5,125.833 123.5,106.5 Z"/></g>
<g><path style="opacity:1" fill="#d77496" d="M 174.5,106.5 C 174.833,106.5 175.167,106.5 175.5,106.5C 175.5,126.167 175.5,145.833 175.5,165.5C 158.5,165.5 141.5,165.5 124.5,165.5C 124.167,165.5 123.833,165.5 123.5,165.5C 123.5,165.167 123.5,164.833 123.5,164.5C 139.5,164.5 155.5,164.5 171.5,164.5C 172.5,164.5 173.5,164.5 174.5,164.5C 174.5,145.167 174.5,125.833 174.5,106.5 Z"/></g>
<g><path style="opacity:1" fill="#e28870" d="M 13.5,164.5 C 13.8333,164.5 14.1667,164.5 14.5,164.5C 31.1667,164.5 47.8333,164.5 64.5,164.5C 65.4966,181.325 65.8299,198.325 65.5,215.5C 84.8333,215.5 104.167,215.5 123.5,215.5C 123.5,198.833 123.5,182.167 123.5,165.5C 123.833,165.5 124.167,165.5 124.5,165.5C 124.5,182.5 124.5,199.5 124.5,216.5C 104.5,216.5 84.5,216.5 64.5,216.5C 64.5,199.5 64.5,182.5 64.5,165.5C 47.3251,165.83 30.3251,165.497 13.5,164.5 Z"/></g>
</svg>
