<?xml version="1.0" encoding="UTF-8"?>
<!DOCTYPE svg PUBLIC "-//W3C//DTD SVG 1.1//EN" "http://www.w3.org/Graphics/SVG/1.1/DTD/svg11.dtd">
<svg xmlns="http://www.w3.org/2000/svg" version="1.1" width="192px" height="279px" style="shape-rendering:geometricPrecision; text-rendering:geometricPrecision; image-rendering:optimizeQuality; fill-rule:evenodd; clip-rule:evenodd" xmlns:xlink="http://www.w3.org/1999/xlink">
<g><path style="opacity:1" fill="#0f00bb" d="M -0.5,-0.5 C 63.5,-0.5 127.5,-0.5 191.5,-0.5C 191.5,92.5 191.5,185.5 191.5,278.5C 127.5,278.5 63.5,278.5 -0.5,278.5C -0.5,185.5 -0.5,92.5 -0.5,-0.5 Z"/></g>
<g><path style="opacity:1" fill="#1f0cb5" d="M 107.5,162.5 C 107.53,163.497 107.03,164.164 106,164.5C 104.189,165.078 102.355,165.578 100.5,166C 98.6061,167.101 97.9394,168.434 98.5,170C 96.1527,170.334 93.8194,170.167 91.5,169.5C 91.1806,173.3 90.1806,173.466 88.5,170C 91.3355,168.56 91.8355,166.727 90,164.5C 89.6667,165.5 89.3333,166.5 89,167.5C 87.4157,166.139 85.5824,165.472 83.5,165.5C 83.719,166.675 83.3857,167.675 82.5,168.5C 81.7702,167.066 80.7702,165.9 79.5,165C 81.2112,163.867 81.7112,162.367 81,160.5C 78.6171,164.305 75.2837,165.638 71,164.5C 70.6667,159.833 70.3333,155.167 70,150.5C 69.885,147.992 68.885,145.992 67,144.5C 65.0374,145.625 63.204,146.959 61.5,148.5C 60.9348,150.544 59.9348,152.21 58.5,153.5C 58.8567,151.411 59.5233,149.411 60.5,147.5C 67.5021,143.052 67.1688,139.552 59.5,137C 55.1289,136.828 50.7956,136.328 46.5,135.5C 48.0947,130.48 50.0947,125.647 52.5,121C 60.3618,122.845 65.8618,127.678 69,135.5C 71.1777,144.699 72.011,154.032 71.5,163.5C 72.5,163.5 73.5,163.5 74.5,163.5C 74.9167,159.165 75.4167,154.832 76,150.5C 76.6395,147.888 77.8062,145.554 79.5,143.5C 80.4776,143.977 81.3109,144.643 82,145.5C 82.4995,151.491 82.6662,157.491 82.5,163.5C 83.8333,163.5 85.1667,163.5 86.5,163.5C 86.523,158.126 87.023,152.793 88,147.5C 88.5831,145.998 89.4164,144.665 90.5,143.5C 91.086,143.709 91.586,144.043 92,144.5C 92.9118,150.395 94.5785,156.062 97,161.5C 100.172,165.167 103.672,165.5 107.5,162.5 Z"/></g>
<g><path style="opacity:1" fill="#f1f0f8" d="M 73.5,138.5 C 73.7086,139.922 74.2086,141.255 75,142.5C 78.4598,138.554 81.9598,138.554 85.5,142.5C 88.0195,139.53 91.0195,138.863 94.5,140.5C 96.8227,146.305 98.656,152.305 100,158.5C 102.267,159.935 104.267,159.602 106,157.5C 110.02,143.026 113.353,143.026 116,157.5C 118.632,160.192 120.966,159.859 123,156.5C 124.139,153.417 125.472,150.417 127,147.5C 130.062,145.87 131.729,146.87 132,150.5C 135.355,145.69 139.021,145.356 143,149.5C 144.265,152.461 145.431,155.461 146.5,158.5C 147.167,158.833 147.833,159.167 148.5,159.5C 151.054,155.437 154.054,151.604 157.5,148C 160.351,146.711 163.351,146.211 166.5,146.5C 166.334,142.154 166.501,137.821 167,133.5C 167.718,132.549 168.551,132.383 169.5,133C 170.314,139.753 170.814,146.586 171,153.5C 172.493,158.895 175.993,160.895 181.5,159.5C 181.67,160.822 181.337,161.989 180.5,163C 175.213,164.688 171.213,163.188 168.5,158.5C 165.042,162.567 160.708,164.4 155.5,164C 154.646,162.978 153.646,162.145 152.5,161.5C 149.993,164.952 147.16,165.286 144,162.5C 142.553,158.457 140.553,154.79 138,151.5C 136.233,152.34 134.899,153.673 134,155.5C 133.275,157.949 132.275,160.283 131,162.5C 129.989,163.337 128.822,163.67 127.5,163.5C 127.66,161.801 127.494,160.134 127,158.5C 121.105,165.415 115.771,165.082 111,157.5C 109.824,159.196 108.657,160.862 107.5,162.5C 103.672,165.5 100.172,165.167 97,161.5C 94.5785,156.062 92.9118,150.395 92,144.5C 91.586,144.043 91.086,143.709 90.5,143.5C 89.4164,144.665 88.5831,145.998 88,147.5C 87.023,152.793 86.523,158.126 86.5,163.5C 85.1667,163.5 83.8333,163.5 82.5,163.5C 82.6662,157.491 82.4995,151.491 82,145.5C 81.3109,144.643 80.4776,143.977 79.5,143.5C 77.8062,145.554 76.6395,147.888 76,150.5C 75.4167,154.832 74.9167,159.165 74.5,163.5C 73.5,163.5 72.5,163.5 71.5,163.5C 72.011,154.032 71.1777,144.699 69,135.5C 65.8618,127.678 60.3618,122.845 52.5,121C 50.0947,125.647 48.0947,130.48 46.5,135.5C 50.7956,136.328 55.1289,136.828 59.5,137C 67.1688,139.552 67.5021,143.052 60.5,147.5C 59.5233,149.411 58.8567,151.411 58.5,153.5C 57.5806,156.089 55.914,158.089 53.5,159.5C 52.6725,163.796 52.1725,168.129 52,172.5C 51.9788,177.823 49.4788,180.323 44.5,180C 40.2417,175.728 38.2417,170.561 38.5,164.5C 31.3397,165.296 25.0064,163.462 19.5,159C 15.7502,158.74 12.0836,158.073 8.5,157C 7.10074,155.938 6.10074,154.605 5.5,153C 8.46355,148.346 12.4636,144.846 17.5,142.5C 20.6535,136.349 24.6535,130.849 29.5,126C 26.5466,120.594 23.7133,115.094 21,109.5C 20.3886,105.912 21.8886,104.746 25.5,106C 30.4179,110.412 34.7512,115.245 38.5,120.5C 41.7907,118.279 45.4574,117.113 49.5,117C 50.6623,114.184 51.8289,111.35 53,108.5C 54.3561,107.62 55.8561,107.286 57.5,107.5C 56.4764,110.555 55.1431,113.555 53.5,116.5C 64.2931,120.089 70.9598,127.422 73.5,138.5 Z"/></g>
<g><path style="opacity:1" fill="#4630b5" d="M 94.5,140.5 C 91.0195,138.863 88.0195,139.53 85.5,142.5C 81.9598,138.554 78.4598,138.554 75,142.5C 74.2086,141.255 73.7086,139.922 73.5,138.5C 78.4623,138.68 83.9623,138.68 90,138.5C 91.9855,138.569 93.4855,139.235 94.5,140.5 Z"/></g>
<g><path style="opacity:1" fill="#f5f3fa" d="M 112.5,135.5 C 114.912,135.694 115.912,137.027 115.5,139.5C 114.167,139.5 112.833,139.5 111.5,139.5C 111.433,138.041 111.766,136.708 112.5,135.5 Z"/></g>
<g><path style="opacity:1" fill="#220fae" d="M 29.5,130.5 C 30.4959,130.414 31.3292,130.748 32,131.5C 32.6667,133.5 32.6667,135.5 32,137.5C 29.4331,138.27 26.9331,139.27 24.5,140.5C 24.1667,140.167 23.8333,139.833 23.5,139.5C 25.7686,136.615 27.7686,133.615 29.5,130.5 Z"/></g>
<g><path style="opacity:1" fill="#2712ac" d="M 35.5,125.5 C 38.4958,128.196 40.8291,131.529 42.5,135.5C 40.604,136.466 38.604,136.799 36.5,136.5C 36.5999,133.333 35.9332,130.333 34.5,127.5C 34.8627,126.817 35.1961,126.15 35.5,125.5 Z"/></g>
<g><path style="opacity:1" fill="#2511ac" d="M 43.5,121.5 C 44.9778,121.238 46.3112,121.571 47.5,122.5C 45.2872,131.567 42.9538,131.567 40.5,122.5C 41.791,122.737 42.791,122.404 43.5,121.5 Z"/></g>
<g><path style="opacity:1" fill="#4a35a8" d="M 25.5,110.5 C 29.0177,113.86 32.0177,117.693 34.5,122C 34,122.5 33.5,123 33,123.5C 29.9711,119.438 27.4711,115.105 25.5,110.5 Z"/></g>
<g><path style="opacity:1" fill="#331ea6" d="M 56.5,140.5 C 58.288,140.215 59.9547,140.548 61.5,141.5C 59.2029,144.29 57.5362,143.956 56.5,140.5 Z"/></g>
<g><path style="opacity:1" fill="#2c17a9" d="M 49.5,141.5 C 51.7288,142.055 53.3954,143.389 54.5,145.5C 53.6721,146.415 52.6721,147.081 51.5,147.5C 50.2319,145.696 49.5652,143.696 49.5,141.5 Z"/></g>
<g><path style="opacity:1" fill="#1c09b6" d="M 28.5,142.5 C 32.439,142.178 33.2723,143.511 31,146.5C 28.1485,150.506 24.3152,152.84 19.5,153.5C 19.3367,151.143 19.5034,148.81 20,146.5C 22.8759,145.052 25.7092,143.719 28.5,142.5 Z"/></g>
<g><path style="opacity:1" fill="#3b24a8" d="M 44.5,142.5 C 45.1174,142.611 45.6174,142.944 46,143.5C 46.4955,145.473 46.6621,147.473 46.5,149.5C 45.5,149.5 44.5,149.5 43.5,149.5C 43.448,147.097 43.7814,144.764 44.5,142.5 Z"/></g>
<g><path style="opacity:1" fill="#2c17ae" d="M 37.5,140.5 C 38.5,140.5 39.5,140.5 40.5,140.5C 40.1103,143.839 39.6103,147.173 39,150.5C 31.9486,153.922 30.6152,152.922 35,147.5C 35.7436,145.1 36.5769,142.767 37.5,140.5 Z"/></g>
<g><path style="opacity:1" fill="#321ea2" d="M 52.5,150.5 C 56.1569,150.974 56.3236,152.307 53,154.5C 52.51,153.207 52.3433,151.873 52.5,150.5 Z"/></g>
<g><path style="opacity:1" fill="#2b18aa" d="M 13.5,149.5 C 15.256,150.552 15.9227,152.219 15.5,154.5C 9.92211,154.364 9.25545,152.698 13.5,149.5 Z"/></g>
<g><path style="opacity:1" fill="#2915b3" d="M 160.5,150.5 C 162.5,150.5 164.5,150.5 166.5,150.5C 166.142,157.03 162.808,160.196 156.5,160C 155.19,155.78 156.524,152.613 160.5,150.5 Z"/></g>
<g><path style="opacity:1" fill="#2c18b0" d="M 44.5,153.5 C 45.8333,153.5 47.1667,153.5 48.5,153.5C 48.4745,157.892 46.1412,159.892 41.5,159.5C 41.5,157.833 41.5,156.167 41.5,154.5C 42.791,154.737 43.791,154.404 44.5,153.5 Z"/></g>
<g><path style="opacity:1" fill="#3b25b3" d="M 35.5,155.5 C 37.256,156.552 37.9227,158.219 37.5,160.5C 32.8432,161.006 28.5099,160.173 24.5,158C 28.3121,157.205 31.9788,156.371 35.5,155.5 Z"/></g>
<g><path style="opacity:1" fill="#1e0bb3" d="M 45.5,162.5 C 46.5,162.5 47.5,162.5 48.5,162.5C 47.8045,180.555 45.4712,180.888 41.5,163.5C 43.099,163.768 44.4324,163.434 45.5,162.5 Z"/></g>
</svg>
