<?xml version="1.0" encoding="utf-8" ?><svg xmlns="http://www.w3.org/2000/svg" xmlns:xlink="http://www.w3.org/1999/xlink" width="705" height="1024" viewBox="0 0 705 1024"><path fill="#E7EFFE" transform="scale(3.67188 3.67025)" d="M0 0L192 0L192 279L0 279L0 0Z"/><path fill="#F1B843" transform="scale(3.67188 3.67025)" d="M16.0791 86.4694C29.1301 78.128 44.8393 70.7283 58.5472 63.3203C69.3803 57.4659 80.1636 51.557 91.0062 45.7286C100.58 40.5822 110.41 36.0001 120.088 31.0912C119.225 36.8229 119.799 48.1717 120.102 54.3527C120.869 70.0279 118.658 67.8676 106.581 75.6735L105.613 76.3741C104.328 77.5729 103.795 78.1418 102.711 79.5216C98.2529 86.6415 93.2999 93.8899 88.678 100.938C79.0347 115.661 69.4813 130.442 60.0186 145.281C60.8405 146.068 65.6108 148.524 66.7687 149.155C72.5167 152.29 80.4763 155.492 85.6273 159.42C86.2884 164.292 86.3705 173.51 86.3714 178.515C86.3727 185.605 86.7514 196.423 85.762 203.266C78.6042 200.887 64.626 193.659 57.6255 190.072C44.3769 183.284 30.7106 176.563 17.548 169.665C16.0214 160.448 16.2758 147.504 16.1491 138.052C15.9195 120.931 16.3829 103.582 16.0791 86.4694Z"/><path fill="#F5353E" transform="scale(3.67188 3.67025)" d="M18.818 123.154C19.7628 122.463 20.7217 121.792 21.694 121.14C30.2622 115.351 43.953 108.276 53.0589 103.319C60.3736 99.3376 96.6396 78.3487 102.711 79.5216C98.2529 86.6415 93.2999 93.8899 88.678 100.938C79.0347 115.661 69.4813 130.442 60.0186 145.281C54.445 141.636 48.0932 138.846 42.1464 135.831C34.1782 131.792 26.2329 128.195 18.818 123.154Z"/><path fill="#3F42FE" transform="scale(3.67188 3.67025)" d="M133.56 135.174C143.509 140.772 153.591 146.129 163.8 151.24C166.319 152.497 173.984 156.311 176.28 156.967L176.221 157.828C176.634 169.981 176.239 181.867 176.542 193.825C168.661 198.544 160.639 203.025 152.489 207.262C145.669 210.773 139.501 213.64 132.666 217.364L95.7825 237.71C90.814 240.395 79.162 246.778 74.1136 248.12C73.8506 241.221 72.8632 219.178 74.2986 212.966C79.6382 209.631 84.8619 206.114 89.9603 202.422C91.9988 197.885 96.6617 191.001 99.4594 186.685L117.131 159.842C121.928 152.522 126.395 144.98 131.454 137.832C132.108 136.908 132.798 136.013 133.56 135.174Z"/><path fill="#F5353E" transform="scale(3.67188 3.67025)" d="M133.56 135.174C143.509 140.772 153.591 146.129 163.8 151.24C166.319 152.497 173.984 156.311 176.28 156.967L176.221 157.828C170.156 160.575 159.619 166.738 153.555 170.043C138.17 178.545 122.659 186.818 107.028 194.859C103.766 196.51 92.8457 202.042 89.9603 202.422C91.9988 197.885 96.6617 191.001 99.4594 186.685L117.131 159.842C121.928 152.522 126.395 144.98 131.454 137.832C132.108 136.908 132.798 136.013 133.56 135.174Z"/><path fill="#3F42FE" transform="scale(3.67188 3.67025)" d="M106.581 75.6735C116.199 79.8086 125.329 85.214 134.573 90.1103C148.231 97.3447 162.201 103.462 175.819 110.836C175.809 122.551 176.269 134.304 176.026 146.033C175.952 149.626 176.072 153.376 176.28 156.967C173.984 156.311 166.319 152.497 163.8 151.24C153.591 146.129 143.509 140.772 133.56 135.174C127.691 130.434 118.259 128.691 112.405 123.566C107.817 119.549 106.794 113.96 106.552 108.097C106.328 102.687 106.311 97.2147 106.255 91.7917C106.228 86.6464 106.014 81.5038 105.613 76.3741L106.581 75.6735Z"/></svg>