<?xml version="1.0" encoding="UTF-8"?>
<!DOCTYPE svg PUBLIC "-//W3C//DTD SVG 1.1//EN" "http://www.w3.org/Graphics/SVG/1.1/DTD/svg11.dtd">
<svg xmlns="http://www.w3.org/2000/svg" version="1.1" width="192px" height="279px" style="shape-rendering:geometricPrecision; text-rendering:geometricPrecision; image-rendering:optimizeQuality; fill-rule:evenodd; clip-rule:evenodd" xmlns:xlink="http://www.w3.org/1999/xlink">
<g><path style="opacity:1" fill="#dd6f0b" d="M -0.5,-0.5 C 63.5,-0.5 127.5,-0.5 191.5,-0.5C 191.5,92.5 191.5,185.5 191.5,278.5C 127.5,278.5 63.5,278.5 -0.5,278.5C -0.5,185.5 -0.5,92.5 -0.5,-0.5 Z"/></g>
<g><path style="opacity:1" fill="#fdfaf8" d="M 108.5,218.5 C 110.634,215.654 110.967,212.654 109.5,209.5C 109.205,203.933 108.038,198.599 106,193.5C 105.536,194.094 105.369,194.761 105.5,195.5C 104.542,195.953 103.708,196.619 103,197.5C 102.502,200.482 102.335,203.482 102.5,206.5C 102.662,208.527 102.495,210.527 102,212.5C 101.333,211.833 100.667,211.167 100,210.5C 99.7837,212.384 99.117,214.051 98,215.5C 97.7105,213.048 97.0438,210.715 96,208.5C 95.7508,209.624 95.2508,210.624 94.5,211.5C 93.1667,210.833 91.8333,210.167 90.5,209.5C 89.549,210.326 88.549,210.492 87.5,210C 89.0074,209.163 89.5074,207.996 89,206.5C 87.3005,207.406 85.4672,207.739 83.5,207.5C 83.3367,209.857 83.5034,212.19 84,214.5C 85.2051,215.071 86.3717,215.738 87.5,216.5C 83.0183,219.309 78.6849,219.143 74.5,216C 75.448,215.517 76.448,215.351 77.5,215.5C 78.463,195.373 80.6297,175.373 84,155.5C 86.5515,148.555 88.2181,141.555 89,134.5C 80.0978,126.268 71.9311,117.434 64.5,108C 57.8737,103.043 51.5404,97.7092 45.5,92C 43.2983,90.9777 40.9649,90.4777 38.5,90.5C 34.7604,90.8759 31.0938,91.5426 27.5,92.5C 27.7811,90.0372 28.7811,87.8705 30.5,86C 34.1649,84.503 37.4983,82.503 40.5,80C 41.5,79.3333 42.5,79.3333 43.5,80C 49.5979,85.5556 56.2645,90.3889 63.5,94.5C 67.6516,98.1511 71.6516,101.984 75.5,106C 83.5329,111.013 91.5329,116.013 99.5,121C 101.9,122.701 104.567,123.534 107.5,123.5C 125.456,120.014 142.456,113.848 158.5,105C 162.251,104.934 165.751,104.101 169,102.5C 170.261,102.759 171.261,103.426 172,104.5C 172.66,107.534 172.16,110.367 170.5,113C 167.486,113.128 164.486,113.128 161.5,113C 152.537,118.981 142.87,123.647 132.5,127C 124.358,131.476 117.858,137.643 113,145.5C 110.694,150.584 109.528,155.917 109.5,161.5C 112.486,179.375 114.153,197.375 114.5,215.5C 116.564,215.687 118.564,216.187 120.5,217C 117.934,218.464 115.267,219.631 112.5,220.5C 110.645,220.66 109.312,219.993 108.5,218.5 Z"/></g>
<g><path style="opacity:1" fill="#e8b22a" d="M 19.5,136.5 C 24.5111,136.334 29.5111,136.501 34.5,137C 35.3802,138.356 35.7135,139.856 35.5,141.5C 33.8333,141.5 32.1667,141.5 30.5,141.5C 30.5,151.833 30.5,162.167 30.5,172.5C 28.5,172.5 26.5,172.5 24.5,172.5C 24.5,162.167 24.5,151.833 24.5,141.5C 22.8333,141.5 21.1667,141.5 19.5,141.5C 19.5,139.833 19.5,138.167 19.5,136.5 Z"/></g>
<g><path style="opacity:1" fill="#e8b52b" d="M 38.5,144.5 C 45.5842,144.004 48.5842,147.337 47.5,154.5C 47.4604,156.429 47.1271,158.262 46.5,160C 44.1902,160.497 41.8568,160.663 39.5,160.5C 39.1826,163.572 39.5159,166.572 40.5,169.5C 41.086,169.291 41.586,168.957 42,168.5C 42.4955,166.527 42.6621,164.527 42.5,162.5C 44.1667,162.5 45.8333,162.5 47.5,162.5C 47.8953,172.983 43.7287,175.649 35,170.5C 34.3333,163.167 34.3333,155.833 35,148.5C 35.6897,146.65 36.8564,145.316 38.5,144.5 Z"/></g>
<g><path style="opacity:1" fill="#e9b62c" d="M 54.5,144.5 C 61.1967,144.703 64.1967,148.203 63.5,155C 63.4555,156.764 63.1222,158.431 62.5,160C 59.3486,159.988 56.6819,160.988 54.5,163C 54.2575,165.072 54.5908,167.239 55.5,169.5C 56.5,169.5 57.5,169.5 58.5,169.5C 58.5,167.167 58.5,164.833 58.5,162.5C 60.1667,162.5 61.8333,162.5 63.5,162.5C 63.7065,166.587 62.3731,170.087 59.5,173C 56.6529,173.944 54.1529,173.444 52,171.5C 50.3989,163.605 50.0655,155.605 51,147.5C 52.1451,146.364 53.3117,145.364 54.5,144.5 Z"/></g>
<g><path style="opacity:1" fill="#e9bb2f" d="M 72.5,144.5 C 74.7224,144.178 76.5557,144.845 78,146.5C 78.4998,155.16 78.6664,163.827 78.5,172.5C 77.1667,172.5 75.8333,172.5 74.5,172.5C 74.5,164.833 74.5,157.167 74.5,149.5C 73.1667,149.5 71.8333,149.5 70.5,149.5C 70.5,157.167 70.5,164.833 70.5,172.5C 69.1667,172.5 67.8333,172.5 66.5,172.5C 66.5,163.5 66.5,154.5 66.5,145.5C 68.7354,145.795 70.7354,145.461 72.5,144.5 Z"/></g>
<g><path style="opacity:1" fill="#fdf8f4" d="M 116.5,145.5 C 120.007,144.994 123.174,145.66 126,147.5C 126.667,155.167 126.667,162.833 126,170.5C 122.333,174.5 118.667,174.5 115,170.5C 114.333,163.167 114.333,155.833 115,148.5C 115.513,147.473 116.013,146.473 116.5,145.5 Z"/></g>
<g><path style="opacity:1" fill="#fdf8f3" d="M 131.5,145.5 C 135.167,145.5 138.833,145.5 142.5,145.5C 142.666,155.839 142.5,166.172 142,176.5C 141.5,177.667 140.667,178.5 139.5,179C 137.167,179.667 134.833,179.667 132.5,179C 130.963,177.89 130.297,176.39 130.5,174.5C 132.827,174.247 134.827,174.914 136.5,176.5C 138.571,175.214 138.904,173.547 137.5,171.5C 135.298,172.78 133.132,172.78 131,171.5C 130.198,162.755 130.364,154.088 131.5,145.5 Z"/></g>
<g><path style="opacity:1" fill="#fcf2e7" d="M 148.5,145.5 C 151.187,145.336 153.854,145.503 156.5,146C 157.126,146.75 157.626,147.584 158,148.5C 158.5,156.493 158.666,164.493 158.5,172.5C 154.577,171.757 150.577,171.757 146.5,172.5C 145.56,168.537 145.393,164.537 146,160.5C 148.333,158.833 150.667,157.167 153,155.5C 153.497,153.19 153.663,150.857 153.5,148.5C 152.5,148.5 151.5,148.5 150.5,148.5C 150.5,150.5 150.5,152.5 150.5,154.5C 149.167,154.5 147.833,154.5 146.5,154.5C 146.065,151.162 146.732,148.162 148.5,145.5 Z"/></g>
<g><path style="opacity:1" fill="#dd6f0b" d="M 39.5,148.5 C 40.4959,148.414 41.3292,148.748 42,149.5C 42.4966,151.81 42.6633,154.143 42.5,156.5C 41.5,156.5 40.5,156.5 39.5,156.5C 39.5,153.833 39.5,151.167 39.5,148.5 Z"/></g>
<g><path style="opacity:1" fill="#de760f" d="M 55.5,148.5 C 56.5,148.5 57.5,148.5 58.5,148.5C 58.5,151.167 58.5,153.833 58.5,156.5C 57.1667,156.5 55.8333,156.5 54.5,156.5C 54.2786,153.721 54.612,151.054 55.5,148.5 Z"/></g>
<g><path style="opacity:1" fill="#de7515" d="M 119.5,148.5 C 120.5,148.5 121.5,148.5 122.5,148.5C 122.5,155.5 122.5,162.5 122.5,169.5C 121.167,169.5 119.833,169.5 118.5,169.5C 118.205,162.412 118.538,155.412 119.5,148.5 Z"/></g>
<g><path style="opacity:1" fill="#e17d26" d="M 135.5,148.5 C 136.15,148.804 136.817,149.137 137.5,149.5C 138.664,155.807 138.831,162.141 138,168.5C 137,169.833 136,169.833 135,168.5C 134.208,161.753 134.374,155.086 135.5,148.5 Z"/></g>
<g><path style="opacity:1" fill="#efbd85" d="M 152.5,160.5 C 152.56,159.957 152.893,159.624 153.5,159.5C 154.797,161.973 154.797,164.307 153.5,166.5C 153.795,164.265 153.461,162.265 152.5,160.5 Z"/></g>
<g><path style="opacity:1" fill="#dd7312" d="M 152.5,160.5 C 153.461,162.265 153.795,164.265 153.5,166.5C 151.739,170.7 150.739,170.367 150.5,165.5C 150.667,164.167 150.833,162.833 151,161.5C 151.383,160.944 151.883,160.611 152.5,160.5 Z"/></g>
<g><path style="opacity:1" fill="#f1c28f" d="M 105.5,195.5 C 104.223,199.194 103.223,202.861 102.5,206.5C 102.335,203.482 102.502,200.482 103,197.5C 103.708,196.619 104.542,195.953 105.5,195.5 Z"/></g>
<g><path style="opacity:1" fill="#eeb87c" d="M 109.5,209.5 C 110.967,212.654 110.634,215.654 108.5,218.5C 107.957,218.44 107.624,218.107 107.5,217.5C 109.223,215.132 109.89,212.466 109.5,209.5 Z"/></g>
</svg>
