<?xml version="1.0" encoding="UTF-8"?>
<!DOCTYPE svg PUBLIC "-//W3C//DTD SVG 1.1//EN" "http://www.w3.org/Graphics/SVG/1.1/DTD/svg11.dtd">
<svg xmlns="http://www.w3.org/2000/svg" version="1.1" width="192px" height="279px" style="shape-rendering:geometricPrecision; text-rendering:geometricPrecision; image-rendering:optimizeQuality; fill-rule:evenodd; clip-rule:evenodd" xmlns:xlink="http://www.w3.org/1999/xlink">
<g><path style="opacity:1" fill="#fefefe" d="M -0.5,-0.5 C 63.5,-0.5 127.5,-0.5 191.5,-0.5C 191.5,92.5 191.5,185.5 191.5,278.5C 127.5,278.5 63.5,278.5 -0.5,278.5C -0.5,185.5 -0.5,92.5 -0.5,-0.5 Z"/></g>
<g><path style="opacity:1" fill="#fbbdb6" d="M 173.5,100.5 C 174.832,109.308 175.498,118.475 175.5,128C 175.498,137.525 174.832,146.692 173.5,155.5C 174.833,137.167 174.833,118.833 173.5,100.5 Z"/></g>
<g><path style="opacity:1" fill="#f9281c" d="M 173.5,100.5 C 174.833,118.833 174.833,137.167 173.5,155.5C 147.05,180.253 120.716,205.253 94.5,230.5C 68.1813,205.348 42.0147,180.015 16,154.5C 15.3333,136.5 15.3333,118.5 16,100.5C 23.8634,92.3023 32.03,84.469 40.5,77C 50.8333,76.3333 61.1667,76.3333 71.5,77C 78.7147,84.7168 86.3813,91.8835 94.5,98.5C 102.285,92.2173 109.618,85.3839 116.5,78C 127.5,77.3333 138.5,77.3333 149.5,78C 157.671,85.3385 165.671,92.8385 173.5,100.5 Z"/></g>
<g><path style="opacity:1" fill="#fef8f8" d="M 88.5,155.5 C 94.6969,161.198 100.697,167.031 106.5,173C 101.309,185.414 95.6426,197.581 89.5,209.5C 83.3035,204.137 77.6369,198.304 72.5,192C 77.7105,179.749 83.0439,167.582 88.5,155.5 Z"/></g>
<g><path style="opacity:1" fill="#fef8f7" d="M 132.5,143.5 C 142.167,143.5 151.833,143.5 161.5,143.5C 161.5,145.833 161.5,148.167 161.5,150.5C 143.171,167.995 124.671,185.328 106,202.5C 113.965,182.436 122.798,162.769 132.5,143.5 Z"/></g>
<g><path style="opacity:1" fill="#f27669" d="M 132.5,143.5 C 142.319,142.506 152.319,142.173 162.5,142.5C 162.806,145.385 162.473,148.052 161.5,150.5C 161.5,148.167 161.5,145.833 161.5,143.5C 151.833,143.5 142.167,143.5 132.5,143.5 Z"/></g>
<g><path style="opacity:1" fill="#fefafa" d="M 70.5,138.5 C 74.4154,140.743 77.7488,143.743 80.5,147.5C 75.1024,159.962 69.4357,172.295 63.5,184.5C 57.3481,177.848 51.0148,171.348 44.5,165C 53.3417,156.325 62.0083,147.492 70.5,138.5 Z"/></g>
<g><path style="opacity:1" fill="#f14c43" d="M 138.5,129.5 C 146.097,131.467 154.097,132.134 162.5,131.5C 154.35,132.493 146.017,132.826 137.5,132.5C 137.263,131.209 137.596,130.209 138.5,129.5 Z"/></g>
<g><path style="opacity:1" fill="#fad1cb" d="M 161.5,105.5 C 162.493,113.984 162.826,122.651 162.5,131.5C 154.097,132.134 146.097,131.467 138.5,129.5C 140.264,124.978 142.264,120.645 144.5,116.5C 145.598,117.601 145.765,118.934 145,120.5C 143.17,123.491 141.337,126.491 139.5,129.5C 146.803,130.497 154.137,130.831 161.5,130.5C 161.5,122.167 161.5,113.833 161.5,105.5 Z"/></g>
<g><path style="opacity:1" fill="#fdf9f8" d="M 86.5,108.5 C 88.2554,109.072 89.9221,109.906 91.5,111C 101.681,121.014 111.681,131.181 121.5,141.5C 118.06,148.045 114.894,154.712 112,161.5C 101.304,150.47 90.3041,139.803 79,129.5C 80.3837,122.188 82.8837,115.188 86.5,108.5 Z"/></g>
<g><path style="opacity:1" fill="#fefbfa" d="M 31.5,101.5 C 41.9171,110.744 52.2504,120.244 62.5,130C 53.6525,139.014 44.6525,147.848 35.5,156.5C 33.1831,154.684 31.0165,152.684 29,150.5C 28.3333,135.167 28.3333,119.833 29,104.5C 30.045,103.627 30.8783,102.627 31.5,101.5 Z"/></g>
<g><path style="opacity:1" fill="#fdfbfa" d="M 161.5,105.5 C 161.5,113.833 161.5,122.167 161.5,130.5C 154.137,130.831 146.803,130.497 139.5,129.5C 141.337,126.491 143.17,123.491 145,120.5C 145.765,118.934 145.598,117.601 144.5,116.5C 146.686,109.794 149.686,103.461 153.5,97.5C 156.521,99.8544 159.188,102.521 161.5,105.5 Z"/></g>
<g><path style="opacity:1" fill="#fdfafa" d="M 122.5,88.5 C 130.243,87.8701 137.576,88.5367 144.5,90.5C 138.365,103.44 132.198,116.44 126,129.5C 118.319,121.986 110.819,114.319 103.5,106.5C 109.223,99.7751 115.556,93.7751 122.5,88.5 Z"/></g>
<g><path style="opacity:1" fill="#fdf9f9" d="M 44.5,88.5 C 52.5069,88.3336 60.5069,88.5003 68.5,89C 71.6667,92.1667 74.8333,95.3333 78,98.5C 76.0774,105.745 73.2441,112.745 69.5,119.5C 60.1837,111.351 51.0171,103.018 42,94.5C 41.3333,93.5 41.3333,92.5 42,91.5C 43.045,90.6266 43.8783,89.6266 44.5,88.5 Z"/></g>
<g><path style="opacity:1" fill="#e95443" d="M 122.5,88.5 C 129.982,87.508 137.648,87.1746 145.5,87.5C 145.737,88.791 145.404,89.791 144.5,90.5C 137.576,88.5367 130.243,87.8701 122.5,88.5 Z"/></g>
</svg>
